<?xml version="1.0" encoding="utf-8"?>
<!-- Generator: Adobe Illustrator 27.4.1, SVG Export Plug-In . SVG Version: 6.00 Build 0)  -->
<svg version="1.1" xmlns="http://www.w3.org/2000/svg" xmlns:xlink="http://www.w3.org/1999/xlink" x="0px" y="0px"
	 viewBox="0 0 88.8 98.3" style="enable-background:new 0 0 88.8 98.3;" xml:space="preserve">
<style type="text/css">
	.st0{fill:#6F8E54;stroke:#FFFFFF;stroke-miterlimit:10;}
	.st1{fill:none;stroke:#999999;stroke-miterlimit:10;}
	.st2{fill:none;stroke:#050505;stroke-width:0.5;stroke-miterlimit:10;}
	.st3{clip-path:url(#SVGID_00000183237308949823397630000018208095738493488518_);}
	.st4{fill:#FFFFFF;}
	.st5{display:none;}
	.st6{display:inline;}
</style>
<g id="Layer_1">
	<rect x="6" y="6.7" class="st0" width="77.2" height="87.1"/>
	<rect x="3.5" y="3.8" class="st1" width="82.3" height="92.8"/>
	<g>
		<g>
			<path class="st2" d="M71,86.5c7.1-4.1,10.6-8.2,10.6-8.2s0,0-0.1-0.1l-1.3,0.2c0,0-12,2.1-29.4,2.5c0,0-0.1,0.1-0.1,0.1
				C55.6,82.6,58.9,93.6,71,86.5z"/>
			<path class="st2" d="M80.2,78.5l1.3-0.2c-0.7-0.5-4.7-3.7-11.7-6.3c-11.4-4.2-14.4,6.4-19,8.9C68.1,80.6,80.2,78.5,80.2,78.5z"/>
			<g>
				<path class="st2" d="M61.9,72.2l-7.2,8.5c-0.1,0.1-0.2,0.1-0.3,0c-0.1-0.1-0.1-0.2,0-0.3c0,0,0,0,0,0L61.9,72.2
					C61.8,72.2,61.9,72.2,61.9,72.2C61.9,72.2,61.9,72.2,61.9,72.2z"/>
				<path class="st2" d="M64.8,72l-7.4,8.8c-0.1,0.1-0.2,0.1-0.3,0c-0.1-0.1-0.1-0.2,0-0.3c0,0,0,0,0,0L64.8,72
					C64.8,71.9,64.8,71.9,64.8,72C64.9,72,64.9,72,64.8,72z"/>
				<path class="st2" d="M67.4,72.6l-7,7.9c-0.1,0.1-0.2,0.1-0.3,0c-0.1-0.1-0.1-0.2,0-0.3c0,0,0,0,0,0L67.4,72.6
					C67.3,72.6,67.4,72.6,67.4,72.6C67.4,72.6,67.4,72.6,67.4,72.6z"/>
				<path class="st2" d="M70.1,73.2l-6.6,7.3c-0.1,0.1-0.2,0.1-0.3,0c-0.1-0.1-0.1-0.2,0-0.3c0,0,0,0,0,0L70.1,73.2
					C70,73.1,70,73.1,70.1,73.2C70.1,73.2,70.1,73.2,70.1,73.2z"/>
				<path class="st2" d="M72.7,74.2l-6.2,6.1c-0.1,0.1-0.2,0.1-0.3,0c-0.1-0.1-0.1-0.2,0-0.3c0,0,0,0,0,0L72.7,74.2
					C72.7,74.1,72.7,74.1,72.7,74.2C72.7,74.2,72.7,74.2,72.7,74.2z"/>
				<path class="st2" d="M74.9,75.1L69.6,80c-0.1,0.1-0.2,0.1-0.3,0s-0.1-0.2,0-0.3c0,0,0,0,0,0L74.9,75.1
					C74.9,75,74.9,75,74.9,75.1C74.9,75.1,74.9,75.1,74.9,75.1z"/>
				<path class="st2" d="M77.3,76.2l-4.2,3.3c-0.1,0.1-0.2,0-0.3,0c-0.1-0.1,0-0.2,0-0.3c0,0,0,0,0,0L77.3,76.2
					C77.3,76.1,77.3,76.1,77.3,76.2C77.3,76.2,77.3,76.2,77.3,76.2z"/>
				<path class="st2" d="M78.7,77.3l-3,2c-0.1,0.1-0.2,0-0.3-0.1c-0.1-0.1,0-0.2,0.1-0.3c0,0,0,0,0,0L78.7,77.3
					C78.7,77.3,78.7,77.3,78.7,77.3C78.7,77.3,78.7,77.3,78.7,77.3z"/>
				<path class="st2" d="M54.9,80.6l4.8,6.2c0,0,0,0,0,0.1c0,0,0,0-0.1,0l-5-6c-0.1-0.1-0.1-0.2,0-0.3
					C54.7,80.5,54.8,80.5,54.9,80.6C54.8,80.6,54.9,80.6,54.9,80.6z"/>
				<path class="st2" d="M57.8,80.5l5.5,6.8c0,0,0,0,0,0.1c0,0,0,0-0.1,0l-5.7-6.6c-0.1-0.1-0.1-0.2,0-0.3
					C57.6,80.4,57.7,80.4,57.8,80.5C57.8,80.5,57.8,80.5,57.8,80.5z"/>
				<path class="st2" d="M60.7,80.5l6,6.7c0,0,0,0,0,0.1c0,0,0,0-0.1,0l-6.3-6.5c-0.1-0.1-0.1-0.2,0-0.3
					C60.5,80.4,60.6,80.4,60.7,80.5C60.7,80.5,60.7,80.5,60.7,80.5z"/>
				<path class="st2" d="M63.7,80.2l6,5.8c0,0,0,0,0,0.1c0,0,0,0-0.1,0l-6.2-5.6c-0.1-0.1-0.1-0.2,0-0.3
					C63.5,80.1,63.6,80.1,63.7,80.2C63.7,80.2,63.7,80.2,63.7,80.2z"/>
				<path class="st2" d="M66.8,79.9l5.3,4.9c0,0,0,0,0,0.1c0,0,0,0-0.1,0l-5.5-4.7c-0.1-0.1-0.1-0.2,0-0.3
					C66.6,79.8,66.7,79.8,66.8,79.9C66.8,79.9,66.8,79.9,66.8,79.9z"/>
				<path class="st2" d="M70,79.6l5,3.3c0,0,0,0,0,0.1c0,0,0,0-0.1,0l-5.2-3.1c-0.1-0.1-0.1-0.2-0.1-0.3
					C69.7,79.6,69.9,79.6,70,79.6C70,79.6,70,79.6,70,79.6z"/>
				<path class="st2" d="M73.1,79.2l3.3,2.2c0,0,0,0,0,0.1c0,0,0,0-0.1,0l-3.4-2c-0.1-0.1-0.1-0.2-0.1-0.3S73,79.1,73.1,79.2
					C73.1,79.2,73.1,79.2,73.1,79.2z"/>
				<path class="st2" d="M76,79l2.6,1.1c0,0,0,0,0,0.1c0,0,0,0,0,0l-2.7-0.8c-0.1,0-0.2-0.1-0.1-0.2C75.7,79,75.9,78.9,76,79
					C76,78.9,76,78.9,76,79z"/>
				<path class="st2" d="M80.2,78.6c0,0-0.1,0-0.4,0.1c-0.2,0-0.6,0.1-1,0.2c-0.4,0.1-1,0.2-1.6,0.3c-0.6,0.1-1.3,0.2-2,0.3
					c-0.7,0.1-1.6,0.2-2.4,0.3c-0.4,0.1-0.9,0.1-1.3,0.2c-0.5,0.1-0.9,0.1-1.4,0.2c-0.9,0.1-1.9,0.2-2.9,0.3c-0.2,0-0.5,0.1-0.7,0.1
					c-0.2,0-0.5,0-0.7,0.1c-0.5,0-1,0.1-1.5,0.1c-1,0.1-2,0.2-3,0.3c-1,0.1-2,0.1-2.9,0.2c-0.9,0.1-1.9,0.1-2.7,0.2
					c-0.2,0-0.4,0-0.6,0c-0.2,0-0.4,0-0.6,0c-0.4,0-0.8,0-1.2,0c-3,0.1-5,0.2-5,0.2c-0.3,0-0.5-0.2-0.5-0.5c0-0.3,0.2-0.5,0.5-0.5
					c0,0,0,0,0,0l0,0c0,0,2,0,5-0.1c0.4,0,0.8,0,1.2,0c0.2,0,0.4,0,0.6,0c0.2,0,0.4,0,0.6,0c0.9,0,1.8-0.1,2.7-0.1
					c0.9,0,1.9-0.1,2.9-0.1c1-0.1,2-0.1,3-0.2c0.5,0,1-0.1,1.5-0.1c0.3,0,0.5,0,0.7,0c0.2,0,0.5,0,0.7-0.1c1-0.1,2-0.2,2.9-0.2
					c0.5,0,0.9-0.1,1.4-0.1c0.5,0,0.9-0.1,1.3-0.1c0.9-0.1,1.7-0.2,2.4-0.3c0.7-0.1,1.4-0.2,2-0.3c0.6-0.1,1.1-0.2,1.6-0.2
					c0.4-0.1,0.8-0.1,1-0.1c0.2,0,0.4-0.1,0.4-0.1c0.1,0,0.1,0,0.1,0.1C80.3,78.5,80.2,78.6,80.2,78.6z"/>
			</g>
		</g>
		<g>
			<defs>
				<rect id="SVGID_1_" x="6.6" y="7.1" width="75.7" height="85.9"/>
			</defs>
			<clipPath id="SVGID_00000121262441277054030400000006975503205986590886_">
				<use xlink:href="#SVGID_1_"  style="overflow:visible;"/>
			</clipPath>
			<g style="clip-path:url(#SVGID_00000121262441277054030400000006975503205986590886_);">
				<g>
					<path class="st2" d="M25.7,17.2C17.1,8,9.8,4.2,9.8,4.2s0,0.1-0.1,0.2l0.7,1.9c0,0,7.5,17.4,14.2,43.4c0.1,0.1,0.1,0.1,0.2,0.2
						C25.4,41.8,40.5,32.9,25.7,17.2z"/>
					<path class="st2" d="M10.4,6.3L9.7,4.4c-0.6,1.2-3.8,8.5-5.1,19.9C2.4,43.1,19.2,43.7,24.7,49.7C17.9,23.7,10.4,6.3,10.4,6.3z"
						/>
					<g>
						<path class="st2" d="M7.7,36.1L23,43.9c0.1,0.1,0.2,0.2,0.1,0.4c-0.1,0.1-0.2,0.2-0.4,0.1c0,0,0,0,0,0L7.6,36.2
							C7.6,36.2,7.6,36.2,7.7,36.1C7.6,36.1,7.7,36.1,7.7,36.1z"/>
						<path class="st2" d="M6.3,31.7L22,39.8c0.1,0.1,0.2,0.2,0.1,0.4c-0.1,0.1-0.2,0.2-0.4,0.1c0,0,0,0,0,0L6.2,31.8
							C6.2,31.8,6.2,31.8,6.3,31.7C6.2,31.7,6.3,31.7,6.3,31.7z"/>
						<path class="st2" d="M6.3,27.6l14.2,7.8c0.1,0.1,0.2,0.3,0.1,0.4c-0.1,0.1-0.2,0.2-0.4,0.1c0,0,0,0,0,0l-14-8.2
							C6.3,27.7,6.2,27.7,6.3,27.6C6.3,27.6,6.3,27.6,6.3,27.6z"/>
						<path class="st2" d="M6.2,23.4l13.3,7.4c0.1,0.1,0.2,0.3,0.1,0.4c-0.1,0.1-0.3,0.2-0.4,0.1c0,0,0,0,0,0l-13-7.8
							C6.1,23.5,6.1,23.5,6.2,23.4C6.1,23.4,6.2,23.4,6.2,23.4z"/>
						<path class="st2" d="M6.8,19.1l11.3,7.1c0.1,0.1,0.2,0.3,0.1,0.4c-0.1,0.1-0.3,0.2-0.4,0.1c0,0,0,0,0,0L6.7,19.2
							C6.7,19.2,6.7,19.1,6.8,19.1C6.7,19.1,6.8,19.1,6.8,19.1z"/>
						<path class="st2" d="M7.3,15.4l9.2,6.2c0.1,0.1,0.2,0.3,0.1,0.4c-0.1,0.1-0.3,0.2-0.4,0.1c0,0,0,0,0,0L7.3,15.4
							C7.2,15.5,7.2,15.5,7.3,15.4C7.3,15.4,7.3,15.4,7.3,15.4z"/>
						<path class="st2" d="M8.1,11.4l6.4,5.2c0.1,0.1,0.1,0.3,0,0.4c-0.1,0.1-0.3,0.1-0.4,0c0,0,0,0,0,0L8.1,11.4
							C8,11.5,8,11.4,8.1,11.4C8.1,11.4,8.1,11.4,8.1,11.4z"/>
						<path class="st2" d="M9.3,8.9l4,3.8c0.1,0.1,0.1,0.3,0,0.4c-0.1,0.1-0.3,0.1-0.4,0c0,0,0,0,0,0L9.3,8.9C9.2,9,9.2,9,9.3,8.9
							C9.3,8.9,9.3,8.9,9.3,8.9z"/>
						<path class="st2" d="M22.6,43.7l7.5-9.4c0,0,0.1,0,0.1,0c0,0,0,0.1,0,0.1L23.1,44c-0.1,0.1-0.3,0.2-0.4,0.1
							C22.6,44,22.5,43.8,22.6,43.7C22.6,43.7,22.6,43.7,22.6,43.7z"/>
						<path class="st2" d="M21.5,39.3l8.2-10.7c0,0,0.1,0,0.1,0c0,0,0,0.1,0,0.1l-7.8,11c-0.1,0.1-0.3,0.2-0.4,0.1
							C21.4,39.6,21.4,39.5,21.5,39.3C21.5,39.3,21.5,39.3,21.5,39.3z"/>
						<path class="st2" d="M20.4,34.9l7.8-11.5c0,0,0.1,0,0.1,0c0,0,0,0.1,0,0.1l-7.4,11.8c-0.1,0.1-0.3,0.2-0.4,0.1
							C20.4,35.2,20.3,35.1,20.4,34.9C20.4,34.9,20.4,34.9,20.4,34.9z"/>
						<path class="st2" d="M18.9,30.5l6.4-11.1c0,0,0.1,0,0.1,0c0,0,0,0.1,0,0.1l-6.1,11.3c-0.1,0.1-0.2,0.2-0.4,0.1
							C18.9,30.8,18.8,30.6,18.9,30.5C18.9,30.5,18.9,30.5,18.9,30.5z"/>
						<path class="st2" d="M17.3,26l5.5-9.7c0,0,0.1,0,0.1,0c0,0,0,0.1,0,0.1l-5.1,9.9c-0.1,0.1-0.2,0.2-0.4,0.1
							C17.3,26.3,17.2,26.1,17.3,26C17.3,26,17.3,26,17.3,26z"/>
						<path class="st2" d="M15.8,21.3l3.1-8.7c0,0,0,0,0.1,0c0,0,0,0,0,0.1l-2.7,8.9c0,0.2-0.2,0.2-0.4,0.2
							C15.9,21.6,15.8,21.4,15.8,21.3C15.8,21.3,15.8,21.3,15.8,21.3z"/>
						<path class="st2" d="M14.1,16.7l2.2-5.7c0,0,0,0,0.1,0c0,0,0,0,0,0.1l-1.7,5.8c0,0.2-0.2,0.2-0.4,0.2
							C14.1,17,14,16.9,14.1,16.7C14.1,16.7,14.1,16.7,14.1,16.7z"/>
						<path class="st2" d="M12.7,12.5l0.7-4.2c0,0,0-0.1,0.1,0c0,0,0.1,0,0,0.1l-0.3,4.3c0,0.2-0.1,0.3-0.3,0.3
							C12.8,12.8,12.7,12.7,12.7,12.5C12.7,12.5,12.7,12.5,12.7,12.5z"/>
						<path class="st2" d="M10.6,6.2c0,0,0.1,0.2,0.2,0.5c0.1,0.3,0.4,0.8,0.6,1.5c0.3,0.6,0.6,1.4,0.9,2.3c0.4,0.9,0.7,1.9,1.2,3
							c0.4,1.1,0.9,2.3,1.3,3.5c0.2,0.6,0.5,1.3,0.7,1.9c0.3,0.7,0.5,1.3,0.7,2c0.5,1.4,1,2.8,1.5,4.3c0.1,0.4,0.3,0.7,0.4,1.1
							c0.1,0.4,0.2,0.7,0.4,1.1c0.2,0.7,0.5,1.5,0.7,2.2c0.5,1.5,1,3,1.5,4.4c0.5,1.5,0.9,2.9,1.3,4.3c0.4,1.4,0.8,2.8,1.2,4
							c0.1,0.3,0.2,0.6,0.3,0.9c0.1,0.3,0.2,0.6,0.3,0.9c0.2,0.6,0.3,1.2,0.5,1.8c1.2,4.5,2.1,7.5,2.1,7.5c0.1,0.4-0.1,0.8-0.5,0.9
							c-0.4,0.1-0.8-0.1-0.9-0.5c0,0,0,0,0,0l0,0c0,0-0.8-3-1.9-7.6c-0.1-0.6-0.3-1.2-0.4-1.8c-0.1-0.3-0.2-0.6-0.2-0.9
							c-0.1-0.3-0.2-0.6-0.3-1c-0.4-1.3-0.7-2.6-1.1-4.1c-0.4-1.4-0.8-2.9-1.2-4.3c-0.4-1.5-0.9-3-1.3-4.4c-0.2-0.7-0.5-1.5-0.7-2.2
							c-0.1-0.4-0.2-0.7-0.3-1.1c-0.1-0.4-0.2-0.7-0.4-1.1c-0.5-1.5-0.9-2.9-1.4-4.3c-0.2-0.7-0.4-1.4-0.7-2
							c-0.2-0.7-0.5-1.3-0.7-1.9c-0.4-1.3-0.9-2.5-1.3-3.6c-0.4-1.1-0.8-2.1-1.1-3c-0.3-0.9-0.6-1.7-0.9-2.3
							c-0.2-0.6-0.4-1.1-0.6-1.5c-0.1-0.3-0.2-0.5-0.2-0.5c0-0.1,0-0.2,0.1-0.2C10.5,6.1,10.6,6.2,10.6,6.2z"/>
					</g>
				</g>
				<g>
					<path class="st2" d="M58.8,4.1c-23-4.7-38.1-2.7-38.1-2.7s0,0.1,0.1,0.4L23.9,4c0,0,29.9,18.5,67.8,50.9c0.2,0,0.3,0.1,0.5,0.1
						C84.4,42,98,12.1,58.8,4.1z"/>
					<path class="st2" d="M23.9,4l-3.2-2.1c0.4,2.5,3.2,17,13.3,35.9c16.6,30.9,43,13.9,57.7,17.1C53.8,22.4,23.9,4,23.9,4z"/>
					<g>
						<path class="st2" d="M51.4,52.4l31.6-4.5c0.3,0,0.6,0.2,0.6,0.5s-0.2,0.6-0.5,0.6c0,0,0,0,0,0l-31.7,3.7c-0.1,0-0.1,0-0.1-0.1
							C51.3,52.4,51.4,52.4,51.4,52.4z"/>
						<path class="st2" d="M44.6,47.2l32.6-4.6c0.3,0,0.6,0.2,0.6,0.5c0,0.3-0.2,0.6-0.5,0.6c0,0,0,0,0,0l-32.7,3.8
							c-0.1,0-0.1,0-0.1-0.1C44.5,47.3,44.6,47.2,44.6,47.2z"/>
						<path class="st2" d="M40.4,40.9l30-3.4c0.3,0,0.6,0.2,0.6,0.5c0,0.3-0.2,0.6-0.5,0.6c0,0,0,0,0,0l-30,2.6
							c-0.1,0-0.1,0-0.1-0.1C40.3,41,40.3,40.9,40.4,40.9z"/>
						<path class="st2" d="M35.7,34.7l28.1-3c0.3,0,0.6,0.2,0.6,0.5c0,0.3-0.2,0.6-0.5,0.6c0,0,0,0,0,0l-28.2,2.1
							c-0.1,0-0.1,0-0.1-0.1C35.6,34.7,35.6,34.7,35.7,34.7z"/>
						<path class="st2" d="M31.9,27.4l24.8-1.3c0.3,0,0.5,0.2,0.6,0.5c0,0.3-0.2,0.5-0.5,0.6c0,0,0,0,0,0L32,27.6
							c-0.1,0-0.1,0-0.1-0.1C31.8,27.5,31.9,27.4,31.9,27.4z"/>
						<path class="st2" d="M28.9,21.2l20.7-0.4c0.3,0,0.5,0.2,0.5,0.5c0,0.3-0.2,0.5-0.5,0.5c0,0,0,0,0,0l-20.7-0.5
							c-0.1,0-0.1-0.1-0.1-0.1C28.8,21.3,28.8,21.2,28.9,21.2z"/>
						<path class="st2" d="M25.8,14.3l15.3,1c0.3,0,0.5,0.3,0.5,0.6c0,0.3-0.3,0.5-0.6,0.5c0,0,0,0,0,0l-15.2-1.8
							c-0.1,0-0.1-0.1-0.1-0.1C25.7,14.3,25.7,14.3,25.8,14.3z"/>
						<path class="st2" d="M25,9.2l10.1,1.5c0.3,0,0.5,0.3,0.5,0.6c0,0.3-0.3,0.5-0.6,0.5c0,0,0,0,0,0L25,9.4
							c-0.1,0-0.1-0.1-0.1-0.1C24.9,9.2,24.9,9.2,25,9.2z"/>
						<path class="st2" d="M82.3,47.9l1.5-22.5c0-0.1,0.1-0.1,0.1-0.1c0.1,0,0.1,0.1,0.1,0.1l-0.6,22.5c0,0.3-0.3,0.5-0.5,0.5
							C82.5,48.4,82.3,48.2,82.3,47.9C82.3,47.9,82.3,47.9,82.3,47.9z"/>
						<path class="st2" d="M75.9,42.4L77,17.3c0-0.1,0.1-0.1,0.1-0.1c0.1,0,0.1,0.1,0.1,0.1l-0.2,25.1c0,0.3-0.2,0.5-0.5,0.5
							C76.1,43,75.9,42.8,75.9,42.4C75.9,42.5,75.9,42.5,75.9,42.4z"/>
						<path class="st2" d="M69.6,36.9L69.3,11c0-0.1,0-0.1,0.1-0.1c0.1,0,0.1,0,0.1,0.1l1.2,25.9c0,0.3-0.2,0.5-0.5,0.6
							C69.8,37.4,69.6,37.2,69.6,36.9C69.6,36.9,69.6,36.9,69.6,36.9z"/>
						<path class="st2" d="M62.5,31.8l-2-23.9c0-0.1,0-0.1,0.1-0.1c0.1,0,0.1,0,0.1,0.1l2.8,23.8c0,0.3-0.2,0.6-0.5,0.6
							C62.8,32.3,62.6,32.1,62.5,31.8C62.5,31.8,62.5,31.8,62.5,31.8z"/>
						<path class="st2" d="M55.3,26.6l-2-20.7c0-0.1,0-0.1,0.1-0.1c0.1,0,0.1,0,0.1,0.1l2.8,20.6c0,0.3-0.2,0.6-0.5,0.6
							C55.6,27.1,55.4,26.9,55.3,26.6C55.3,26.6,55.3,26.6,55.3,26.6z"/>
						<path class="st2" d="M48.1,21L43.6,4.4c0-0.1,0-0.1,0.1-0.1c0.1,0,0.1,0,0.1,0.1l5.3,16.4c0.1,0.3-0.1,0.6-0.3,0.7
							C48.5,21.5,48.2,21.3,48.1,21C48.1,21,48.1,21,48.1,21z"/>
						<path class="st2" d="M40.5,15.9l-2.7-11c0-0.1,0-0.1,0.1-0.1c0.1,0,0.1,0,0.1,0.1l3.6,10.8c0.1,0.3-0.1,0.6-0.3,0.7
							C40.9,16.4,40.6,16.3,40.5,15.9C40.5,16,40.5,16,40.5,15.9z"/>
						<path class="st2" d="M33.9,11l-3.4-7.2c0-0.1,0-0.1,0.1-0.1c0.1,0,0.1,0,0.1,0l4.2,6.8c0.2,0.3,0.1,0.6-0.2,0.7
							C34.4,11.4,34.1,11.3,33.9,11C33.9,11,33.9,11,33.9,11z"/>
						<path class="st2" d="M24.1,3.7c0,0,0.3,0.2,0.9,0.5c0.6,0.3,1.4,0.9,2.5,1.6c1.1,0.7,2.4,1.5,3.8,2.5c1.5,1,3.1,2.1,5,3.3
							c1.8,1.2,3.7,2.5,5.8,3.9c1,0.7,2.1,1.4,3.2,2.2c1.1,0.7,2.2,1.5,3.3,2.3c2.2,1.6,4.5,3.2,6.8,4.9c0.6,0.4,1.2,0.8,1.7,1.3
							c0.6,0.4,1.2,0.9,1.7,1.3c1.2,0.9,2.3,1.7,3.5,2.6c2.3,1.7,4.6,3.5,6.9,5.2c2.3,1.7,4.5,3.5,6.6,5.2c2.1,1.7,4.2,3.3,6.2,4.8
							c0.5,0.4,1,0.8,1.4,1.1c0.5,0.4,0.9,0.8,1.4,1.1c0.9,0.7,1.8,1.5,2.6,2.2c6.7,5.6,11.2,9.3,11.2,9.3c0.6,0.5,0.7,1.4,0.2,2
							c-0.5,0.6-1.4,0.7-2,0.2c0,0,0,0,0,0l0,0c0,0-4.4-3.8-10.9-9.5c-0.8-0.7-1.7-1.5-2.6-2.2c-0.4-0.4-0.9-0.8-1.3-1.2
							c-0.5-0.4-0.9-0.8-1.4-1.2c-1.9-1.6-3.9-3.2-6-5c-2.1-1.7-4.2-3.5-6.5-5.3c-2.2-1.8-4.5-3.5-6.8-5.3c-1.1-0.9-2.3-1.8-3.4-2.7
							c-0.6-0.4-1.1-0.9-1.7-1.3c-0.6-0.4-1.1-0.9-1.7-1.3c-2.3-1.7-4.5-3.4-6.7-5c-1.1-0.8-2.1-1.6-3.2-2.4
							c-1.1-0.8-2.1-1.5-3.1-2.2c-2-1.4-3.9-2.8-5.7-4.1C34,11.1,32.3,10,30.9,9c-1.4-1-2.7-1.9-3.8-2.6c-1.1-0.7-1.9-1.3-2.4-1.6
							c-0.6-0.4-0.9-0.6-0.9-0.6c-0.1-0.1-0.2-0.3-0.1-0.4C23.8,3.7,24,3.6,24.1,3.7z"/>
					</g>
				</g>
				<g>
					<path class="st2" d="M60.5,84.4C77.1,64.2,83,48.2,83,48.2s-0.1,0-0.4-0.1l-3.7,2c0,0-33.6,19.9-84.9,40.5
						c-0.1,0.1-0.2,0.3-0.3,0.4C10.3,90,32.3,119,60.5,84.4z"/>
					<path class="st2" d="M78.9,50.1l3.7-2c-2.6-0.9-18.3-5.7-42-5.5C1.8,42.9,4.7,77.8-6.1,90.6C45.3,70,78.9,50.1,78.9,50.1z"/>
					<g>
						<path class="st2" d="M17.3,52l-12,33.6c-0.1,0.3-0.5,0.5-0.8,0.4c-0.3-0.1-0.5-0.5-0.4-0.8c0,0,0,0,0,0l12.9-33.2
							c0-0.1,0.1-0.1,0.2-0.1C17.3,51.9,17.4,52,17.3,52z"/>
						<path class="st2" d="M25.9,48L13.5,82.5c-0.1,0.3-0.5,0.5-0.8,0.4c-0.3-0.1-0.5-0.5-0.4-0.8c0,0,0,0,0,0l13.3-34.2
							c0-0.1,0.1-0.1,0.2-0.1C25.9,47.9,25.9,47.9,25.9,48z"/>
						<path class="st2" d="M34.3,47.1L22,78.4c-0.1,0.3-0.5,0.5-0.8,0.3c-0.3-0.1-0.5-0.5-0.3-0.8c0,0,0,0,0,0L34,47
							c0-0.1,0.1-0.1,0.2-0.1C34.2,46.9,34.3,47,34.3,47.1z"/>
						<path class="st2" d="M42.8,45.7L31.1,75c-0.1,0.3-0.5,0.5-0.8,0.3c-0.3-0.1-0.5-0.5-0.3-0.8c0,0,0,0,0,0l12.5-28.9
							c0-0.1,0.1-0.1,0.2-0.1C42.8,45.6,42.8,45.6,42.8,45.7z"/>
						<path class="st2" d="M51.8,45.8L40.2,70.9c-0.1,0.3-0.5,0.4-0.8,0.3c-0.3-0.1-0.4-0.5-0.3-0.8c0,0,0,0,0,0l12.4-24.7
							c0-0.1,0.1-0.1,0.2-0.1C51.8,45.6,51.8,45.7,51.8,45.8z"/>
						<path class="st2" d="M59.5,46L49.1,66.6c-0.1,0.3-0.5,0.4-0.8,0.3C48,66.7,47.9,66.3,48,66c0,0,0,0,0,0l11.2-20.2
							c0-0.1,0.1-0.1,0.2,0C59.5,45.8,59.5,45.9,59.5,46z"/>
						<path class="st2" d="M67.8,46.6l-8.9,14.5c-0.2,0.3-0.5,0.4-0.8,0.2c-0.3-0.2-0.4-0.5-0.2-0.8c0,0,0,0,0,0l9.7-14
							c0-0.1,0.1-0.1,0.2,0C67.9,46.4,67.9,46.5,67.8,46.6z"/>
						<path class="st2" d="M73.2,48.4l-6.7,9.2c-0.2,0.3-0.6,0.3-0.8,0.1c-0.3-0.2-0.3-0.6-0.1-0.8c0,0,0,0,0,0l7.4-8.6
							c0-0.1,0.1-0.1,0.2,0C73.2,48.3,73.2,48.3,73.2,48.4z"/>
						<path class="st2" d="M5.7,84.8L26.8,98c0.1,0,0.1,0.1,0,0.2c0,0.1-0.1,0.1-0.2,0L5.1,85.9c-0.3-0.2-0.4-0.5-0.2-0.8
							C5,84.8,5.4,84.7,5.7,84.8C5.7,84.8,5.7,84.8,5.7,84.8z"/>
						<path class="st2" d="M14.3,81.3l23.9,14.1c0.1,0,0.1,0.1,0,0.2c0,0.1-0.1,0.1-0.2,0L13.7,82.4c-0.3-0.2-0.4-0.5-0.2-0.8
							C13.6,81.3,14,81.2,14.3,81.3C14.3,81.3,14.3,81.3,14.3,81.3z"/>
						<path class="st2" d="M23,78l25.5,13.2c0.1,0,0.1,0.1,0.1,0.2c0,0.1-0.1,0.1-0.2,0.1L22.5,79.1c-0.3-0.1-0.4-0.5-0.3-0.8
							C22.3,78,22.7,77.8,23,78C23,78,23,78,23,78z"/>
						<path class="st2" d="M31.6,73.7L56,84.1c0.1,0,0.1,0.1,0.1,0.2c0,0.1-0.1,0.1-0.2,0.1l-24.7-9.6c-0.3-0.1-0.5-0.5-0.3-0.8
							C31,73.7,31.3,73.5,31.6,73.7C31.6,73.7,31.6,73.7,31.6,73.7z"/>
						<path class="st2" d="M40.5,69.3l21.2,8.8c0.1,0,0.1,0.1,0.1,0.2c0,0.1-0.1,0.1-0.2,0.1l-21.6-7.9c-0.3-0.1-0.5-0.5-0.4-0.8
							C39.8,69.3,40.2,69.2,40.5,69.3C40.5,69.3,40.5,69.3,40.5,69.3z"/>
						<path class="st2" d="M49.7,65l18.6,4.2c0.1,0,0.1,0.1,0.1,0.1c0,0.1-0.1,0.1-0.1,0.1l-18.8-3.3c-0.3-0.1-0.5-0.4-0.5-0.7
							C49,65.2,49.3,65,49.7,65C49.7,65,49.7,65,49.7,65z"/>
						<path class="st2" d="M58.6,60.2l12.2,3c0.1,0,0.1,0.1,0.1,0.2c0,0.1-0.1,0.1-0.1,0.1l-12.4-2.1c-0.3-0.1-0.5-0.4-0.5-0.7
							S58.2,60.1,58.6,60.2C58.5,60.2,58.5,60.2,58.6,60.2z"/>
						<path class="st2" d="M66.8,56.2l8.8,0.4c0.1,0,0.1,0.1,0.1,0.1c0,0.1-0.1,0.1-0.1,0.1l-8.8,0.5c-0.3,0-0.6-0.2-0.6-0.6
							C66.2,56.5,66.5,56.3,66.8,56.2C66.8,56.2,66.8,56.2,66.8,56.2z"/>
						<path class="st2" d="M79,50.3c0,0-0.3,0.2-1,0.6c-0.6,0.4-1.6,0.9-2.8,1.6c-1.2,0.7-2.7,1.6-4.4,2.5c-1.7,1-3.6,2-5.8,3.2
							c-2.1,1.2-4.4,2.4-6.9,3.7c-1.2,0.6-2.5,1.3-3.8,2c-1.3,0.7-2.6,1.3-4,2c-2.7,1.4-5.5,2.8-8.3,4.2c-0.7,0.4-1.4,0.7-2.1,1.1
							c-0.7,0.3-1.4,0.7-2.2,1c-1.4,0.7-2.9,1.4-4.3,2.1c-2.9,1.4-5.8,2.8-8.7,4.2c-2.9,1.3-5.7,2.6-8.5,3.8
							c-2.8,1.2-5.4,2.4-7.9,3.6c-0.6,0.3-1.3,0.6-1.9,0.8C6,87,5.4,87.3,4.8,87.5c-1.2,0.5-2.4,1-3.5,1.5
							c-8.9,3.7-14.8,6.2-14.8,6.2c-0.8,0.3-1.7,0-2.1-0.9c-0.3-0.8,0-1.7,0.9-2.1c0,0,0,0,0,0l0,0c0,0,6-2.3,14.9-5.8
							c1.1-0.4,2.3-0.9,3.5-1.4c0.6-0.2,1.2-0.5,1.8-0.7c0.6-0.3,1.2-0.5,1.9-0.8c2.5-1.1,5.2-2.2,8-3.4c2.8-1.2,5.6-2.4,8.5-3.6
							c2.9-1.3,5.8-2.6,8.7-3.9c1.5-0.7,2.9-1.3,4.4-2c0.7-0.3,1.5-0.7,2.2-1c0.7-0.3,1.4-0.7,2.1-1c2.9-1.4,5.7-2.7,8.4-4
							c1.4-0.7,2.7-1.3,4-1.9c1.3-0.6,2.6-1.3,3.8-1.9c2.5-1.2,4.8-2.4,6.9-3.5c2.1-1.1,4.1-2.1,5.8-3.1c1.7-0.9,3.2-1.7,4.5-2.4
							c1.2-0.7,2.2-1.2,2.9-1.6c0.7-0.4,1-0.6,1-0.6c0.2-0.1,0.4,0,0.4,0.1C79.2,50.1,79.2,50.3,79,50.3z"/>
					</g>
				</g>
			</g>
		</g>
	</g>
</g>
<g id="Layer_3">
	<g>
		<path class="st4" d="M43,21c0.6-0.3,0.2-1.2-0.5-1c-5.7,1.3-16.9,5.2-25.7,17.5c-5.6,7.8-8.3,21.1-3.5,33.7
			c14.4,37.8,45,16.1,45,16.1s9.2-4.9,15.2-18.5c5.3-12,7.4-37.3-1.7-49.5C51.5-7.9,22.5,15.3,23,34.9c0.2,8.3,4.3,13.1,8.6,15.2
			c7.2,3.6,20.8-0.4,17.7-13.5c0,0-3-1.3-2.4,1.2s2.3,7.8-4.2,10.6c-6.5,2.9-16.9-1-16.1-16c0.5-9.3,6-16.1,14.1-18.1
			S68.3,24,65.1,50.5c-3.3,26.6-10,33-13.3,36.2C48.4,90,25.6,81,22.3,57.3C19.7,38.4,31,27.3,43,21z"/>
		<path class="st4" d="M48.9,89.7l-1.5-1.3C59.6,74.8,60,51.9,60,47.4C59.9,35,56.9,26,51,20.6c-6.3-5.8-13.9-5.3-14-5.2l-0.2-2
			c0.3,0,8.5-0.7,15.5,5.7c6.4,5.8,9.6,15.3,9.7,28.3C62,52,61.6,75.6,48.9,89.7z"/>
	</g>
</g>
<g id="Layer_2" class="st5">
	<g class="st6">
		<path class="st4" d="M76.5,47.5c0,0.7,0,1.5,0,2.2c0,0.7,0,1.4-0.1,2.1c-0.1,0.6-0.1,1.6-0.2,3c-0.1,1.4-0.2,3.1-0.3,4.9
			c-0.1,1.9-0.3,3.8-0.5,5.9c-0.2,2.1-0.4,3.9-0.6,5.7c-0.2,1.7-0.5,3.2-0.7,4.5c-0.3,1.3-0.5,2-0.8,2.3c-1.5,1.7-3.4,3-5.5,3.8
			c-2.1,0.8-4.4,1.4-6.7,1.7c-2.3,0.3-4.6,0.4-6.9,0.3c-2.3-0.1-4.5-0.1-6.5-0.1c-0.7,0-1.8,0-3.4,0c-1.6,0-3.4-0.1-5.4-0.1
			c-2-0.1-4.1-0.2-6.4-0.3c-2.2-0.1-4.3-0.3-6.2-0.6c-1.9-0.3-3.6-0.6-5-0.9c-1.4-0.4-2.3-0.8-2.7-1.4c-0.4-0.6-0.8-1.3-1.1-2.1
			c-0.3-0.7-0.6-1.5-0.8-2.1c-0.7-1.9-1.3-3.9-1.8-6c-0.6-2.1-1-4.3-1.4-6.6c-0.4-2.3-0.7-4.5-0.9-6.7c-0.2-2.2-0.3-4.3-0.3-6.3
			c0-1.1,0.1-2.5,0.2-4.2c0.2-1.7,0.4-3.6,0.6-5.6c0.3-2,0.6-4.1,0.9-6.2c0.4-2.1,0.8-4.1,1.2-5.9c0.4-1.8,0.9-3.4,1.4-4.7
			c0.5-1.3,1.1-2.2,1.7-2.7c0.5-0.4,1.5-0.8,2.8-1.1c1.4-0.3,3-0.6,4.9-0.9c1.8-0.3,3.8-0.5,5.9-0.7c2.1-0.2,4.1-0.4,6-0.5
			c1.9-0.1,3.6-0.2,5.2-0.3c1.5-0.1,2.7-0.1,3.4-0.1c1,0,2.3,0.1,4,0.2c1.7,0.1,3.5,0.3,5.4,0.6c2,0.3,3.9,0.6,5.9,0.9
			c2,0.4,3.9,0.8,5.6,1.3c1.7,0.5,3.2,1.1,4.4,1.7c1.2,0.6,2,1.3,2.3,2.1c0.3,0.6,0.5,1.5,0.7,2.7c0.2,1.2,0.4,2.5,0.6,4
			c0.2,1.5,0.3,3.1,0.4,4.7c0.1,1.7,0.2,3.2,0.3,4.7c0.1,1.5,0.1,2.9,0.2,4.1C76.5,45.8,76.5,46.8,76.5,47.5z M62.7,50.3
			c0-1.1-0.1-2.4-0.2-3.6c-0.1-1.3-0.4-2.4-1-3.4c-0.4-0.7-1.4-1.2-3-1.6c-1.6-0.4-3.3-0.7-5.2-0.9c-1.9-0.2-3.7-0.3-5.4-0.3
			c-1.7,0-3,0-3.7,0c-0.6,0-1.6,0.1-3,0.2c-1.4,0.1-2.9,0.3-4.5,0.6c-1.6,0.3-3,0.6-4.4,0.9c-1.3,0.4-2.2,0.8-2.5,1.3
			c-0.3,0.4-0.6,1.2-0.7,2.3c-0.2,1.1-0.3,2.3-0.5,3.6c-0.1,1.3-0.2,2.5-0.3,3.7c-0.1,1.2-0.1,2-0.1,2.5c0,0.5,0,1.1,0,2.1
			c0,0.9,0.1,1.9,0.2,2.8c0.1,1,0.2,1.9,0.3,2.7c0.1,0.9,0.3,1.5,0.6,1.9c0.2,0.3,0.6,0.5,1.4,0.8c0.8,0.2,1.7,0.4,2.8,0.6
			c1.1,0.2,2.3,0.4,3.5,0.5c1.2,0.1,2.4,0.2,3.6,0.3c1.2,0.1,2.2,0.1,3.1,0.2c0.9,0,1.5,0,1.9,0c0.6,0,1.7-0.1,3.2-0.2
			c1.5-0.1,3.1-0.3,4.8-0.6c1.7-0.3,3.2-0.6,4.6-0.9c1.4-0.4,2.3-0.8,2.7-1.3c0.3-0.4,0.6-1.2,0.8-2.5c0.2-1.3,0.4-2.7,0.5-4.2
			c0.1-1.5,0.2-3,0.2-4.4C62.7,52,62.7,51,62.7,50.3z"/>
	</g>
</g>
</svg>
