<?xml version="1.0" encoding="utf-8"?>
<!-- Generator: Adobe Illustrator 27.4.1, SVG Export Plug-In . SVG Version: 6.00 Build 0)  -->
<svg version="1.1" id="Layer_1" xmlns="http://www.w3.org/2000/svg" xmlns:xlink="http://www.w3.org/1999/xlink" x="0px" y="0px"
	 viewBox="0 0 88.8 98.3" style="enable-background:new 0 0 88.8 98.3;" xml:space="preserve">
<style type="text/css">
	.st0{fill:#EC8423;stroke:#FFFFFF;stroke-miterlimit:10;}
	.st1{fill:none;stroke:#999999;stroke-miterlimit:10;}
	.st2{fill:none;stroke:#995720;stroke-width:0.5;stroke-miterlimit:10;}
	.st3{clip-path:url(#SVGID_00000030459052476588494800000012112510882613604016_);}
	.st4{fill:#EC8423;}
	.st5{fill:#FFFFFF;}
</style>
<rect x="6" y="6.7" class="st0" width="77.2" height="87.1"/>
<rect x="3.5" y="3.8" class="st1" width="82.3" height="92.8"/>
<g>
	<g>
		<path class="st2" d="M71.4,86.8c7.1-4.1,10.6-8.1,10.6-8.1s0,0-0.1-0.1l-1.3,0.2c0,0-12,2.1-29.4,2.5c0,0-0.1,0.1-0.1,0.1
			C56,82.9,59.3,93.8,71.4,86.8z"/>
		<path class="st2" d="M80.6,78.8l1.3-0.2c-0.7-0.5-4.7-3.7-11.7-6.2c-11.4-4.2-14.4,6.3-19,8.9C68.5,80.9,80.6,78.8,80.6,78.8z"/>
		<g>
			<path class="st2" d="M62.3,72.5L55,81c-0.1,0.1-0.2,0.1-0.3,0c-0.1-0.1-0.1-0.2,0-0.3c0,0,0,0,0,0L62.3,72.5
				C62.2,72.5,62.2,72.5,62.3,72.5C62.3,72.5,62.3,72.5,62.3,72.5z"/>
			<path class="st2" d="M65.2,72.3L57.8,81c-0.1,0.1-0.2,0.1-0.3,0c-0.1-0.1-0.1-0.2,0-0.3c0,0,0,0,0,0L65.2,72.3
				C65.2,72.2,65.2,72.2,65.2,72.3C65.2,72.3,65.2,72.3,65.2,72.3z"/>
			<path class="st2" d="M67.8,73l-7,7.8c-0.1,0.1-0.2,0.1-0.3,0c-0.1-0.1-0.1-0.2,0-0.3c0,0,0,0,0,0L67.8,73
				C67.7,72.9,67.8,72.9,67.8,73C67.8,72.9,67.8,72.9,67.8,73z"/>
			<path class="st2" d="M70.4,73.5l-6.6,7.3c-0.1,0.1-0.2,0.1-0.3,0c-0.1-0.1-0.1-0.2,0-0.3c0,0,0,0,0,0L70.4,73.5
				C70.4,73.4,70.4,73.4,70.4,73.5C70.4,73.5,70.4,73.5,70.4,73.5z"/>
			<path class="st2" d="M73.1,74.5l-6.2,6.1c-0.1,0.1-0.2,0.1-0.3,0c-0.1-0.1-0.1-0.2,0-0.3c0,0,0,0,0,0L73.1,74.5
				C73,74.4,73.1,74.4,73.1,74.5C73.1,74.5,73.1,74.5,73.1,74.5z"/>
			<path class="st2" d="M75.3,75.4L70,80.3c-0.1,0.1-0.2,0.1-0.3,0s-0.1-0.2,0-0.3c0,0,0,0,0,0L75.3,75.4
				C75.3,75.3,75.3,75.3,75.3,75.4C75.3,75.4,75.3,75.4,75.3,75.4z"/>
			<path class="st2" d="M77.7,76.5l-4.2,3.3c-0.1,0.1-0.2,0-0.3,0c-0.1-0.1,0-0.2,0-0.3c0,0,0,0,0,0L77.7,76.5
				C77.7,76.4,77.7,76.4,77.7,76.5C77.7,76.5,77.7,76.5,77.7,76.5z"/>
			<path class="st2" d="M79.1,77.6l-3,2c-0.1,0.1-0.2,0-0.3-0.1c-0.1-0.1,0-0.2,0.1-0.3c0,0,0,0,0,0L79.1,77.6
				C79.1,77.6,79.1,77.6,79.1,77.6C79.1,77.6,79.1,77.6,79.1,77.6z"/>
			<path class="st2" d="M55.2,80.9L60,87c0,0,0,0,0,0.1c0,0,0,0-0.1,0l-5-6c-0.1-0.1-0.1-0.2,0-0.3C55,80.8,55.2,80.8,55.2,80.9
				C55.2,80.8,55.2,80.8,55.2,80.9z"/>
			<path class="st2" d="M58.2,80.8l5.5,6.8c0,0,0,0,0,0.1c0,0,0,0-0.1,0L57.9,81c-0.1-0.1-0.1-0.2,0-0.3
				C58,80.7,58.1,80.7,58.2,80.8C58.1,80.8,58.2,80.8,58.2,80.8z"/>
			<path class="st2" d="M61.1,80.8l6,6.7c0,0,0,0,0,0.1c0,0,0,0-0.1,0L60.8,81c-0.1-0.1-0.1-0.2,0-0.3C60.9,80.7,61,80.7,61.1,80.8
				C61.1,80.8,61.1,80.8,61.1,80.8z"/>
			<path class="st2" d="M64.1,80.5l6,5.7c0,0,0,0,0,0.1c0,0,0,0-0.1,0l-6.2-5.5c-0.1-0.1-0.1-0.2,0-0.3C63.9,80.4,64,80.4,64.1,80.5
				C64.1,80.5,64.1,80.5,64.1,80.5z"/>
			<path class="st2" d="M67.2,80.1l5.3,4.9c0,0,0,0,0,0.1c0,0,0,0-0.1,0l-5.5-4.7c-0.1-0.1-0.1-0.2,0-0.3
				C67,80.1,67.1,80.1,67.2,80.1C67.2,80.1,67.2,80.1,67.2,80.1z"/>
			<path class="st2" d="M70.3,79.9l5,3.3c0,0,0,0,0,0.1c0,0,0,0-0.1,0l-5.2-3c-0.1-0.1-0.1-0.2-0.1-0.3
				C70.1,79.9,70.2,79.9,70.3,79.9C70.3,79.9,70.3,79.9,70.3,79.9z"/>
			<path class="st2" d="M73.5,79.5l3.3,2.2c0,0,0,0,0,0.1c0,0,0,0-0.1,0l-3.4-2c-0.1-0.1-0.1-0.2-0.1-0.3
				C73.3,79.5,73.4,79.4,73.5,79.5C73.5,79.5,73.5,79.5,73.5,79.5z"/>
			<path class="st2" d="M76.3,79.2l2.6,1.1c0,0,0,0,0,0.1c0,0,0,0,0,0l-2.7-0.8c-0.1,0-0.2-0.1-0.1-0.2
				C76.1,79.3,76.2,79.2,76.3,79.2C76.3,79.2,76.3,79.2,76.3,79.2z"/>
			<path class="st2" d="M80.6,78.9c0,0-0.1,0-0.4,0.1c-0.2,0-0.6,0.1-1,0.2c-0.4,0.1-1,0.2-1.6,0.2c-0.6,0.1-1.3,0.2-2,0.3
				c-0.7,0.1-1.6,0.2-2.4,0.3c-0.4,0.1-0.9,0.1-1.3,0.2c-0.5,0.1-0.9,0.1-1.4,0.2c-0.9,0.1-1.9,0.2-2.9,0.3c-0.2,0-0.5,0.1-0.7,0.1
				c-0.2,0-0.5,0-0.7,0.1c-0.5,0-1,0.1-1.5,0.1c-1,0.1-2,0.2-3,0.3c-1,0.1-2,0.1-2.9,0.2c-0.9,0.1-1.9,0.1-2.7,0.2
				c-0.2,0-0.4,0-0.6,0c-0.2,0-0.4,0-0.6,0c-0.4,0-0.8,0-1.2,0c-3,0.1-5,0.2-5,0.2c-0.3,0-0.5-0.2-0.5-0.5c0-0.3,0.2-0.5,0.5-0.5
				c0,0,0,0,0,0l0,0c0,0,2,0,5-0.1c0.4,0,0.8,0,1.2,0c0.2,0,0.4,0,0.6,0c0.2,0,0.4,0,0.6,0c0.9,0,1.8-0.1,2.7-0.1
				c0.9,0,1.9-0.1,2.9-0.1c1-0.1,2-0.1,3-0.2c0.5,0,1-0.1,1.5-0.1c0.3,0,0.5,0,0.7,0c0.2,0,0.5,0,0.7-0.1c1-0.1,2-0.2,2.9-0.2
				c0.5,0,0.9-0.1,1.4-0.1c0.5,0,0.9-0.1,1.3-0.1c0.9-0.1,1.7-0.2,2.4-0.3c0.7-0.1,1.4-0.2,2-0.3c0.6-0.1,1.1-0.2,1.6-0.2
				c0.4-0.1,0.8-0.1,1-0.1c0.2,0,0.4-0.1,0.4-0.1c0.1,0,0.1,0,0.1,0.1C80.7,78.8,80.6,78.8,80.6,78.9z"/>
		</g>
	</g>
	<g>
		<defs>
			<rect id="SVGID_1_" x="6.9" y="7.7" width="75.7" height="85.5"/>
		</defs>
		<clipPath id="SVGID_00000114050616302949491460000011750476027296382901_">
			<use xlink:href="#SVGID_1_"  style="overflow:visible;"/>
		</clipPath>
		<g style="clip-path:url(#SVGID_00000114050616302949491460000011750476027296382901_);">
			<g>
				<path class="st2" d="M26.1,17.8C17.4,8.6,10.2,4.8,10.2,4.8s0,0.1-0.1,0.2l0.7,1.9c0,0,7.5,17.3,14.2,43.2
					c0.1,0.1,0.1,0.1,0.2,0.2C25.8,42.2,40.9,33.4,26.1,17.8z"/>
				<path class="st2" d="M10.8,6.9L10.1,5c-0.6,1.2-3.8,8.4-5.1,19.8C2.8,43.5,19.6,44.2,25,50.1C18.3,24.2,10.8,6.9,10.8,6.9z"/>
				<g>
					<path class="st2" d="M8.1,36.6l15.3,7.8c0.1,0.1,0.2,0.2,0.1,0.4s-0.2,0.2-0.4,0.1c0,0,0,0,0,0L8,36.7C8,36.7,8,36.6,8.1,36.6
						C8,36.6,8,36.6,8.1,36.6z"/>
					<path class="st2" d="M6.7,32.2l15.7,8c0.1,0.1,0.2,0.2,0.1,0.4c-0.1,0.1-0.2,0.2-0.4,0.1c0,0,0,0,0,0L6.6,32.3
						C6.6,32.3,6.6,32.3,6.7,32.2C6.6,32.2,6.6,32.2,6.7,32.2z"/>
					<path class="st2" d="M6.7,28.2L21,35.9c0.1,0.1,0.2,0.3,0.1,0.4c-0.1,0.1-0.2,0.2-0.4,0.1c0,0,0,0,0,0l-14-8.1
						C6.6,28.2,6.6,28.2,6.7,28.2C6.7,28.2,6.7,28.1,6.7,28.2z"/>
					<path class="st2" d="M6.6,24l13.3,7.4c0.1,0.1,0.2,0.3,0.1,0.4c-0.1,0.1-0.3,0.2-0.4,0.1c0,0,0,0,0,0l-13-7.8
						C6.5,24.1,6.5,24,6.6,24C6.5,24,6.6,24,6.6,24z"/>
					<path class="st2" d="M7.2,19.6l11.3,7.1c0.1,0.1,0.2,0.3,0.1,0.4c-0.1,0.1-0.3,0.2-0.4,0.1c0,0,0,0,0,0L7.1,19.7
						C7.1,19.7,7.1,19.7,7.2,19.6C7.1,19.6,7.1,19.6,7.2,19.6z"/>
					<path class="st2" d="M7.7,16l9.2,6.2c0.1,0.1,0.2,0.3,0.1,0.4c-0.1,0.1-0.3,0.2-0.4,0.1c0,0,0,0,0,0L7.7,16
						C7.6,16.1,7.6,16,7.7,16C7.6,16,7.7,16,7.7,16z"/>
					<path class="st2" d="M8.5,12l6.4,5.1c0.1,0.1,0.1,0.3,0,0.4c-0.1,0.1-0.3,0.1-0.4,0c0,0,0,0,0,0L8.5,12C8.4,12.1,8.4,12,8.5,12
						C8.4,12,8.5,12,8.5,12z"/>
					<path class="st2" d="M9.7,9.5l4,3.8c0.1,0.1,0.1,0.3,0,0.4c-0.1,0.1-0.3,0.1-0.4,0c0,0,0,0,0,0L9.7,9.5
						C9.6,9.6,9.6,9.6,9.7,9.5C9.6,9.5,9.7,9.5,9.7,9.5z"/>
					<path class="st2" d="M23,44.1l7.5-9.4c0,0,0.1,0,0.1,0c0,0,0,0.1,0,0.1l-7.2,9.7c-0.1,0.1-0.3,0.2-0.4,0.1
						C22.9,44.5,22.9,44.3,23,44.1C23,44.1,23,44.1,23,44.1z"/>
					<path class="st2" d="M21.9,39.8L30,29.1c0,0,0.1,0,0.1,0c0,0,0,0.1,0,0.1l-7.8,10.9c-0.1,0.1-0.3,0.2-0.4,0.1
						C21.8,40.1,21.8,39.9,21.9,39.8C21.9,39.8,21.9,39.8,21.9,39.8z"/>
					<path class="st2" d="M20.8,35.4L28.6,24c0,0,0.1,0,0.1,0c0,0,0,0.1,0,0.1l-7.4,11.7c-0.1,0.1-0.3,0.2-0.4,0.1
						C20.7,35.7,20.7,35.6,20.8,35.4C20.8,35.4,20.8,35.4,20.8,35.4z"/>
					<path class="st2" d="M19.3,31l6.4-11.1c0,0,0.1,0,0.1,0c0,0,0,0.1,0,0.1l-6.1,11.3c-0.1,0.1-0.2,0.2-0.4,0.1
						C19.2,31.3,19.2,31.2,19.3,31C19.3,31,19.3,31,19.3,31z"/>
					<path class="st2" d="M17.7,26.5l5.5-9.7c0,0,0.1,0,0.1,0c0,0,0,0.1,0,0.1l-5.1,9.9c-0.1,0.1-0.2,0.2-0.4,0.1
						C17.7,26.8,17.6,26.6,17.7,26.5C17.7,26.5,17.7,26.5,17.7,26.5z"/>
					<path class="st2" d="M16.2,21.8l3.1-8.7c0,0,0,0,0.1,0c0,0,0,0,0,0.1L16.8,22c0,0.2-0.2,0.2-0.4,0.2
						C16.2,22.2,16.2,22,16.2,21.8C16.2,21.8,16.2,21.8,16.2,21.8z"/>
					<path class="st2" d="M14.4,17.3l2.2-5.7c0,0,0,0,0.1,0c0,0,0,0,0,0.1L15,17.5c0,0.2-0.2,0.2-0.4,0.2
						C14.5,17.6,14.4,17.4,14.4,17.3C14.4,17.3,14.4,17.3,14.4,17.3z"/>
					<path class="st2" d="M13.1,13.1l0.7-4.2c0,0,0-0.1,0.1,0c0,0,0.1,0,0,0.1l-0.3,4.3c0,0.2-0.1,0.3-0.3,0.3
						C13.2,13.4,13,13.2,13.1,13.1C13.1,13.1,13.1,13.1,13.1,13.1z"/>
					<path class="st2" d="M11,6.9c0,0,0.1,0.2,0.2,0.5c0.1,0.3,0.4,0.8,0.6,1.5c0.3,0.6,0.6,1.4,0.9,2.3c0.4,0.9,0.7,1.9,1.2,3
						c0.4,1.1,0.9,2.3,1.3,3.5c0.2,0.6,0.5,1.3,0.7,1.9c0.3,0.7,0.5,1.3,0.7,2c0.5,1.4,1,2.8,1.5,4.2c0.1,0.4,0.3,0.7,0.4,1.1
						c0.1,0.4,0.2,0.7,0.4,1.1c0.2,0.7,0.5,1.5,0.7,2.2c0.5,1.5,1,3,1.5,4.4c0.5,1.5,0.9,2.9,1.3,4.3c0.4,1.4,0.8,2.7,1.2,4
						c0.1,0.3,0.2,0.6,0.3,0.9c0.1,0.3,0.2,0.6,0.3,0.9c0.2,0.6,0.3,1.2,0.5,1.8C26,51,26.8,54,26.8,54c0.1,0.4-0.1,0.8-0.5,0.9
						c-0.4,0.1-0.8-0.1-0.9-0.5c0,0,0,0,0,0l0,0c0,0-0.8-3-1.9-7.5c-0.1-0.6-0.3-1.2-0.4-1.8c-0.1-0.3-0.2-0.6-0.2-0.9
						c-0.1-0.3-0.2-0.6-0.3-0.9c-0.4-1.3-0.7-2.6-1.1-4c-0.4-1.4-0.8-2.8-1.2-4.3c-0.4-1.5-0.9-2.9-1.3-4.4
						c-0.2-0.7-0.5-1.5-0.7-2.2c-0.1-0.4-0.2-0.7-0.3-1.1c-0.1-0.4-0.2-0.7-0.4-1.1c-0.5-1.5-0.9-2.9-1.4-4.3
						c-0.2-0.7-0.4-1.4-0.7-2c-0.2-0.7-0.5-1.3-0.7-1.9c-0.4-1.3-0.9-2.4-1.3-3.5c-0.4-1.1-0.8-2.1-1.1-3C12,10.4,11.7,9.6,11.5,9
						c-0.2-0.6-0.4-1.1-0.6-1.5C10.8,7.2,10.7,7,10.7,7c0-0.1,0-0.2,0.1-0.2C10.8,6.7,10.9,6.8,11,6.9z"/>
				</g>
			</g>
			<g>
				<path class="st2" d="M59.2,4.8c-23-4.7-38.1-2.6-38.1-2.6s0,0.1,0.1,0.4l3.2,2.1c0,0,29.9,18.4,67.8,50.7c0.2,0,0.3,0.1,0.5,0.1
					C84.8,42.5,98.4,12.7,59.2,4.8z"/>
				<path class="st2" d="M24.3,4.6l-3.2-2.1c0.4,2.5,3.2,16.9,13.3,35.7c16.6,30.8,43,13.8,57.7,17C54.2,23,24.3,4.6,24.3,4.6z"/>
				<g>
					<path class="st2" d="M51.8,52.8l31.6-4.5c0.3,0,0.6,0.2,0.6,0.5s-0.2,0.6-0.5,0.6c0,0,0,0,0,0L51.8,53c-0.1,0-0.1,0-0.1-0.1
						C51.7,52.8,51.7,52.8,51.8,52.8z"/>
					<path class="st2" d="M45,47.6L77.6,43c0.3,0,0.6,0.2,0.6,0.5c0,0.3-0.2,0.6-0.5,0.6c0,0,0,0,0,0L45,47.8c-0.1,0-0.1,0-0.1-0.1
						C44.9,47.7,44.9,47.6,45,47.6z"/>
					<path class="st2" d="M40.8,41.4l30-3.4c0.3,0,0.6,0.2,0.6,0.5c0,0.3-0.2,0.6-0.5,0.6c0,0,0,0,0,0l-30,2.6c-0.1,0-0.1,0-0.1-0.1
						C40.7,41.4,40.7,41.4,40.8,41.4z"/>
					<path class="st2" d="M36.1,35.1l28.1-3c0.3,0,0.6,0.2,0.6,0.5c0,0.3-0.2,0.6-0.5,0.6c0,0,0,0,0,0l-28.2,2.1
						c-0.1,0-0.1,0-0.1-0.1C36,35.2,36,35.1,36.1,35.1z"/>
					<path class="st2" d="M32.3,27.9l24.8-1.3c0.3,0,0.5,0.2,0.6,0.5c0,0.3-0.2,0.5-0.5,0.6c0,0,0,0,0,0l-24.8,0.5
						c-0.1,0-0.1,0-0.1-0.1C32.2,28,32.3,27.9,32.3,27.9z"/>
					<path class="st2" d="M29.2,21.8l20.7-0.4c0.3,0,0.5,0.2,0.5,0.5c0,0.3-0.2,0.5-0.5,0.5c0,0,0,0,0,0L29.2,22
						c-0.1,0-0.1-0.1-0.1-0.1C29.1,21.8,29.2,21.8,29.2,21.8z"/>
					<path class="st2" d="M26.2,14.8l15.3,1c0.3,0,0.5,0.3,0.5,0.6c0,0.3-0.3,0.5-0.6,0.5c0,0,0,0,0,0l-15.2-1.8
						c-0.1,0-0.1-0.1-0.1-0.1C26.1,14.9,26.1,14.8,26.2,14.8z"/>
					<path class="st2" d="M25.4,9.8l10.1,1.5c0.3,0,0.5,0.3,0.5,0.6c0,0.3-0.3,0.5-0.6,0.5c0,0,0,0,0,0L25.3,10
						c-0.1,0-0.1-0.1-0.1-0.1C25.3,9.8,25.3,9.8,25.4,9.8z"/>
					<path class="st2" d="M82.7,48.3l1.5-22.4c0-0.1,0.1-0.1,0.1-0.1c0.1,0,0.1,0.1,0.1,0.1l-0.6,22.4c0,0.3-0.3,0.5-0.5,0.5
						C82.9,48.9,82.7,48.6,82.7,48.3C82.7,48.3,82.7,48.3,82.7,48.3z"/>
					<path class="st2" d="M76.3,42.9l1.1-25c0-0.1,0.1-0.1,0.1-0.1c0.1,0,0.1,0.1,0.1,0.1l-0.2,25c0,0.3-0.2,0.5-0.5,0.5
						C76.5,43.5,76.3,43.2,76.3,42.9C76.3,42.9,76.3,42.9,76.3,42.9z"/>
					<path class="st2" d="M70,37.4l-0.3-25.8c0-0.1,0-0.1,0.1-0.1c0.1,0,0.1,0,0.1,0.1L71,37.3c0,0.3-0.2,0.5-0.5,0.6
						C70.2,37.9,70,37.7,70,37.4C70,37.4,70,37.4,70,37.4z"/>
					<path class="st2" d="M62.9,32.3l-2-23.8c0-0.1,0-0.1,0.1-0.1c0.1,0,0.1,0,0.1,0.1L64,32.2c0,0.3-0.2,0.6-0.5,0.6
						C63.2,32.8,62.9,32.6,62.9,32.3C62.9,32.3,62.9,32.3,62.9,32.3z"/>
					<path class="st2" d="M55.7,27.1l-2-20.6c0-0.1,0-0.1,0.1-0.1c0.1,0,0.1,0,0.1,0.1L56.8,27c0,0.3-0.2,0.6-0.5,0.6
						C56,27.6,55.7,27.4,55.7,27.1C55.7,27.1,55.7,27.1,55.7,27.1z"/>
					<path class="st2" d="M48.4,21.6L44,5c0-0.1,0-0.1,0.1-0.1c0.1,0,0.1,0,0.1,0.1l5.3,16.3c0.1,0.3-0.1,0.6-0.3,0.7
						C48.8,22,48.5,21.9,48.4,21.6C48.5,21.6,48.5,21.6,48.4,21.6z"/>
					<path class="st2" d="M40.9,16.5l-2.7-11c0-0.1,0-0.1,0.1-0.1c0.1,0,0.1,0,0.1,0.1l3.6,10.7c0.1,0.3-0.1,0.6-0.3,0.7
						C41.3,17,41,16.8,40.9,16.5C40.9,16.5,40.9,16.5,40.9,16.5z"/>
					<path class="st2" d="M34.3,11.6l-3.4-7.2c0-0.1,0-0.1,0.1-0.1c0.1,0,0.1,0,0.1,0l4.2,6.8c0.2,0.3,0.1,0.6-0.2,0.7
						C34.8,12,34.4,11.9,34.3,11.6C34.3,11.6,34.3,11.6,34.3,11.6z"/>
					<path class="st2" d="M24.5,4.3c0,0,0.3,0.2,0.9,0.5c0.6,0.3,1.4,0.9,2.5,1.6c1.1,0.7,2.4,1.5,3.8,2.5c1.5,1,3.1,2.1,5,3.2
						c1.8,1.2,3.7,2.5,5.8,3.9c1,0.7,2.1,1.4,3.2,2.2c1.1,0.7,2.2,1.5,3.3,2.3c2.2,1.6,4.5,3.2,6.8,4.8c0.6,0.4,1.2,0.8,1.7,1.2
						c0.6,0.4,1.2,0.9,1.7,1.3c1.2,0.9,2.3,1.7,3.5,2.6c2.3,1.7,4.6,3.5,6.9,5.2c2.3,1.7,4.5,3.5,6.6,5.1c2.1,1.7,4.2,3.3,6.2,4.8
						c0.5,0.4,1,0.8,1.4,1.1c0.5,0.4,0.9,0.8,1.4,1.1c0.9,0.7,1.8,1.5,2.6,2.2c6.7,5.5,11.2,9.2,11.2,9.2c0.6,0.5,0.7,1.4,0.2,2
						c-0.5,0.6-1.4,0.7-2,0.2c0,0,0,0,0,0l0,0c0,0-4.4-3.8-10.9-9.4c-0.8-0.7-1.7-1.4-2.6-2.2c-0.4-0.4-0.9-0.8-1.3-1.2
						c-0.5-0.4-0.9-0.8-1.4-1.2c-1.9-1.6-3.9-3.2-6-5c-2.1-1.7-4.2-3.5-6.5-5.3c-2.2-1.7-4.5-3.5-6.8-5.3c-1.1-0.9-2.3-1.8-3.4-2.7
						c-0.6-0.4-1.1-0.9-1.7-1.3c-0.6-0.4-1.1-0.9-1.7-1.3c-2.3-1.7-4.5-3.4-6.7-5C47,20.8,46,20,44.9,19.2c-1.1-0.8-2.1-1.5-3.1-2.2
						c-2-1.4-3.9-2.8-5.7-4.1c-1.8-1.2-3.4-2.4-4.9-3.4c-1.4-1-2.7-1.8-3.8-2.5c-1.1-0.7-1.9-1.3-2.4-1.6c-0.6-0.4-0.9-0.6-0.9-0.6
						C24,4.8,24,4.6,24.1,4.4C24.2,4.3,24.3,4.3,24.5,4.3z"/>
				</g>
			</g>
			<g>
				<path class="st2" d="M60.9,84.7c16.5-20.2,22.4-36.1,22.4-36.1s-0.1,0-0.4-0.1l-3.7,2c0,0-33.6,19.8-84.9,40.3
					c-0.1,0.1-0.2,0.3-0.3,0.4C10.6,90.2,32.7,119.1,60.9,84.7z"/>
				<path class="st2" d="M79.2,50.5l3.7-2c-2.6-0.9-18.3-5.7-42-5.5C2.2,43.3,5.1,78-5.7,90.8C45.7,70.3,79.2,50.5,79.2,50.5z"/>
				<g>
					<path class="st2" d="M17.7,52.4l-12,33.4c-0.1,0.3-0.5,0.5-0.8,0.4c-0.3-0.1-0.5-0.5-0.4-0.8c0,0,0,0,0,0l12.9-33.1
						c0-0.1,0.1-0.1,0.2-0.1C17.7,52.3,17.7,52.4,17.7,52.4z"/>
					<path class="st2" d="M26.3,48.4L13.9,82.8c-0.1,0.3-0.5,0.5-0.8,0.4c-0.3-0.1-0.5-0.5-0.4-0.8c0,0,0,0,0,0l13.3-34.1
						c0-0.1,0.1-0.1,0.2-0.1C26.3,48.3,26.3,48.4,26.3,48.4z"/>
					<path class="st2" d="M34.6,47.5L22.4,78.7c-0.1,0.3-0.5,0.5-0.8,0.3c-0.3-0.1-0.5-0.5-0.3-0.8c0,0,0,0,0,0l13.1-30.9
						c0-0.1,0.1-0.1,0.2-0.1C34.6,47.4,34.7,47.4,34.6,47.5z"/>
					<path class="st2" d="M43.2,46.1L31.5,75.3c-0.1,0.3-0.5,0.5-0.8,0.3c-0.3-0.1-0.5-0.5-0.3-0.8c0,0,0,0,0,0L43,46.1
						c0-0.1,0.1-0.1,0.2-0.1C43.2,46,43.2,46.1,43.2,46.1z"/>
					<path class="st2" d="M52.2,46.2l-11.6,25c-0.1,0.3-0.5,0.4-0.8,0.3c-0.3-0.1-0.4-0.5-0.3-0.8c0,0,0,0,0,0L52,46.1
						c0-0.1,0.1-0.1,0.2-0.1C52.2,46.1,52.2,46.2,52.2,46.2z"/>
					<path class="st2" d="M59.8,46.4L49.5,66.9c-0.1,0.3-0.5,0.4-0.8,0.3c-0.3-0.1-0.4-0.5-0.3-0.8c0,0,0,0,0,0l11.2-20.1
						c0-0.1,0.1-0.1,0.2,0C59.8,46.3,59.9,46.3,59.8,46.4z"/>
					<path class="st2" d="M68.2,47l-8.9,14.5c-0.2,0.3-0.5,0.4-0.8,0.2c-0.3-0.2-0.4-0.5-0.2-0.8c0,0,0,0,0,0l9.7-14
						c0-0.1,0.1-0.1,0.2,0C68.2,46.9,68.3,46.9,68.2,47z"/>
					<path class="st2" d="M73.6,48.8L66.9,58c-0.2,0.3-0.6,0.3-0.8,0.1c-0.3-0.2-0.3-0.6-0.1-0.8c0,0,0,0,0,0l7.4-8.6
						c0-0.1,0.1-0.1,0.2,0C73.6,48.7,73.6,48.8,73.6,48.8z"/>
					<path class="st2" d="M6.1,85.1l21.2,13.1c0.1,0,0.1,0.1,0,0.2c0,0.1-0.1,0.1-0.2,0L5.5,86.1c-0.3-0.2-0.4-0.5-0.2-0.8
						C5.4,85,5.8,84.9,6.1,85.1C6.1,85.1,6.1,85.1,6.1,85.1z"/>
					<path class="st2" d="M14.7,81.6l23.9,14.1c0.1,0,0.1,0.1,0,0.2c0,0.1-0.1,0.1-0.2,0L14.1,82.6c-0.3-0.2-0.4-0.5-0.2-0.8
						C14,81.5,14.4,81.4,14.7,81.6C14.7,81.6,14.7,81.6,14.7,81.6z"/>
					<path class="st2" d="M23.4,78.3l25.5,13.1c0.1,0,0.1,0.1,0.1,0.2c0,0.1-0.1,0.1-0.2,0.1L22.9,79.3c-0.3-0.1-0.4-0.5-0.3-0.8
						C22.7,78.3,23.1,78.1,23.4,78.3C23.4,78.3,23.4,78.3,23.4,78.3z"/>
					<path class="st2" d="M32,74l24.3,10.4c0.1,0,0.1,0.1,0.1,0.2c0,0.1-0.1,0.1-0.2,0.1l-24.7-9.5c-0.3-0.1-0.5-0.5-0.3-0.8
						C31.4,74,31.7,73.9,32,74C32,74,32,74,32,74z"/>
					<path class="st2" d="M40.9,69.6l21.2,8.7c0.1,0,0.1,0.1,0.1,0.2c0,0.1-0.1,0.1-0.2,0.1l-21.6-7.8c-0.3-0.1-0.5-0.5-0.4-0.8
						C40.2,69.7,40.6,69.5,40.9,69.6C40.9,69.6,40.9,69.6,40.9,69.6z"/>
					<path class="st2" d="M50.1,65.4l18.6,4.2c0.1,0,0.1,0.1,0.1,0.1c0,0.1-0.1,0.1-0.1,0.1l-18.8-3.3c-0.3-0.1-0.5-0.4-0.5-0.7
						C49.4,65.5,49.7,65.3,50.1,65.4C50,65.4,50,65.4,50.1,65.4z"/>
					<path class="st2" d="M58.9,60.6l12.2,3c0.1,0,0.1,0.1,0.1,0.1c0,0.1-0.1,0.1-0.1,0.1l-12.4-2.1c-0.3-0.1-0.5-0.4-0.5-0.7
						C58.3,60.7,58.6,60.5,58.9,60.6C58.9,60.6,58.9,60.6,58.9,60.6z"/>
					<path class="st2" d="M67.2,56.6l8.8,0.4c0.1,0,0.1,0.1,0.1,0.1c0,0.1-0.1,0.1-0.1,0.1l-8.8,0.5c-0.3,0-0.6-0.2-0.6-0.6
						C66.6,56.9,66.8,56.6,67.2,56.6C67.2,56.6,67.2,56.6,67.2,56.6z"/>
					<path class="st2" d="M79.4,50.8c0,0-0.3,0.2-1,0.6c-0.6,0.4-1.6,0.9-2.8,1.6c-1.2,0.7-2.7,1.6-4.4,2.5c-1.7,0.9-3.6,2-5.8,3.2
						c-2.1,1.2-4.4,2.4-6.9,3.7c-1.2,0.6-2.5,1.3-3.8,2c-1.3,0.7-2.6,1.3-4,2c-2.7,1.4-5.5,2.8-8.3,4.2c-0.7,0.4-1.4,0.7-2.1,1.1
						c-0.7,0.3-1.4,0.7-2.2,1c-1.4,0.7-2.9,1.4-4.3,2.1c-2.9,1.4-5.8,2.8-8.7,4.1c-2.9,1.3-5.7,2.6-8.5,3.8
						c-2.8,1.2-5.4,2.4-7.9,3.6C8.2,86.5,7.6,86.7,7,87c-0.6,0.3-1.2,0.5-1.8,0.8c-1.2,0.5-2.4,1-3.5,1.4
						c-8.9,3.7-14.8,6.2-14.8,6.2c-0.8,0.3-1.7,0-2.1-0.9c-0.3-0.8,0-1.7,0.9-2.1c0,0,0,0,0,0l0,0c0,0,6-2.3,14.9-5.8
						c1.1-0.4,2.3-0.9,3.5-1.4c0.6-0.2,1.2-0.5,1.8-0.7c0.6-0.3,1.2-0.5,1.9-0.8c2.5-1.1,5.2-2.2,8-3.3c2.8-1.2,5.6-2.4,8.5-3.6
						c2.9-1.3,5.8-2.6,8.7-3.9c1.5-0.7,2.9-1.3,4.4-2c0.7-0.3,1.5-0.7,2.2-1c0.7-0.3,1.4-0.7,2.1-1c2.9-1.4,5.7-2.7,8.4-4
						c1.4-0.7,2.7-1.3,4-1.9c1.3-0.6,2.6-1.3,3.8-1.9c2.5-1.2,4.8-2.4,6.9-3.5c2.1-1.1,4.1-2.1,5.8-3c1.7-0.9,3.2-1.7,4.5-2.4
						c1.2-0.7,2.2-1.2,2.9-1.6c0.7-0.4,1-0.6,1-0.6c0.2-0.1,0.4,0,0.4,0.1C79.6,50.5,79.6,50.7,79.4,50.8z"/>
				</g>
			</g>
		</g>
		<use xlink:href="#SVGID_1_"  style="overflow:visible;fill:none;stroke:#995720;stroke-miterlimit:10;"/>
	</g>
</g>
<path class="st4" d="M25.1,18.5c0,0,1.2,1.1,2.3,4.1c0.6,1.9,19.3,57.7,19.3,57.7l1.8-5.2L29.4,18.5H25.1z"/>
<path class="st5" d="M22.1,39.3c0,0-2.2,9.3-8.9,5.5c-7.8-4.4-6.8-16.7-3.9-20.2s10.9-5.2,13.7,2.5c0.7,2,21.7,66.6,21.7,66.6
	l21.5-59.2l-1.8-0.3L50.6,71.8L34.4,21.7c0,0,2.2-4.7,2-5.9c0,0-9.8,0.6-13.8-0.6c0,0-18-4.7-16.6,18.5c0,0,0.8,9.4,6.5,12.4
	c6.8,3.6,8.9-2.7,10.3-6.3C22.9,39.8,22.9,38.7,22.1,39.3z"/>
<path class="st5" d="M80.8,16.3c0.3-0.2,0.7,0.1,1.1,0.7c0.3,0.4,0.5,1,0.7,1.4c3.1,9.6-5.9,16.6-14,17.2
	c-8.5,0.7-16.7-4.4-16.7-4.4l7.6-9.6c0,0,4.1,9.4,14.5,7.7c9.2-1.5,9.2-7.4,7.8-11c0,0-0.2-0.5-0.8-0.9
	C80.8,17.3,80.4,16.6,80.8,16.3z"/>
<path class="st5" d="M51.1,73.6V12.7c0,0,0.1-4.2-2.4-4.2s-3,2.4-2.7,3.2c0.3,0.9,1.9,0.7,1.8-0.2c0,0-0.3-1.3,0.8-1.3
	s1.1,2.6,1.1,2.6v61.7L51.1,73.6z"/>
<path class="st5" d="M35.2,17.2c0,0,7.5-6.5,4.7-9.9c-0.8-1-2-0.6-2.3-0.1c-0.2,0.3,0,0.9,0,0.9s0.3,0.6,1,0.5
	c0.9-0.1,0.4,4.6-4.4,7.9C26.4,21.6,35.2,17.2,35.2,17.2z"/>
</svg>
