<?xml version="1.0" encoding="utf-8"?>
<!-- Generator: Adobe Illustrator 27.3.1, SVG Export Plug-In . SVG Version: 6.00 Build 0)  -->
<svg version="1.1" xmlns="http://www.w3.org/2000/svg" xmlns:xlink="http://www.w3.org/1999/xlink" x="0px" y="0px"
	 viewBox="0 0 163.02 159.41" style="enable-background:new 0 0 163.02 159.41;" xml:space="preserve">
<style type="text/css">
	.st0{fill:#969595;}
	.st1{display:none;}
	.st2{display:inline;}
	.st3{fill:#CA8D58;}
</style>
<g id="Layer_1">
	<g>
		<g>
			<g>
				<path class="st0" d="M15.78,29.32c2.74,0.2,5.62-0.86,5.6-4.03c0.03-2.65-1.49-5.09-4.27-5.4c-1.64-0.18-3.42,0.13-4.78,1.08
					c-1.7,1.16-2.59,3.27-2.4,5.29c0.21,2.52,1.9,4.66,3.88,6.14c0.34,0.26,0.68,0.48,1.08,0.76c1.53,1.08,2.88,2.45,3.87,4.07
					c2.01,3.23,2.42,7.42,0.95,10.94c-0.91,2.2-2.57,4.15-4.75,5.17c-2.99,1.39-6.82,1.34-9.49-0.73c-1.16-0.91-1.95-2.37-1.77-3.87
					c0.1-0.97,0.53-1.86,1.09-2.62c0.54-0.78,1.41-1.4,2.37-1.53c1.4-0.2,2.83,0.45,3.76,1.49c0.37,0.43,0.68,0.96,0.69,1.55
					c0.01,0.34-0.12,0.68-0.34,0.94c0.06-0.09,0.12-0.19,0.16-0.29c0.56-1.57-1.6-3.02-2.94-3.21c-1.29-0.24-2.51,0.3-3.18,1.42
					c-0.68,1.02-1.09,2.31-0.69,3.5c0.85,2.4,3.84,3.28,6.18,3.19c5.57-0.24,8.82-5.16,8.33-10.45c-0.3-3.39-2.29-6.45-5.06-8.4
					c-0.72-0.49-1.53-1.08-2.19-1.7c-1.74-1.62-3.06-3.84-3.21-6.26c-0.2-2.44,0.99-4.96,3.06-6.28c1.62-1.06,3.62-1.33,5.5-1.03
					c3.08,0.48,4.77,3.28,4.52,6.25C21.52,28.63,18.73,29.66,15.78,29.32L15.78,29.32z"/>
			</g>
			<g>
				<ellipse transform="matrix(0.9419 -0.336 0.336 0.9419 -15.6495 5.7528)" class="st0" cx="8.8" cy="48.1" rx="2.94" ry="2.94"/>
			</g>
			<g>
				<path class="st0" d="M14.57,28.86c1.45,0.72,3.22,0.13,3.94-1.32s0.13-3.22-1.32-3.94c-1.45-0.72-3.22-0.13-3.94,1.32
					C12.53,26.37,13.12,28.13,14.57,28.86z"/>
			</g>
			<g>
				<path class="st0" d="M16.06,26.06c0,0,3.55,1.31,4.37-1.76c0.94-3.53-1.78-4.43-1.78-4.43s2.41,1.66,2.85,2.99
					c0.45,1.33,0.38,4.33-1.53,5.6c-1.35,0.9-4.43,1.31-5.54,0.3S16.06,26.06,16.06,26.06z"/>
			</g>
			<g>
				<path class="st0" d="M9.27,46.27c0,0-3.44-0.04-3.01,3.93c0.35,3.25,5.1,2.98,5.1,2.98s-6.42,0.22-6.91-2.66s0.3-4.96,2.2-5.55
					c1.9-0.59,3.01,0.38,3.01,0.38L9.27,46.27z"/>
			</g>
		</g>
		<g>
			<g>
				<path class="st0" d="M30.38,16c-0.01,2.91-1.34,5.57-4.61,5.46c-3.65-0.13-6.17-2.72-5.72-6.45c0.3-3.51,2.88-6.33,6.47-6.51
					c3.91-0.21,7.21,2.81,8.85,6.09c1.55,2.99,4.65,4.86,7.95,5.3c3.23,0.45,6.92-0.12,9.47-2.27c1.23-1.08,1.91-2.67,2.17-4.26
					c0.35-2.3-0.35-5.28-2.63-6.3c-1.34-0.57-2.86,0-3.95,0.85c-1.14,0.94-1.46,2.6-1.12,4c0.31,1.3,1.34,2.43,2.77,1.97
					c-0.41,0.17-0.88,0.23-1.32,0.1c-0.9-0.26-1.48-1.13-1.76-1.98c-0.43-1.33-0.3-2.84,0.54-4.01c0.28-0.39,0.64-0.71,1.03-0.97
					c0.57-0.4,1.23-0.73,1.92-0.88c2.9-0.63,5.01,1.95,5.51,4.56c0.48,2.32-0.02,4.82-1.36,6.78c-1.41,1.94-3.69,3.02-5.96,3.58
					c-5.42,1.33-11.9-0.59-14.53-5.8c-0.19-0.37-0.41-0.75-0.63-1.11c-1.29-2.07-3.26-3.91-5.72-4.32c-4.13-0.66-6.97,2.56-6.9,6.55
					c0.05,2.74,2.34,4.48,4.93,4.73C28.88,21.43,30.25,18.69,30.38,16L30.38,16z"/>
			</g>
			<g>
				
					<ellipse transform="matrix(0.7262 -0.6875 0.6875 0.7262 -3.7974 23.3932)" class="st0" cx="27.47" cy="16.46" rx="2.94" ry="2.94"/>
			</g>
			<g>
				<path class="st0" d="M27.24,16.55c0,0-1.48,3.66-3.61,3.02c-3.5-1.05-3.07-3.66-3.07-3.66s0.33,2.9,1.3,3.93
					c0.97,1.02,4.08,1.6,5.67,1.29c1.59-0.32,3.16-2.94,2.79-4.4C29.94,15.26,27.24,16.55,27.24,16.55z"/>
			</g>
			<g>
				<g>
					<circle class="st0" cx="50.05" cy="11.23" r="2.94"/>
				</g>
				<g>
					<path class="st0" d="M48.27,11.86c0,0-0.35-3.43,3.64-3.36c3.27,0.06,3.42,4.81,3.42,4.81s-0.36-6.41-3.27-6.64
						c-2.9-0.23-4.91,0.75-5.33,2.69c-0.41,1.94,0.65,2.96,0.65,2.96L48.27,11.86z"/>
				</g>
			</g>
		</g>
		<g>
			<path class="st0" d="M18.22,9.42c-0.53,3.02,0.02,6.38,2.36,8.53c0.31,0.3,0.67,0.56,1.01,0.81l-0.37,0.59
				c-0.2-0.13-0.41-0.25-0.59-0.39c-2.2-1.57-3.1-4.24-2.95-6.85c0.05-0.92,0.19-1.83,0.48-2.71L18.22,9.42L18.22,9.42z"/>
		</g>
		<g>
			<path class="st0" d="M10.59,17.17c3.37-0.85,7.45-0.11,9.41,3.01c0.13,0.2,0.24,0.41,0.36,0.62c0,0-0.61,0.34-0.61,0.34
				c-0.23-0.36-0.48-0.73-0.76-1.05c-1.4-1.72-3.51-2.64-5.69-2.85c-0.89-0.1-1.79-0.1-2.69,0.02L10.59,17.17L10.59,17.17z"/>
		</g>
		<g>
			<path class="st0" d="M8.11,7.2l0.42,0.21c2.63,1.31,5.73,1.33,8.38,0.04l0.39-0.19l-0.3,0.65c-1.15,2.48-1.17,5.34-0.06,7.84
				l0.31,0.7l-0.69-0.32c-2.48-1.14-5.34-1.15-7.84-0.03l-0.66,0.3l0.21-0.41c1.29-2.59,1.33-5.63,0.1-8.24L8.11,7.2z"/>
		</g>
		<g>
			<path class="st0" d="M10.5,38.81c0.5-0.32,0.98-0.79,1.12-1.37c0.07-0.31,0.04-0.63-0.06-0.93c-0.19-0.66-0.84-0.88-1.48-0.88
				c-1.07,0.02-1.67,1.03-1.84,1.99c-0.15,0.7,0.12,1.4,0.57,1.97c0.66,0.84,1.73,1.36,2.8,1.31c1.53-0.06,3.32-1.27,3.82-2.74
				c0.35-1,0.1-2.11-0.36-3.05c-0.88-1.72-2.34-3.02-3.94-4.11c1.17,0.47,2.26,1.16,3.22,2.03c2.75,2.51,3.24,6.06-0.2,8.23
				c-1.33,0.87-3.14,1.1-4.59,0.36c-1.45-0.71-2.61-2.28-2.35-3.97c0.22-1.22,1.02-2.52,2.34-2.73c0.68-0.11,1.54,0.09,2.04,0.6
				c0.23,0.24,0.36,0.54,0.42,0.86C12.26,37.52,11.54,38.42,10.5,38.81L10.5,38.81z"/>
		</g>
		<g>
			<path class="st0" d="M11.97,37.12c-0.03,0.95-0.82,1.7-1.76,1.67c-0.95-0.03-1.7-0.82-1.67-1.76c0.03-0.95,0.82-1.7,1.76-1.67
				C11.25,35.38,12,36.17,11.97,37.12z"/>
		</g>
		<g>
			<path class="st0" d="M41.17,12.58c-0.5,0.98-1.47,1.6-2.58,1.23c-0.31-0.1-0.59-0.27-0.81-0.52c-0.36-0.45-0.46-1-0.45-1.55
				c0.01-0.18,0.04-0.38,0.09-0.55c0.36-1.29,1.74-1.93,2.98-2.01c0.94-0.06,1.86,0.4,2.51,1.01c1.06,0.98,1.6,2.49,1.37,3.91
				c-0.17,1.07-0.7,2.01-1.42,2.77c-0.97,1.06-2.31,1.75-3.77,1.58c-3-0.39-4.97-3.47-5.73-6.14c1.15,2.3,3.73,5.66,6.62,5.09
				c1.08-0.23,1.97-1.06,2.56-1.97c0.6-0.91,0.81-2.05,0.45-3.08c-0.4-1.21-1.61-2.37-2.94-2.13c-0.99,0.11-1.97,0.69-1.99,1.77
				c-0.03,0.54,0.13,1.08,0.63,1.33c0.31,0.17,0.66,0.25,1.01,0.21C40.28,13.46,40.8,13.05,41.17,12.58L41.17,12.58z"/>
		</g>
		<g>
			<path class="st0" d="M39.33,13.85c0.95,0.08,1.78-0.62,1.86-1.56c0.08-0.95-0.62-1.78-1.56-1.86c-0.95-0.08-1.78,0.62-1.86,1.56
				C37.69,12.94,38.39,13.77,39.33,13.85z"/>
		</g>
		<g>
			<path class="st0" d="M19.59,11.45c2.33-4.98,8.21-6.98,12.65-3.34c1.27,1.06,2.31,2.38,2.95,3.91c-1-1.21-2.17-2.33-3.47-3.19
				C27.27,5.89,22.81,7.71,19.59,11.45L19.59,11.45z"/>
		</g>
		<g>
			<path class="st0" d="M12.4,18.38c-3.99,2.93-6.14,7.23-3.57,11.88c0.76,1.37,1.78,2.62,2.91,3.71c-1.47-0.76-2.71-1.89-3.66-3.24
				C4.79,26.01,7.25,20.32,12.4,18.38L12.4,18.38z"/>
		</g>
	</g>
	<g>
		<g>
			<path class="st0" d="M136.11,12.49l-63.53,4.55l-14.73-4.77l14.72-5.05l0.16,0.01l63.16,3.81L136.11,12.49z M72.85,15.84
				l57.39-4.07L72.81,8.35l-10.76,3.88L72.85,15.84z"/>
		</g>
		<circle class="st0" cx="134.12" cy="11.64" r="2.61"/>
		<path class="st0" d="M143.68,14.43c1.53,0,2.78-1.25,2.78-2.78c0-1.53-1.25-2.78-2.78-2.78s-2.78,1.25-2.78,2.78
			C140.9,13.18,142.15,14.43,143.68,14.43z M143.68,10.22c0.79,0,1.43,0.64,1.43,1.43s-0.64,1.43-1.43,1.43
			c-0.79,0-1.43-0.64-1.43-1.43S142.89,10.22,143.68,10.22z"/>
		<path class="st0" d="M151.7,13.93c1.26,0,2.28-1.02,2.28-2.28c0-1.26-1.02-2.28-2.28-2.28c-1.26,0-2.28,1.02-2.28,2.28
			S150.44,13.93,151.7,13.93z M151.7,10.72c0.51,0,0.93,0.42,0.93,0.93s-0.42,0.93-0.93,0.93c-0.51,0-0.93-0.42-0.93-0.93
			C150.77,11.13,151.19,10.72,151.7,10.72z"/>
		<path class="st0" d="M158.76,13.47c1,0,1.82-0.82,1.82-1.82s-0.82-1.82-1.82-1.82s-1.82,0.82-1.82,1.82S157.76,13.47,158.76,13.47
			z M158.76,11.18c0.26,0,0.47,0.21,0.47,0.47s-0.21,0.47-0.47,0.47c-0.26,0-0.47-0.21-0.47-0.47S158.5,11.18,158.76,11.18z"/>
	</g>
	<g>
		<g>
			<path class="st0" d="M9.9,134.08L5.35,70.55l4.77-14.73l5.05,14.72l-0.01,0.16l-3.81,63.16L9.9,134.08z M6.56,70.82l4.07,57.39
				l3.41-57.44l-3.88-10.76L6.56,70.82z"/>
		</g>
		<circle class="st0" cx="10.76" cy="132.09" r="2.61"/>
		<path class="st0" d="M7.97,141.65c0,1.53,1.25,2.78,2.78,2.78c1.53,0,2.78-1.25,2.78-2.78s-1.25-2.78-2.78-2.78
			C9.22,138.87,7.97,140.12,7.97,141.65z M12.18,141.65c0,0.79-0.64,1.43-1.43,1.43s-1.43-0.64-1.43-1.43
			c0-0.79,0.64-1.43,1.43-1.43S12.18,140.86,12.18,141.65z"/>
		<path class="st0" d="M8.47,149.67c0,1.26,1.02,2.28,2.28,2.28c1.26,0,2.28-1.02,2.28-2.28c0-1.26-1.02-2.28-2.28-2.28
			S8.47,148.41,8.47,149.67z M11.68,149.67c0,0.51-0.42,0.93-0.93,0.93s-0.93-0.42-0.93-0.93c0-0.51,0.42-0.93,0.93-0.93
			C11.27,148.74,11.68,149.16,11.68,149.67z"/>
		<path class="st0" d="M8.93,156.73c0,1,0.82,1.82,1.82,1.82s1.82-0.82,1.82-1.82s-0.82-1.82-1.82-1.82S8.93,155.73,8.93,156.73z
			 M11.22,156.73c0,0.26-0.21,0.47-0.47,0.47s-0.47-0.21-0.47-0.47c0-0.26,0.21-0.47,0.47-0.47S11.22,156.47,11.22,156.73z"/>
	</g>
</g>
<g id="Layer_2" class="st1">
	<g class="st2">
		<g>
			<g>
				<g>
					<path class="st3" d="M17.49,51.75c0.04-1.3-0.49-2.2-1.88-1.67c-0.24,0.09-0.51,0.21-0.73,0.34c-0.65,0.42-0.93,1.24-0.92,1.99
						c0.07,2.15,1.93,2.87,3.83,2.51c2.5-0.41,4.36-1.94,4.94-4.45c0.31-1.29,0.28-2.69,0.07-4.02c-0.78-4.9-6.26-7.08-6.85-12.49
						c-0.47-4.02,0.38-8.28,2.86-11.53c0.7-0.91,1.49-1.76,2.42-2.42c-0.85,0.75-1.56,1.64-2.17,2.59
						c-2.14,3.3-2.77,7.39-2.19,11.23c0.24,1.62,1.01,3.06,2.02,4.36c1.74,2.25,4.09,4.3,4.83,7.19c0.54,2.29,0.53,4.92-0.62,7.04
						c-1.17,2.22-3.64,3.41-6.09,3.43c-1.24,0.02-2.61-0.5-3.24-1.65c-0.62-1.1-0.59-2.54,0.17-3.56c0.36-0.52,0.97-0.79,1.56-0.94
						C17.07,49.28,17.75,50.28,17.49,51.75L17.49,51.75z"/>
				</g>
				<g>
					<path class="st3" d="M16.77,19.68c-0.8,0.4-1.38,0.11-1.21-0.82c0.17-0.8,1.11-0.96,1.69-0.47c0.95,0.76,0.62,2.05-0.21,2.75
						c-0.56,0.5-1.3,0.64-2.01,0.37c-0.99-0.33-1.93-1.17-2.01-2.27c-0.05-0.72,0.25-1.44,0.7-1.99c0.91-1.12,2.47-1.46,3.84-1.23
						c2.22,0.35,3.56,1.98,4.37,3.96c1.6,3.86,0.62,8.21-2.29,11.16c-0.39,0.43-1,0.95-1.44,1.34c-1.4,1.26-2.66,2.72-3.5,4.41
						c-1.44,2.77-1.46,6.37,1.16,8.43c0.96,0.75,2.41,0.78,3.01-0.42c0.26-0.53,0.27-1.21-0.05-1.71c-0.53-0.83-1.36-0.58-1.65,0.27
						c-0.1,0.31,0.06,0.62,0.31,0.81c0.12,0.1,0.27,0.18,0.42,0.24c-0.15-0.05-0.3-0.12-0.44-0.21c-0.5-0.33-0.51-0.86-0.19-1.32
						c0.46-0.72,1.3-0.57,1.75,0.08c0.61,0.87,0.36,2.19-0.49,2.82c-1.6,1.14-3.46-0.21-4.37-1.59c-2.37-3.61-0.52-8.08,2.12-10.98
						c0.44-0.49,0.91-0.96,1.39-1.4c0.41-0.37,1.02-0.89,1.39-1.3c2.66-2.73,3.6-6.76,2.14-10.31c-0.46-1.11-1.09-2.22-2.11-2.9
						c-1.53-1.05-4.09-1.11-5.15,0.6c-0.82,1.3-0.11,2.56,1.25,3.08c0.27,0.1,0.55,0.17,0.83,0.12c0.81-0.14,1.61-1.01,1.5-1.88
						c-0.1-0.7-0.99-1.37-1.61-0.81c-0.22,0.21-0.29,0.54-0.26,0.84C15.7,19.94,16.37,19.86,16.77,19.68L16.77,19.68z"/>
				</g>
				<g>
					<path class="st3" d="M16.37,19.95c0.45,0,0.81-0.36,0.81-0.81c0-0.45-0.36-0.81-0.81-0.81c-0.45,0-0.81,0.36-0.81,0.81
						S15.92,19.95,16.37,19.95z"/>
				</g>
				<g>
					<path class="st3" d="M16.37,52.44c0.69,0,1.25-0.56,1.25-1.25s-0.56-1.25-1.25-1.25c-0.69,0-1.25,0.56-1.25,1.25
						C15.12,51.88,15.68,52.44,16.37,52.44z"/>
				</g>
				<g>
					<path class="st3" d="M17.86,44.52c0.45,0,0.81-0.36,0.81-0.81s-0.36-0.81-0.81-0.81c-0.45,0-0.81,0.36-0.81,0.81
						C17.05,44.16,17.42,44.52,17.86,44.52z"/>
				</g>
			</g>
		</g>
		<g>
			<g>
				<g>
					<path class="st3" d="M53.21,14.24c-1.48,0.27-2.46-0.43-2.04-1.99c0.15-0.59,0.42-1.19,0.94-1.56
						c1.03-0.75,2.46-0.79,3.56-0.17c1.15,0.63,1.67,2,1.65,3.24c-0.05,3.26-1.91,5.95-5.13,6.76c-1.77,0.43-3.59,0.37-5.34-0.05
						c-4.01-1.01-6.23-5.05-10-6.44c-0.5-0.18-1.02-0.32-1.55-0.4c-3.84-0.58-7.94,0.05-11.23,2.19c-0.95,0.61-1.84,1.32-2.59,2.17
						c0.66-0.93,1.5-1.73,2.42-2.42c3.25-2.48,7.51-3.33,11.53-2.86c5.42,0.59,7.59,6.06,12.49,6.85c1.33,0.2,2.73,0.24,4.02-0.07
						c2.5-0.58,4.04-2.44,4.45-4.94c0.36-1.9-0.35-3.76-2.51-3.83c-0.75,0-1.57,0.27-1.99,0.92c-0.13,0.22-0.25,0.48-0.34,0.73
						C51,13.76,51.92,14.29,53.21,14.24L53.21,14.24z"/>
				</g>
				<g>
					<path class="st3" d="M21.14,13.52c0.18-0.4,0.26-1.07-0.33-1.12c-0.3-0.03-0.63,0.04-0.84,0.26c-0.56,0.61,0.11,1.51,0.81,1.61
						c0.87,0.12,1.74-0.68,1.88-1.5c0.05-0.29-0.02-0.57-0.12-0.83c-0.52-1.35-1.78-2.07-3.08-1.25c-1.71,1.06-1.65,3.62-0.62,5.15
						c0.68,1.02,1.79,1.65,2.9,2.11c3.55,1.46,7.59,0.52,10.31-2.14c0.41-0.37,0.93-0.97,1.3-1.39c0.44-0.49,0.91-0.95,1.4-1.39
						c2.9-2.64,7.37-4.5,10.98-2.12c1.39,0.91,2.73,2.77,1.59,4.37c-0.63,0.85-1.95,1.1-2.82,0.49c-0.65-0.45-0.8-1.28-0.08-1.75
						c0.45-0.32,1-0.31,1.32,0.19c0.09,0.13,0.16,0.28,0.21,0.44c-0.06-0.15-0.14-0.29-0.24-0.42c-0.19-0.25-0.5-0.41-0.81-0.31
						c-0.87,0.29-1.08,1.13-0.27,1.65c0.89,0.56,2.23,0.11,2.56-0.89c0.45-1.37-0.71-2.6-1.79-3.29c-1.04-0.67-2.29-0.96-3.51-0.91
						c-3.17,0.15-5.91,2.19-7.97,4.48c-1.27,1.52-2.8,2.88-4.65,3.67c-3.08,1.35-6.86,1.01-9.62-0.91
						c-1.75-1.16-2.65-3.44-2.08-5.47c0.19-0.67,0.57-1.32,1.13-1.77c0.69-0.56,1.66-0.89,2.53-0.58c0.85,0.3,1.45,1.07,1.73,1.89
						c0.27,0.71,0.13,1.45-0.37,2.01c-0.7,0.83-2,1.16-2.75,0.21c-0.49-0.57-0.33-1.52,0.47-1.69
						C21.27,12.15,21.53,12.74,21.14,13.52L21.14,13.52z"/>
				</g>
				<g>
					<circle class="st3" cx="20.6" cy="13.12" r="0.81"/>
				</g>
				<g>
					<path class="st3" d="M53.89,13.12c0,0.69-0.56,1.25-1.25,1.25s-1.25-0.56-1.25-1.25s0.56-1.25,1.25-1.25
						C53.34,11.87,53.89,12.43,53.89,13.12z"/>
				</g>
				<g>
					<path class="st3" d="M45.97,14.62c0,0.45-0.36,0.81-0.81,0.81s-0.81-0.36-0.81-0.81c0-0.45,0.36-0.81,0.81-0.81
						C45.61,13.81,45.97,14.17,45.97,14.62z"/>
				</g>
			</g>
		</g>
		<path class="st3" d="M15.5,9.59c1.91,1.99,1.19,5.79,1.19,5.79s-3.83,0.58-5.74-1.41S9.76,8.18,9.76,8.18S13.58,7.6,15.5,9.59z"/>
	</g>
	<g class="st2">
		<g>
			<g>
				<path class="st3" d="M10.39,44.96c0.93,21.81,0.94,43.66,0,65.47C9.46,88.61,9.46,66.77,10.39,44.96L10.39,44.96z"/>
			</g>
			<g>
				<polygon class="st3" points="11.6,106.32 10.46,110.99 9.22,106.22 				"/>
			</g>
		</g>
		<g>
			<g>
				<path class="st3" d="M47.76,8.12c21.81-0.93,43.66-0.94,65.47,0C91.41,9.06,69.57,9.05,47.76,8.12L47.76,8.12z"/>
			</g>
			<g>
				<polygon class="st3" points="109.12,6.91 113.79,8.05 109.02,9.3 				"/>
			</g>
		</g>
	</g>
</g>
</svg>
