<?xml version="1.0" encoding="utf-8"?>
<!-- Generator: Adobe Illustrator 27.3.1, SVG Export Plug-In . SVG Version: 6.00 Build 0)  -->
<svg version="1.1" xmlns="http://www.w3.org/2000/svg" xmlns:xlink="http://www.w3.org/1999/xlink" x="0px" y="0px"
	 viewBox="0 0 786.07 60.14" style="enable-background:new 0 0 786.07 60.14;" xml:space="preserve">
<style type="text/css">
	.st0{fill:#969595;}
	.st1{display:none;}
	.st2{display:inline;fill:#161518;}
</style>
<g id="Layer_1">
	<g>
		<path class="st0" d="M87.89,27.42c-1.87,0-3.4,1.52-3.4,3.4c0,1.87,1.52,3.4,3.4,3.4s3.4-1.52,3.4-3.4
			C91.29,28.94,89.76,27.42,87.89,27.42z M87.89,32.86c-1.13,0-2.05-0.92-2.05-2.05s0.92-2.05,2.05-2.05s2.05,0.92,2.05,2.05
			S89.02,32.86,87.89,32.86z"/>
		<path class="st0" d="M78.76,28.03c-1.53,0-2.78,1.25-2.78,2.78c0,1.53,1.25,2.78,2.78,2.78s2.78-1.25,2.78-2.78
			C81.54,29.28,80.29,28.03,78.76,28.03z M78.76,32.24c-0.79,0-1.43-0.64-1.43-1.43s0.64-1.43,1.43-1.43s1.43,0.64,1.43,1.43
			S79.55,32.24,78.76,32.24z"/>
		<path class="st0" d="M70.74,28.53c-1.26,0-2.28,1.02-2.28,2.28c0,1.26,1.02,2.28,2.28,2.28s2.28-1.02,2.28-2.28
			S72,28.53,70.74,28.53z M70.74,31.74c-0.51,0-0.93-0.42-0.93-0.93s0.42-0.93,0.93-0.93s0.93,0.42,0.93,0.93
			C71.67,31.33,71.25,31.74,70.74,31.74z"/>
		<path class="st0" d="M63.68,28.99c-1,0-1.82,0.82-1.82,1.82s0.82,1.82,1.82,1.82s1.82-0.82,1.82-1.82S64.68,28.99,63.68,28.99z
			 M63.68,31.28c-0.26,0-0.47-0.21-0.47-0.47s0.21-0.47,0.47-0.47c0.26,0,0.47,0.21,0.47,0.47S63.94,31.28,63.68,31.28z"/>
		<path class="st0" d="M698.38,27.42c-1.87,0-3.4,1.52-3.4,3.4c0,1.87,1.52,3.4,3.4,3.4c1.87,0,3.4-1.52,3.4-3.4
			C701.78,28.94,700.25,27.42,698.38,27.42z M698.38,32.86c-1.13,0-2.05-0.92-2.05-2.05s0.92-2.05,2.05-2.05s2.05,0.92,2.05,2.05
			S699.51,32.86,698.38,32.86z"/>
		<path class="st0" d="M707.51,28.03c-1.53,0-2.78,1.25-2.78,2.78c0,1.53,1.25,2.78,2.78,2.78s2.78-1.25,2.78-2.78
			C710.29,29.28,709.04,28.03,707.51,28.03z M707.51,32.24c-0.79,0-1.43-0.64-1.43-1.43s0.64-1.43,1.43-1.43s1.43,0.64,1.43,1.43
			S708.3,32.24,707.51,32.24z"/>
		<path class="st0" d="M715.53,28.53c-1.26,0-2.28,1.02-2.28,2.28c0,1.26,1.02,2.28,2.28,2.28s2.28-1.02,2.28-2.28
			C717.81,29.55,716.79,28.53,715.53,28.53z M715.53,31.74c-0.51,0-0.93-0.42-0.93-0.93s0.42-0.93,0.93-0.93s0.93,0.42,0.93,0.93
			C716.46,31.33,716.04,31.74,715.53,31.74z"/>
		<path class="st0" d="M722.59,28.99c-1,0-1.82,0.82-1.82,1.82s0.82,1.82,1.82,1.82s1.82-0.82,1.82-1.82S723.59,28.99,722.59,28.99z
			 M722.59,31.28c-0.26,0-0.47-0.21-0.47-0.47s0.21-0.47,0.47-0.47c0.26,0,0.47,0.21,0.47,0.47S722.85,31.28,722.59,31.28z"/>
		<path class="st0" d="M419.47,29.86c-4.6-2.52-8.36-6.28-10.88-10.88c-0.12-0.22-0.34-0.35-0.59-0.35s-0.47,0.13-0.59,0.35
			c-2.52,4.6-6.28,8.36-10.88,10.88c-0.22,0.12-0.35,0.34-0.35,0.59s0.13,0.47,0.35,0.59c4.6,2.52,8.36,6.28,10.88,10.88
			c0.12,0.22,0.34,0.35,0.59,0.35s0.47-0.13,0.59-0.35c2.52-4.6,6.28-8.36,10.88-10.88c0.22-0.12,0.35-0.34,0.35-0.59
			C419.82,30.21,419.69,29.98,419.47,29.86z M408,40.25c-2.42-4.02-5.77-7.37-9.79-9.79c4.02-2.42,7.37-5.77,9.79-9.79
			c2.42,4.02,5.77,7.37,9.79,9.79C413.77,32.87,410.42,36.23,408,40.25z"/>
		<path class="st0" d="M408,24.68c-1.33,2.44-3.34,4.44-5.77,5.77c2.44,1.33,4.44,3.34,5.77,5.77c1.33-2.44,3.34-4.44,5.77-5.77
			C411.34,29.12,409.33,27.12,408,24.68z"/>
		<path class="st0" d="M448.34,29.86c-4.6-2.52-8.36-6.28-10.88-10.88c-0.12-0.22-0.34-0.35-0.59-0.35s-0.47,0.13-0.59,0.35
			c-2.52,4.6-6.28,8.36-10.88,10.88c-0.22,0.12-0.35,0.34-0.35,0.59s0.13,0.47,0.35,0.59c4.6,2.52,8.36,6.28,10.88,10.88
			c0.12,0.22,0.34,0.35,0.59,0.35s0.47-0.13,0.59-0.35c2.52-4.6,6.28-8.36,10.88-10.88c0.22-0.12,0.35-0.34,0.35-0.59
			C448.69,30.21,448.56,29.98,448.34,29.86z M436.87,40.25c-2.42-4.02-5.77-7.37-9.79-9.79c4.02-2.42,7.37-5.77,9.79-9.79
			c2.42,4.02,5.77,7.37,9.79,9.79C442.64,32.87,439.29,36.23,436.87,40.25z"/>
		<path class="st0" d="M436.87,24.68c-1.33,2.44-3.34,4.44-5.77,5.77c2.44,1.33,4.44,3.34,5.77,5.77c1.33-2.44,3.34-4.44,5.77-5.77
			C440.21,29.12,438.2,27.12,436.87,24.68z"/>
		<path class="st0" d="M477.55,29.86c-4.6-2.52-8.36-6.28-10.88-10.88c-0.12-0.22-0.34-0.35-0.59-0.35s-0.47,0.13-0.59,0.35
			c-2.52,4.6-6.28,8.36-10.88,10.88c-0.22,0.12-0.35,0.34-0.35,0.59s0.13,0.47,0.35,0.59c4.6,2.52,8.36,6.28,10.88,10.88
			c0.12,0.22,0.34,0.35,0.59,0.35s0.47-0.13,0.59-0.35c2.52-4.6,6.28-8.36,10.88-10.88c0.22-0.12,0.35-0.34,0.35-0.59
			C477.9,30.21,477.76,29.98,477.55,29.86z M466.08,40.25c-2.42-4.02-5.77-7.37-9.79-9.79c4.02-2.42,7.37-5.77,9.79-9.79
			c2.42,4.02,5.77,7.37,9.79,9.79C471.85,32.87,468.5,36.23,466.08,40.25z"/>
		<path class="st0" d="M466.08,24.68c-1.33,2.44-3.34,4.44-5.77,5.77c2.44,1.33,4.44,3.34,5.77,5.77c1.33-2.44,3.34-4.44,5.77-5.77
			C469.41,29.12,467.41,27.12,466.08,24.68z"/>
		<path class="st0" d="M506.76,29.86c-4.6-2.52-8.36-6.28-10.88-10.88c-0.12-0.22-0.34-0.35-0.59-0.35s-0.47,0.13-0.59,0.35
			c-2.52,4.6-6.28,8.36-10.88,10.88c-0.22,0.12-0.35,0.34-0.35,0.59s0.13,0.47,0.35,0.59c4.6,2.52,8.36,6.28,10.88,10.88
			c0.12,0.22,0.34,0.35,0.59,0.35s0.47-0.13,0.59-0.35c2.52-4.6,6.28-8.36,10.88-10.88c0.22-0.12,0.35-0.34,0.35-0.59
			C507.11,30.21,506.97,29.98,506.76,29.86z M495.29,40.25c-2.42-4.02-5.77-7.37-9.79-9.79c4.02-2.42,7.37-5.77,9.79-9.79
			c2.42,4.02,5.77,7.37,9.79,9.79C501.06,32.87,497.7,36.23,495.29,40.25z"/>
		<path class="st0" d="M495.29,24.68c-1.33,2.44-3.34,4.44-5.77,5.77c2.44,1.33,4.44,3.34,5.77,5.77c1.33-2.44,3.34-4.44,5.77-5.77
			C498.62,29.12,496.62,27.12,495.29,24.68z"/>
		<path class="st0" d="M535.96,29.86c-4.6-2.52-8.36-6.28-10.88-10.88c-0.12-0.22-0.34-0.35-0.59-0.35s-0.47,0.13-0.59,0.35
			c-2.52,4.6-6.28,8.36-10.88,10.88c-0.22,0.12-0.35,0.34-0.35,0.59s0.13,0.47,0.35,0.59c4.6,2.52,8.36,6.28,10.88,10.88
			c0.12,0.22,0.34,0.35,0.59,0.35s0.47-0.13,0.59-0.35c2.52-4.6,6.28-8.36,10.88-10.88c0.22-0.12,0.35-0.34,0.35-0.59
			C536.31,30.21,536.18,29.98,535.96,29.86z M524.49,40.25c-2.42-4.02-5.77-7.37-9.79-9.79c4.02-2.42,7.37-5.77,9.79-9.79
			c2.42,4.02,5.77,7.37,9.79,9.79C530.26,32.87,526.91,36.23,524.49,40.25z"/>
		<path class="st0" d="M524.49,24.68c-1.33,2.44-3.34,4.44-5.77,5.77c2.44,1.33,4.44,3.34,5.77,5.77c1.33-2.44,3.34-4.44,5.77-5.77
			C527.83,29.12,525.82,27.12,524.49,24.68z"/>
		<path class="st0" d="M566.58,29.86c-4.6-2.52-8.36-6.28-10.88-10.88c-0.12-0.22-0.34-0.35-0.59-0.35s-0.47,0.13-0.59,0.35
			c-2.52,4.6-6.28,8.36-10.88,10.88c-0.22,0.12-0.35,0.34-0.35,0.59s0.13,0.47,0.35,0.59c4.6,2.52,8.36,6.28,10.88,10.88
			c0.12,0.22,0.34,0.35,0.59,0.35s0.47-0.13,0.59-0.35c2.52-4.6,6.28-8.36,10.88-10.88c0.22-0.12,0.35-0.34,0.35-0.59
			C566.93,30.21,566.79,29.98,566.58,29.86z M555.11,40.25c-2.42-4.02-5.77-7.37-9.79-9.79c4.02-2.42,7.37-5.77,9.79-9.79
			c2.42,4.02,5.77,7.37,9.79,9.79C560.88,32.87,557.52,36.23,555.11,40.25z"/>
		<path class="st0" d="M555.11,24.68c-1.33,2.44-3.34,4.44-5.77,5.77c2.44,1.33,4.44,3.34,5.77,5.77c1.33-2.44,3.34-4.44,5.77-5.77
			C558.44,29.12,556.44,27.12,555.11,24.68z"/>
		<path class="st0" d="M595.45,29.86c-4.6-2.52-8.36-6.28-10.88-10.88c-0.12-0.22-0.34-0.35-0.59-0.35s-0.47,0.13-0.59,0.35
			c-2.52,4.6-6.28,8.36-10.88,10.88c-0.22,0.12-0.35,0.34-0.35,0.59s0.13,0.47,0.35,0.59c4.6,2.52,8.36,6.28,10.88,10.88
			c0.12,0.22,0.34,0.35,0.59,0.35s0.47-0.13,0.59-0.35c2.52-4.6,6.28-8.36,10.88-10.88c0.22-0.12,0.35-0.34,0.35-0.59
			C595.8,30.21,595.66,29.98,595.45,29.86z M583.98,40.25c-2.42-4.02-5.77-7.37-9.79-9.79c4.02-2.42,7.37-5.77,9.79-9.79
			c2.42,4.02,5.77,7.37,9.79,9.79C589.75,32.87,586.4,36.23,583.98,40.25z"/>
		<path class="st0" d="M583.98,24.68c-1.33,2.44-3.34,4.44-5.77,5.77c2.44,1.33,4.44,3.34,5.77,5.77c1.33-2.44,3.34-4.44,5.77-5.77
			C587.31,29.12,585.31,27.12,583.98,24.68z"/>
		<path class="st0" d="M624.65,29.86c-4.6-2.52-8.36-6.28-10.88-10.88c-0.12-0.22-0.34-0.35-0.59-0.35s-0.47,0.13-0.59,0.35
			c-2.52,4.6-6.28,8.36-10.88,10.88c-0.22,0.12-0.35,0.34-0.35,0.59s0.13,0.47,0.35,0.59c4.6,2.52,8.36,6.28,10.88,10.88
			c0.12,0.22,0.34,0.35,0.59,0.35s0.47-0.13,0.59-0.35c2.52-4.6,6.28-8.36,10.88-10.88c0.22-0.12,0.35-0.34,0.35-0.59
			C625.01,30.21,624.87,29.98,624.65,29.86z M613.18,40.25c-2.42-4.02-5.77-7.37-9.79-9.79c4.02-2.42,7.37-5.77,9.79-9.79
			c2.42,4.02,5.77,7.37,9.79,9.79C618.95,32.87,615.6,36.23,613.18,40.25z"/>
		<path class="st0" d="M613.18,24.68c-1.33,2.44-3.34,4.44-5.77,5.77c2.44,1.33,4.44,3.34,5.77,5.77c1.33-2.44,3.34-4.44,5.77-5.77
			C616.52,29.12,614.52,27.12,613.18,24.68z"/>
		<path class="st0" d="M653.86,29.86c-4.6-2.52-8.36-6.28-10.88-10.88c-0.12-0.22-0.34-0.35-0.59-0.35s-0.47,0.13-0.59,0.35
			c-2.52,4.6-6.28,8.36-10.88,10.88c-0.22,0.12-0.35,0.34-0.35,0.59s0.13,0.47,0.35,0.59c4.6,2.52,8.36,6.28,10.88,10.88
			c0.12,0.22,0.34,0.35,0.59,0.35s0.47-0.13,0.59-0.35c2.52-4.6,6.28-8.36,10.88-10.88c0.22-0.12,0.35-0.34,0.35-0.59
			C654.21,30.21,654.08,29.98,653.86,29.86z M642.39,40.25c-2.42-4.02-5.77-7.37-9.79-9.79c4.02-2.42,7.37-5.77,9.79-9.79
			c2.42,4.02,5.77,7.37,9.79,9.79C648.16,32.87,644.81,36.23,642.39,40.25z"/>
		<path class="st0" d="M642.39,24.68c-1.33,2.44-3.34,4.44-5.77,5.77c2.44,1.33,4.44,3.34,5.77,5.77c1.33-2.44,3.34-4.44,5.77-5.77
			C645.73,29.12,643.72,27.12,642.39,24.68z"/>
		<path class="st0" d="M683.07,29.86c-4.6-2.52-8.36-6.28-10.88-10.88c-0.12-0.22-0.34-0.35-0.59-0.35s-0.47,0.13-0.59,0.35
			c-2.52,4.6-6.28,8.36-10.88,10.88c-0.22,0.12-0.35,0.34-0.35,0.59s0.13,0.47,0.35,0.59c4.6,2.52,8.36,6.28,10.88,10.88
			c0.12,0.22,0.34,0.35,0.59,0.35s0.47-0.13,0.59-0.35c2.52-4.6,6.28-8.36,10.88-10.88c0.22-0.12,0.35-0.34,0.35-0.59
			C683.42,30.21,683.28,29.98,683.07,29.86z M671.6,40.25c-2.42-4.02-5.77-7.37-9.79-9.79c4.02-2.42,7.37-5.77,9.79-9.79
			c2.42,4.02,5.77,7.37,9.79,9.79C677.37,32.87,674.02,36.23,671.6,40.25z"/>
		<path class="st0" d="M671.6,24.68c-1.33,2.44-3.34,4.44-5.77,5.77c2.44,1.33,4.44,3.34,5.77,5.77c1.33-2.44,3.34-4.44,5.77-5.77
			C674.93,29.12,672.93,27.12,671.6,24.68z"/>
		<path class="st0" d="M126.34,29.86c-4.6-2.52-8.36-6.28-10.88-10.88c-0.12-0.22-0.34-0.35-0.59-0.35s-0.47,0.13-0.59,0.35
			c-2.52,4.6-6.28,8.36-10.88,10.88c-0.22,0.12-0.35,0.34-0.35,0.59s0.13,0.47,0.35,0.59c4.6,2.52,8.36,6.28,10.88,10.88
			c0.12,0.22,0.34,0.35,0.59,0.35s0.47-0.13,0.59-0.35c2.52-4.6,6.28-8.36,10.88-10.88c0.22-0.12,0.35-0.34,0.35-0.59
			C126.69,30.21,126.56,29.98,126.34,29.86z M114.87,40.25c-2.42-4.02-5.77-7.37-9.79-9.79c4.02-2.42,7.37-5.77,9.79-9.79
			c2.42,4.02,5.77,7.37,9.79,9.79C120.64,32.87,117.29,36.23,114.87,40.25z"/>
		<path class="st0" d="M114.87,24.68c-1.33,2.44-3.34,4.44-5.77,5.77c2.44,1.33,4.44,3.34,5.77,5.77c1.33-2.44,3.34-4.44,5.77-5.77
			C118.21,29.12,116.21,27.12,114.87,24.68z"/>
		<path class="st0" d="M155.21,29.86c-4.6-2.52-8.36-6.28-10.88-10.88c-0.12-0.22-0.34-0.35-0.59-0.35s-0.47,0.13-0.59,0.35
			c-2.52,4.6-6.28,8.36-10.88,10.88c-0.22,0.12-0.35,0.34-0.35,0.59s0.13,0.47,0.35,0.59c4.6,2.52,8.36,6.28,10.88,10.88
			c0.12,0.22,0.34,0.35,0.59,0.35s0.47-0.13,0.59-0.35c2.52-4.6,6.28-8.36,10.88-10.88c0.22-0.12,0.35-0.34,0.35-0.59
			C155.56,30.21,155.43,29.98,155.21,29.86z M143.74,40.25c-2.42-4.02-5.77-7.37-9.79-9.79c4.02-2.42,7.37-5.77,9.79-9.79
			c2.42,4.02,5.77,7.37,9.79,9.79C149.51,32.87,146.16,36.23,143.74,40.25z"/>
		<path class="st0" d="M143.74,24.68c-1.33,2.44-3.34,4.44-5.77,5.77c2.44,1.33,4.44,3.34,5.77,5.77c1.33-2.44,3.34-4.44,5.77-5.77
			C147.08,29.12,145.08,27.12,143.74,24.68z"/>
		<path class="st0" d="M184.42,29.86c-4.6-2.52-8.36-6.28-10.88-10.88c-0.12-0.22-0.34-0.35-0.59-0.35s-0.47,0.13-0.59,0.35
			c-2.52,4.6-6.28,8.36-10.88,10.88c-0.22,0.12-0.35,0.34-0.35,0.59s0.13,0.47,0.35,0.59c4.6,2.52,8.36,6.28,10.88,10.88
			c0.12,0.22,0.34,0.35,0.59,0.35s0.47-0.13,0.59-0.35c2.52-4.6,6.28-8.36,10.88-10.88c0.22-0.12,0.35-0.34,0.35-0.59
			C184.77,30.21,184.64,29.98,184.42,29.86z M172.95,40.25c-2.42-4.02-5.77-7.37-9.79-9.79c4.02-2.42,7.37-5.77,9.79-9.79
			c2.42,4.02,5.77,7.37,9.79,9.79C178.72,32.87,175.37,36.23,172.95,40.25z"/>
		<path class="st0" d="M172.95,24.68c-1.33,2.44-3.34,4.44-5.77,5.77c2.44,1.33,4.44,3.34,5.77,5.77c1.33-2.44,3.34-4.44,5.77-5.77
			C176.29,29.12,174.28,27.12,172.95,24.68z"/>
		<path class="st0" d="M213.63,29.86c-4.6-2.52-8.36-6.28-10.88-10.88c-0.12-0.22-0.34-0.35-0.59-0.35s-0.47,0.13-0.59,0.35
			c-2.52,4.6-6.28,8.36-10.88,10.88c-0.22,0.12-0.35,0.34-0.35,0.59s0.13,0.47,0.35,0.59c4.6,2.52,8.36,6.28,10.88,10.88
			c0.12,0.22,0.34,0.35,0.59,0.35s0.47-0.13,0.59-0.35c2.52-4.6,6.28-8.36,10.88-10.88c0.22-0.12,0.35-0.34,0.35-0.59
			C213.98,30.21,213.84,29.98,213.63,29.86z M202.16,40.25c-2.42-4.02-5.77-7.37-9.79-9.79c4.02-2.42,7.37-5.77,9.79-9.79
			c2.42,4.02,5.77,7.37,9.79,9.79C207.93,32.87,204.58,36.23,202.16,40.25z"/>
		<path class="st0" d="M202.16,24.68c-1.33,2.44-3.34,4.44-5.77,5.77c2.44,1.33,4.44,3.34,5.77,5.77c1.33-2.44,3.34-4.44,5.77-5.77
			C205.49,29.12,203.49,27.12,202.16,24.68z"/>
		<path class="st0" d="M242.83,29.86c-4.6-2.52-8.36-6.28-10.88-10.88c-0.12-0.22-0.34-0.35-0.59-0.35s-0.47,0.13-0.59,0.35
			c-2.52,4.6-6.28,8.36-10.88,10.88c-0.22,0.12-0.35,0.34-0.35,0.59s0.13,0.47,0.35,0.59c4.6,2.52,8.36,6.28,10.88,10.88
			c0.12,0.22,0.34,0.35,0.59,0.35s0.47-0.13,0.59-0.35c2.52-4.6,6.28-8.36,10.88-10.88c0.22-0.12,0.35-0.34,0.35-0.59
			C243.18,30.21,243.05,29.98,242.83,29.86z M231.36,40.25c-2.42-4.02-5.77-7.37-9.79-9.79c4.02-2.42,7.37-5.77,9.79-9.79
			c2.42,4.02,5.77,7.37,9.79,9.79C237.13,32.87,233.78,36.23,231.36,40.25z"/>
		<path class="st0" d="M231.36,24.68c-1.33,2.44-3.34,4.44-5.77,5.77c2.44,1.33,4.44,3.34,5.77,5.77c1.33-2.44,3.34-4.44,5.77-5.77
			C234.7,29.12,232.7,27.12,231.36,24.68z"/>
		<path class="st0" d="M273.45,29.86c-4.6-2.52-8.36-6.28-10.88-10.88c-0.12-0.22-0.34-0.35-0.59-0.35s-0.47,0.13-0.59,0.35
			c-2.52,4.6-6.28,8.36-10.88,10.88c-0.22,0.12-0.35,0.34-0.35,0.59s0.13,0.47,0.35,0.59c4.6,2.52,8.36,6.28,10.88,10.88
			c0.12,0.22,0.34,0.35,0.59,0.35s0.47-0.13,0.59-0.35c2.52-4.6,6.28-8.36,10.88-10.88c0.22-0.12,0.35-0.34,0.35-0.59
			C273.8,30.21,273.66,29.98,273.45,29.86z M261.98,40.25c-2.42-4.02-5.77-7.37-9.79-9.79c4.02-2.42,7.37-5.77,9.79-9.79
			c2.42,4.02,5.77,7.37,9.79,9.79C267.75,32.87,264.4,36.23,261.98,40.25z"/>
		<path class="st0" d="M261.98,24.68c-1.33,2.44-3.34,4.44-5.77,5.77c2.44,1.33,4.44,3.34,5.77,5.77c1.33-2.44,3.34-4.44,5.77-5.77
			C265.31,29.12,263.31,27.12,261.98,24.68z"/>
		<path class="st0" d="M302.32,29.86c-4.6-2.52-8.36-6.28-10.88-10.88c-0.12-0.22-0.34-0.35-0.59-0.35s-0.47,0.13-0.59,0.35
			c-2.52,4.6-6.28,8.36-10.88,10.88c-0.22,0.12-0.35,0.34-0.35,0.59s0.13,0.47,0.35,0.59c4.6,2.52,8.36,6.28,10.88,10.88
			c0.12,0.22,0.34,0.35,0.59,0.35s0.47-0.13,0.59-0.35c2.52-4.6,6.28-8.36,10.88-10.88c0.22-0.12,0.35-0.34,0.35-0.59
			C302.67,30.21,302.54,29.98,302.32,29.86z M290.85,40.25c-2.42-4.02-5.77-7.37-9.79-9.79c4.02-2.42,7.37-5.77,9.79-9.79
			c2.42,4.02,5.77,7.37,9.79,9.79C296.62,32.87,293.27,36.23,290.85,40.25z"/>
		<path class="st0" d="M290.85,24.68c-1.33,2.44-3.34,4.44-5.77,5.77c2.44,1.33,4.44,3.34,5.77,5.77c1.33-2.44,3.34-4.44,5.77-5.77
			C294.19,29.12,292.18,27.12,290.85,24.68z"/>
		<path class="st0" d="M331.53,29.86c-4.6-2.52-8.36-6.28-10.88-10.88c-0.12-0.22-0.34-0.35-0.59-0.35s-0.47,0.13-0.59,0.35
			c-2.52,4.6-6.28,8.36-10.88,10.88c-0.22,0.12-0.35,0.34-0.35,0.59s0.13,0.47,0.35,0.59c4.6,2.52,8.36,6.28,10.88,10.88
			c0.12,0.22,0.34,0.35,0.59,0.35s0.47-0.13,0.59-0.35c2.52-4.6,6.28-8.36,10.88-10.88c0.22-0.12,0.35-0.34,0.35-0.59
			C331.88,30.21,331.74,29.98,331.53,29.86z M320.06,40.25c-2.42-4.02-5.77-7.37-9.79-9.79c4.02-2.42,7.37-5.77,9.79-9.79
			c2.42,4.02,5.77,7.37,9.79,9.79C325.83,32.87,322.47,36.23,320.06,40.25z"/>
		<path class="st0" d="M320.06,24.68c-1.33,2.44-3.34,4.44-5.77,5.77c2.44,1.33,4.44,3.34,5.77,5.77c1.33-2.44,3.34-4.44,5.77-5.77
			C323.39,29.12,321.39,27.12,320.06,24.68z"/>
		<path class="st0" d="M360.73,29.86c-4.6-2.52-8.36-6.28-10.88-10.88c-0.12-0.22-0.34-0.35-0.59-0.35s-0.47,0.13-0.59,0.35
			c-2.52,4.6-6.28,8.36-10.88,10.88c-0.22,0.12-0.35,0.34-0.35,0.59s0.13,0.47,0.35,0.59c4.6,2.52,8.36,6.28,10.88,10.88
			c0.12,0.22,0.34,0.35,0.59,0.35s0.47-0.13,0.59-0.35c2.52-4.6,6.28-8.36,10.88-10.88c0.22-0.12,0.35-0.34,0.35-0.59
			C361.08,30.21,360.95,29.98,360.73,29.86z M349.26,40.25c-2.42-4.02-5.77-7.37-9.79-9.79c4.02-2.42,7.37-5.77,9.79-9.79
			c2.42,4.02,5.77,7.37,9.79,9.79C355.03,32.87,351.68,36.23,349.26,40.25z"/>
		<path class="st0" d="M349.26,24.68c-1.33,2.44-3.34,4.44-5.77,5.77c2.44,1.33,4.44,3.34,5.77,5.77c1.33-2.44,3.34-4.44,5.77-5.77
			C352.6,29.12,350.6,27.12,349.26,24.68z"/>
		<path class="st0" d="M389.94,29.86c-4.6-2.52-8.36-6.28-10.88-10.88c-0.12-0.22-0.34-0.35-0.59-0.35s-0.47,0.13-0.59,0.35
			c-2.52,4.6-6.28,8.36-10.88,10.88c-0.22,0.12-0.35,0.34-0.35,0.59s0.13,0.47,0.35,0.59c4.6,2.52,8.36,6.28,10.88,10.88
			c0.12,0.22,0.34,0.35,0.59,0.35s0.47-0.13,0.59-0.35c2.52-4.6,6.28-8.36,10.88-10.88c0.22-0.12,0.35-0.34,0.35-0.59
			C390.29,30.21,390.16,29.98,389.94,29.86z M378.47,40.25c-2.42-4.02-5.77-7.37-9.79-9.79c4.02-2.42,7.37-5.77,9.79-9.79
			c2.42,4.02,5.77,7.37,9.79,9.79C384.24,32.87,380.89,36.23,378.47,40.25z"/>
		<path class="st0" d="M378.47,24.68c-1.33,2.44-3.34,4.44-5.77,5.77c2.44,1.33,4.44,3.34,5.77,5.77c1.33-2.44,3.34-4.44,5.77-5.77
			C381.81,29.12,379.8,27.12,378.47,24.68z"/>
	</g>
	<g>
		<path class="st0" d="M138.75,16.44c-4.02,2.41-7.38,5.76-9.79,9.79c-2.42-4.02-5.77-7.37-9.79-9.79c0.01,0,0.01-0.01,0.02-0.01
			h-2.05c0,0.25,0.13,0.47,0.35,0.59c4.6,2.52,8.36,6.28,10.88,10.88c0.12,0.22,0.34,0.35,0.59,0.35s0.47-0.13,0.59-0.35
			c2.52-4.6,6.28-8.36,10.88-10.88c0.22-0.12,0.35-0.34,0.35-0.59h-2.05C138.74,16.43,138.74,16.44,138.75,16.44z"/>
		<path class="st0" d="M168.13,16.44c-4.02,2.41-7.38,5.76-9.79,9.79c-2.42-4.02-5.77-7.37-9.79-9.79c0.01,0,0.01-0.01,0.02-0.01
			h-2.05c0,0.25,0.13,0.47,0.35,0.59c4.6,2.52,8.36,6.28,10.88,10.88c0.12,0.22,0.34,0.35,0.59,0.35s0.47-0.13,0.59-0.35
			c2.52-4.6,6.28-8.36,10.88-10.88c0.22-0.12,0.35-0.34,0.35-0.59h-2.05C168.12,16.43,168.12,16.44,168.13,16.44z"/>
		<path class="st0" d="M197.51,16.44c-4.02,2.41-7.38,5.76-9.79,9.79c-2.42-4.02-5.77-7.37-9.79-9.79c0.01,0,0.01-0.01,0.02-0.01
			h-2.05c0,0.25,0.13,0.47,0.35,0.59c4.6,2.52,8.36,6.28,10.88,10.88c0.12,0.22,0.34,0.35,0.59,0.35s0.47-0.13,0.59-0.35
			c2.52-4.6,6.28-8.36,10.88-10.88c0.22-0.12,0.35-0.34,0.35-0.59h-2.05C197.5,16.43,197.5,16.44,197.51,16.44z"/>
		<path class="st0" d="M226.89,16.44c-4.02,2.41-7.38,5.76-9.79,9.79c-2.42-4.02-5.77-7.37-9.79-9.79c0.01,0,0.01-0.01,0.02-0.01
			h-2.05c0,0.25,0.13,0.47,0.35,0.59c4.6,2.52,8.36,6.28,10.88,10.88c0.12,0.22,0.34,0.35,0.59,0.35s0.47-0.13,0.59-0.35
			c2.52-4.6,6.28-8.36,10.88-10.88c0.22-0.12,0.35-0.34,0.35-0.59h-2.05C226.88,16.43,226.88,16.44,226.89,16.44z"/>
		<path class="st0" d="M256.27,16.44c-4.02,2.41-7.38,5.76-9.79,9.79c-2.42-4.02-5.77-7.37-9.79-9.79c0.01,0,0.01-0.01,0.02-0.01
			h-2.05c0,0.25,0.13,0.47,0.35,0.59c4.6,2.52,8.36,6.28,10.88,10.88c0.12,0.22,0.34,0.35,0.59,0.35s0.47-0.13,0.59-0.35
			c2.52-4.6,6.28-8.36,10.88-10.88c0.22-0.12,0.35-0.34,0.35-0.59h-2.05C256.26,16.43,256.26,16.44,256.27,16.44z"/>
		<path class="st0" d="M285.65,16.44c-4.02,2.41-7.38,5.76-9.79,9.79c-2.42-4.02-5.77-7.37-9.79-9.79c0.01,0,0.01-0.01,0.02-0.01
			h-2.05c0,0.25,0.13,0.47,0.35,0.59c4.6,2.52,8.36,6.28,10.88,10.88c0.12,0.22,0.34,0.35,0.59,0.35s0.47-0.13,0.59-0.35
			c2.52-4.6,6.28-8.36,10.88-10.88c0.22-0.12,0.35-0.34,0.35-0.59h-2.05C285.64,16.43,285.64,16.44,285.65,16.44z"/>
		<path class="st0" d="M315.03,16.44c-4.02,2.41-7.38,5.76-9.79,9.79c-2.42-4.02-5.77-7.37-9.79-9.79c0.01,0,0.01-0.01,0.02-0.01
			h-2.05c0,0.25,0.13,0.47,0.35,0.59c4.6,2.52,8.36,6.28,10.88,10.88c0.12,0.22,0.34,0.35,0.59,0.35s0.47-0.13,0.59-0.35
			c2.52-4.6,6.28-8.36,10.88-10.88c0.22-0.12,0.35-0.34,0.35-0.59h-2.05C315.02,16.43,315.02,16.44,315.03,16.44z"/>
		<path class="st0" d="M344.41,16.44c-4.02,2.41-7.38,5.76-9.79,9.79c-2.42-4.02-5.77-7.37-9.79-9.79c0.01,0,0.01-0.01,0.02-0.01
			h-2.05c0,0.25,0.13,0.47,0.35,0.59c4.6,2.52,8.36,6.28,10.88,10.88c0.12,0.22,0.34,0.35,0.59,0.35s0.47-0.13,0.59-0.35
			c2.52-4.6,6.28-8.36,10.88-10.88c0.22-0.12,0.35-0.34,0.35-0.59h-2.05C344.4,16.43,344.4,16.44,344.41,16.44z"/>
		<path class="st0" d="M373.79,16.44c-4.02,2.41-7.38,5.76-9.79,9.79c-2.42-4.02-5.77-7.37-9.79-9.79c0.01,0,0.01-0.01,0.02-0.01
			h-2.05c0,0.25,0.13,0.47,0.35,0.59c4.6,2.52,8.36,6.28,10.88,10.88c0.12,0.22,0.34,0.35,0.59,0.35s0.47-0.13,0.59-0.35
			c2.52-4.6,6.28-8.36,10.88-10.88c0.22-0.12,0.35-0.34,0.35-0.59h-2.05C373.78,16.43,373.78,16.44,373.79,16.44z"/>
		<path class="st0" d="M403.17,16.44c-4.02,2.41-7.38,5.76-9.79,9.79c-2.42-4.02-5.77-7.37-9.79-9.79c0.01,0,0.01-0.01,0.02-0.01
			h-2.05c0,0.25,0.13,0.47,0.35,0.59c4.6,2.52,8.36,6.28,10.88,10.88c0.12,0.22,0.34,0.35,0.59,0.35s0.47-0.13,0.59-0.35
			c2.52-4.6,6.28-8.36,10.88-10.88c0.22-0.12,0.35-0.34,0.35-0.59h-2.05C403.16,16.43,403.16,16.44,403.17,16.44z"/>
		<path class="st0" d="M431.88,16.44c-4.02,2.41-7.38,5.76-9.79,9.79c-2.42-4.02-5.77-7.37-9.79-9.79c0.01,0,0.01-0.01,0.02-0.01
			h-2.05c0,0.25,0.13,0.47,0.35,0.59c4.6,2.52,8.36,6.28,10.88,10.88c0.12,0.22,0.34,0.35,0.59,0.35s0.47-0.13,0.59-0.35
			c2.52-4.6,6.28-8.36,10.88-10.88c0.22-0.12,0.35-0.34,0.35-0.59h-2.05C431.87,16.43,431.87,16.44,431.88,16.44z"/>
		<path class="st0" d="M461.26,16.44c-4.02,2.41-7.38,5.76-9.79,9.79c-2.42-4.02-5.77-7.37-9.79-9.79c0.01,0,0.01-0.01,0.02-0.01
			h-2.05c0,0.25,0.13,0.47,0.35,0.59c4.6,2.52,8.36,6.28,10.88,10.88c0.12,0.22,0.34,0.35,0.59,0.35s0.47-0.13,0.59-0.35
			c2.52-4.6,6.28-8.36,10.88-10.88c0.22-0.12,0.35-0.34,0.35-0.59h-2.05C461.25,16.43,461.25,16.44,461.26,16.44z"/>
		<path class="st0" d="M490.64,16.44c-4.02,2.41-7.38,5.76-9.79,9.79c-2.42-4.02-5.77-7.37-9.79-9.79c0.01,0,0.01-0.01,0.02-0.01
			h-2.05c0,0.25,0.13,0.47,0.35,0.59c4.6,2.52,8.36,6.28,10.88,10.88c0.12,0.22,0.34,0.35,0.59,0.35s0.47-0.13,0.59-0.35
			c2.52-4.6,6.28-8.36,10.88-10.88c0.22-0.12,0.35-0.34,0.35-0.59h-2.05C490.63,16.43,490.63,16.44,490.64,16.44z"/>
		<path class="st0" d="M520.02,16.44c-4.02,2.41-7.38,5.76-9.79,9.79c-2.42-4.02-5.77-7.37-9.79-9.79c0.01,0,0.01-0.01,0.02-0.01
			h-2.05c0,0.25,0.13,0.47,0.35,0.59c4.6,2.52,8.36,6.28,10.88,10.88c0.12,0.22,0.34,0.35,0.59,0.35s0.47-0.13,0.59-0.35
			c2.52-4.6,6.28-8.36,10.88-10.88c0.22-0.12,0.35-0.34,0.35-0.59H520C520.01,16.43,520.01,16.44,520.02,16.44z"/>
		<path class="st0" d="M549.4,16.44c-4.02,2.41-7.38,5.76-9.79,9.79c-2.42-4.02-5.77-7.37-9.79-9.79c0.01,0,0.01-0.01,0.02-0.01
			h-2.05c0,0.25,0.13,0.47,0.35,0.59c4.6,2.52,8.36,6.28,10.88,10.88c0.12,0.22,0.34,0.35,0.59,0.35s0.47-0.13,0.59-0.35
			c2.52-4.6,6.28-8.36,10.88-10.88c0.22-0.12,0.35-0.34,0.35-0.59h-2.05C549.39,16.43,549.39,16.44,549.4,16.44z"/>
		<path class="st0" d="M578.78,16.44c-4.02,2.41-7.38,5.76-9.79,9.79c-2.42-4.02-5.77-7.37-9.79-9.79c0.01,0,0.01-0.01,0.02-0.01
			h-2.05c0,0.25,0.13,0.47,0.35,0.59c4.6,2.52,8.36,6.28,10.88,10.88c0.12,0.22,0.34,0.35,0.59,0.35s0.47-0.13,0.59-0.35
			c2.52-4.6,6.28-8.36,10.88-10.88c0.22-0.12,0.35-0.34,0.35-0.59h-2.05C578.77,16.43,578.77,16.44,578.78,16.44z"/>
		<path class="st0" d="M608.16,16.44c-4.02,2.41-7.38,5.76-9.79,9.79c-2.42-4.02-5.77-7.37-9.79-9.79c0.01,0,0.01-0.01,0.02-0.01
			h-2.05c0,0.25,0.13,0.47,0.35,0.59c4.6,2.52,8.36,6.28,10.88,10.88c0.12,0.22,0.34,0.35,0.59,0.35s0.47-0.13,0.59-0.35
			c2.52-4.6,6.28-8.36,10.88-10.88c0.22-0.12,0.35-0.34,0.35-0.59h-2.05C608.15,16.43,608.15,16.44,608.16,16.44z"/>
		<path class="st0" d="M637.54,16.44c-4.02,2.41-7.38,5.76-9.79,9.79c-2.42-4.02-5.77-7.37-9.79-9.79c0.01,0,0.01-0.01,0.02-0.01
			h-2.05c0,0.25,0.13,0.47,0.35,0.59c4.6,2.52,8.36,6.28,10.88,10.88c0.12,0.22,0.34,0.35,0.59,0.35s0.47-0.13,0.59-0.35
			c2.52-4.6,6.28-8.36,10.88-10.88c0.22-0.12,0.35-0.34,0.35-0.59h-2.05C637.53,16.43,637.53,16.44,637.54,16.44z"/>
		<path class="st0" d="M666.92,16.44c-4.02,2.41-7.38,5.76-9.79,9.79c-2.42-4.02-5.77-7.37-9.79-9.79c0.01,0,0.01-0.01,0.02-0.01
			h-2.05c0,0.25,0.13,0.47,0.35,0.59c4.6,2.52,8.36,6.28,10.88,10.88c0.12,0.22,0.34,0.35,0.59,0.35s0.47-0.13,0.59-0.35
			c2.52-4.6,6.28-8.36,10.88-10.88c0.22-0.12,0.35-0.34,0.35-0.59h-2.05C666.91,16.43,666.91,16.44,666.92,16.44z"/>
	</g>
	<g>
		<path class="st0" d="M138.75,36.37c-4.02,2.41-7.38,5.76-9.79,9.79c-2.42-4.02-5.77-7.37-9.79-9.79c0.01,0,0.01-0.01,0.02-0.01
			h-2.05c0,0.25,0.13,0.47,0.35,0.59c4.6,2.52,8.36,6.28,10.88,10.88c0.12,0.22,0.34,0.35,0.59,0.35s0.47-0.13,0.59-0.35
			c2.52-4.6,6.28-8.36,10.88-10.88c0.22-0.12,0.35-0.34,0.35-0.59h-2.05C138.74,36.36,138.74,36.37,138.75,36.37z"/>
		<path class="st0" d="M168.13,36.37c-4.02,2.41-7.38,5.76-9.79,9.79c-2.42-4.02-5.77-7.37-9.79-9.79c0.01,0,0.01-0.01,0.02-0.01
			h-2.05c0,0.25,0.13,0.47,0.35,0.59c4.6,2.52,8.36,6.28,10.88,10.88c0.12,0.22,0.34,0.35,0.59,0.35s0.47-0.13,0.59-0.35
			c2.52-4.6,6.28-8.36,10.88-10.88c0.22-0.12,0.35-0.34,0.35-0.59h-2.05C168.12,36.36,168.12,36.37,168.13,36.37z"/>
		<path class="st0" d="M197.51,36.37c-4.02,2.41-7.38,5.76-9.79,9.79c-2.42-4.02-5.77-7.37-9.79-9.79c0.01,0,0.01-0.01,0.02-0.01
			h-2.05c0,0.25,0.13,0.47,0.35,0.59c4.6,2.52,8.36,6.28,10.88,10.88c0.12,0.22,0.34,0.35,0.59,0.35s0.47-0.13,0.59-0.35
			c2.52-4.6,6.28-8.36,10.88-10.88c0.22-0.12,0.35-0.34,0.35-0.59h-2.05C197.5,36.36,197.5,36.37,197.51,36.37z"/>
		<path class="st0" d="M226.89,36.37c-4.02,2.41-7.38,5.76-9.79,9.79c-2.42-4.02-5.77-7.37-9.79-9.79c0.01,0,0.01-0.01,0.02-0.01
			h-2.05c0,0.25,0.13,0.47,0.35,0.59c4.6,2.52,8.36,6.28,10.88,10.88c0.12,0.22,0.34,0.35,0.59,0.35s0.47-0.13,0.59-0.35
			c2.52-4.6,6.28-8.36,10.88-10.88c0.22-0.12,0.35-0.34,0.35-0.59h-2.05C226.88,36.36,226.88,36.37,226.89,36.37z"/>
		<path class="st0" d="M256.27,36.37c-4.02,2.41-7.38,5.76-9.79,9.79c-2.42-4.02-5.77-7.37-9.79-9.79c0.01,0,0.01-0.01,0.02-0.01
			h-2.05c0,0.25,0.13,0.47,0.35,0.59c4.6,2.52,8.36,6.28,10.88,10.88c0.12,0.22,0.34,0.35,0.59,0.35s0.47-0.13,0.59-0.35
			c2.52-4.6,6.28-8.36,10.88-10.88c0.22-0.12,0.35-0.34,0.35-0.59h-2.05C256.26,36.36,256.26,36.37,256.27,36.37z"/>
		<path class="st0" d="M285.65,36.37c-4.02,2.41-7.38,5.76-9.79,9.79c-2.42-4.02-5.77-7.37-9.79-9.79c0.01,0,0.01-0.01,0.02-0.01
			h-2.05c0,0.25,0.13,0.47,0.35,0.59c4.6,2.52,8.36,6.28,10.88,10.88c0.12,0.22,0.34,0.35,0.59,0.35s0.47-0.13,0.59-0.35
			c2.52-4.6,6.28-8.36,10.88-10.88c0.22-0.12,0.35-0.34,0.35-0.59h-2.05C285.64,36.36,285.64,36.37,285.65,36.37z"/>
		<path class="st0" d="M315.03,36.37c-4.02,2.41-7.38,5.76-9.79,9.79c-2.42-4.02-5.77-7.37-9.79-9.79c0.01,0,0.01-0.01,0.02-0.01
			h-2.05c0,0.25,0.13,0.47,0.35,0.59c4.6,2.52,8.36,6.28,10.88,10.88c0.12,0.22,0.34,0.35,0.59,0.35s0.47-0.13,0.59-0.35
			c2.52-4.6,6.28-8.36,10.88-10.88c0.22-0.12,0.35-0.34,0.35-0.59h-2.05C315.02,36.36,315.02,36.37,315.03,36.37z"/>
		<path class="st0" d="M344.41,36.37c-4.02,2.41-7.38,5.76-9.79,9.79c-2.42-4.02-5.77-7.37-9.79-9.79c0.01,0,0.01-0.01,0.02-0.01
			h-2.05c0,0.25,0.13,0.47,0.35,0.59c4.6,2.52,8.36,6.28,10.88,10.88c0.12,0.22,0.34,0.35,0.59,0.35s0.47-0.13,0.59-0.35
			c2.52-4.6,6.28-8.36,10.88-10.88c0.22-0.12,0.35-0.34,0.35-0.59h-2.05C344.4,36.36,344.4,36.37,344.41,36.37z"/>
		<path class="st0" d="M373.79,36.37c-4.02,2.41-7.38,5.76-9.79,9.79c-2.42-4.02-5.77-7.37-9.79-9.79c0.01,0,0.01-0.01,0.02-0.01
			h-2.05c0,0.25,0.13,0.47,0.35,0.59c4.6,2.52,8.36,6.28,10.88,10.88c0.12,0.22,0.34,0.35,0.59,0.35s0.47-0.13,0.59-0.35
			c2.52-4.6,6.28-8.36,10.88-10.88c0.22-0.12,0.35-0.34,0.35-0.59h-2.05C373.78,36.36,373.78,36.37,373.79,36.37z"/>
		<path class="st0" d="M403.17,36.37c-4.02,2.41-7.38,5.76-9.79,9.79c-2.42-4.02-5.77-7.37-9.79-9.79c0.01,0,0.01-0.01,0.02-0.01
			h-2.05c0,0.25,0.13,0.47,0.35,0.59c4.6,2.52,8.36,6.28,10.88,10.88c0.12,0.22,0.34,0.35,0.59,0.35s0.47-0.13,0.59-0.35
			c2.52-4.6,6.28-8.36,10.88-10.88c0.22-0.12,0.35-0.34,0.35-0.59h-2.05C403.16,36.36,403.16,36.37,403.17,36.37z"/>
		<path class="st0" d="M431.88,36.37c-4.02,2.41-7.38,5.76-9.79,9.79c-2.42-4.02-5.77-7.37-9.79-9.79c0.01,0,0.01-0.01,0.02-0.01
			h-2.05c0,0.25,0.13,0.47,0.35,0.59c4.6,2.52,8.36,6.28,10.88,10.88c0.12,0.22,0.34,0.35,0.59,0.35s0.47-0.13,0.59-0.35
			c2.52-4.6,6.28-8.36,10.88-10.88c0.22-0.12,0.35-0.34,0.35-0.59h-2.05C431.87,36.36,431.87,36.37,431.88,36.37z"/>
		<path class="st0" d="M461.26,36.37c-4.02,2.41-7.38,5.76-9.79,9.79c-2.42-4.02-5.77-7.37-9.79-9.79c0.01,0,0.01-0.01,0.02-0.01
			h-2.05c0,0.25,0.13,0.47,0.35,0.59c4.6,2.52,8.36,6.28,10.88,10.88c0.12,0.22,0.34,0.35,0.59,0.35s0.47-0.13,0.59-0.35
			c2.52-4.6,6.28-8.36,10.88-10.88c0.22-0.12,0.35-0.34,0.35-0.59h-2.05C461.25,36.36,461.25,36.37,461.26,36.37z"/>
		<path class="st0" d="M490.64,36.37c-4.02,2.41-7.38,5.76-9.79,9.79c-2.42-4.02-5.77-7.37-9.79-9.79c0.01,0,0.01-0.01,0.02-0.01
			h-2.05c0,0.25,0.13,0.47,0.35,0.59c4.6,2.52,8.36,6.28,10.88,10.88c0.12,0.22,0.34,0.35,0.59,0.35s0.47-0.13,0.59-0.35
			c2.52-4.6,6.28-8.36,10.88-10.88c0.22-0.12,0.35-0.34,0.35-0.59h-2.05C490.63,36.36,490.63,36.37,490.64,36.37z"/>
		<path class="st0" d="M520.02,36.37c-4.02,2.41-7.38,5.76-9.79,9.79c-2.42-4.02-5.77-7.37-9.79-9.79c0.01,0,0.01-0.01,0.02-0.01
			h-2.05c0,0.25,0.13,0.47,0.35,0.59c4.6,2.52,8.36,6.28,10.88,10.88c0.12,0.22,0.34,0.35,0.59,0.35s0.47-0.13,0.59-0.35
			c2.52-4.6,6.28-8.36,10.88-10.88c0.22-0.12,0.35-0.34,0.35-0.59H520C520.01,36.36,520.01,36.37,520.02,36.37z"/>
		<path class="st0" d="M549.4,36.37c-4.02,2.41-7.38,5.76-9.79,9.79c-2.42-4.02-5.77-7.37-9.79-9.79c0.01,0,0.01-0.01,0.02-0.01
			h-2.05c0,0.25,0.13,0.47,0.35,0.59c4.6,2.52,8.36,6.28,10.88,10.88c0.12,0.22,0.34,0.35,0.59,0.35s0.47-0.13,0.59-0.35
			c2.52-4.6,6.28-8.36,10.88-10.88c0.22-0.12,0.35-0.34,0.35-0.59h-2.05C549.39,36.36,549.39,36.37,549.4,36.37z"/>
		<path class="st0" d="M578.78,36.37c-4.02,2.41-7.38,5.76-9.79,9.79c-2.42-4.02-5.77-7.37-9.79-9.79c0.01,0,0.01-0.01,0.02-0.01
			h-2.05c0,0.25,0.13,0.47,0.35,0.59c4.6,2.52,8.36,6.28,10.88,10.88c0.12,0.22,0.34,0.35,0.59,0.35s0.47-0.13,0.59-0.35
			c2.52-4.6,6.28-8.36,10.88-10.88c0.22-0.12,0.35-0.34,0.35-0.59h-2.05C578.77,36.36,578.77,36.37,578.78,36.37z"/>
		<path class="st0" d="M608.16,36.37c-4.02,2.41-7.38,5.76-9.79,9.79c-2.42-4.02-5.77-7.37-9.79-9.79c0.01,0,0.01-0.01,0.02-0.01
			h-2.05c0,0.25,0.13,0.47,0.35,0.59c4.6,2.52,8.36,6.28,10.88,10.88c0.12,0.22,0.34,0.35,0.59,0.35s0.47-0.13,0.59-0.35
			c2.52-4.6,6.28-8.36,10.88-10.88c0.22-0.12,0.35-0.34,0.35-0.59h-2.05C608.15,36.36,608.15,36.37,608.16,36.37z"/>
		<path class="st0" d="M637.54,36.37c-4.02,2.41-7.38,5.76-9.79,9.79c-2.42-4.02-5.77-7.37-9.79-9.79c0.01,0,0.01-0.01,0.02-0.01
			h-2.05c0,0.25,0.13,0.47,0.35,0.59c4.6,2.52,8.36,6.28,10.88,10.88c0.12,0.22,0.34,0.35,0.59,0.35s0.47-0.13,0.59-0.35
			c2.52-4.6,6.28-8.36,10.88-10.88c0.22-0.12,0.35-0.34,0.35-0.59h-2.05C637.53,36.36,637.53,36.37,637.54,36.37z"/>
		<path class="st0" d="M666.92,36.37c-4.02,2.41-7.38,5.76-9.79,9.79c-2.42-4.02-5.77-7.37-9.79-9.79c0.01,0,0.01-0.01,0.02-0.01
			h-2.05c0,0.25,0.13,0.47,0.35,0.59c4.6,2.52,8.36,6.28,10.88,10.88c0.12,0.22,0.34,0.35,0.59,0.35s0.47-0.13,0.59-0.35
			c2.52-4.6,6.28-8.36,10.88-10.88c0.22-0.12,0.35-0.34,0.35-0.59h-2.05C666.91,36.36,666.91,36.37,666.92,36.37z"/>
	</g>
	<g>
		<path class="st0" d="M138.75,45.15c-4.02-2.41-7.38-5.76-9.79-9.79c-2.42,4.02-5.77,7.37-9.79,9.79c0.01,0,0.01,0.01,0.02,0.01
			h-2.05c0-0.25,0.13-0.47,0.35-0.59c4.6-2.52,8.36-6.28,10.88-10.88c0.12-0.22,0.34-0.35,0.59-0.35s0.47,0.13,0.59,0.35
			c2.52,4.6,6.28,8.36,10.88,10.88c0.22,0.12,0.35,0.34,0.35,0.59h-2.05C138.74,45.16,138.74,45.15,138.75,45.15z"/>
		<path class="st0" d="M168.13,45.15c-4.02-2.41-7.38-5.76-9.79-9.79c-2.42,4.02-5.77,7.37-9.79,9.79c0.01,0,0.01,0.01,0.02,0.01
			h-2.05c0-0.25,0.13-0.47,0.35-0.59c4.6-2.52,8.36-6.28,10.88-10.88c0.12-0.22,0.34-0.35,0.59-0.35s0.47,0.13,0.59,0.35
			c2.52,4.6,6.28,8.36,10.88,10.88c0.22,0.12,0.35,0.34,0.35,0.59h-2.05C168.12,45.16,168.12,45.15,168.13,45.15z"/>
		<path class="st0" d="M197.51,45.15c-4.02-2.41-7.38-5.76-9.79-9.79c-2.42,4.02-5.77,7.37-9.79,9.79c0.01,0,0.01,0.01,0.02,0.01
			h-2.05c0-0.25,0.13-0.47,0.35-0.59c4.6-2.52,8.36-6.28,10.88-10.88c0.12-0.22,0.34-0.35,0.59-0.35s0.47,0.13,0.59,0.35
			c2.52,4.6,6.28,8.36,10.88,10.88c0.22,0.12,0.35,0.34,0.35,0.59h-2.05C197.5,45.16,197.5,45.15,197.51,45.15z"/>
		<path class="st0" d="M226.89,45.15c-4.02-2.41-7.38-5.76-9.79-9.79c-2.42,4.02-5.77,7.37-9.79,9.79c0.01,0,0.01,0.01,0.02,0.01
			h-2.05c0-0.25,0.13-0.47,0.35-0.59c4.6-2.52,8.36-6.28,10.88-10.88c0.12-0.22,0.34-0.35,0.59-0.35s0.47,0.13,0.59,0.35
			c2.52,4.6,6.28,8.36,10.88,10.88c0.22,0.12,0.35,0.34,0.35,0.59h-2.05C226.88,45.16,226.88,45.15,226.89,45.15z"/>
		<path class="st0" d="M256.27,45.15c-4.02-2.41-7.38-5.76-9.79-9.79c-2.42,4.02-5.77,7.37-9.79,9.79c0.01,0,0.01,0.01,0.02,0.01
			h-2.05c0-0.25,0.13-0.47,0.35-0.59c4.6-2.52,8.36-6.28,10.88-10.88c0.12-0.22,0.34-0.35,0.59-0.35s0.47,0.13,0.59,0.35
			c2.52,4.6,6.28,8.36,10.88,10.88c0.22,0.12,0.35,0.34,0.35,0.59h-2.05C256.26,45.16,256.26,45.15,256.27,45.15z"/>
		<path class="st0" d="M285.65,45.15c-4.02-2.41-7.38-5.76-9.79-9.79c-2.42,4.02-5.77,7.37-9.79,9.79c0.01,0,0.01,0.01,0.02,0.01
			h-2.05c0-0.25,0.13-0.47,0.35-0.59c4.6-2.52,8.36-6.28,10.88-10.88c0.12-0.22,0.34-0.35,0.59-0.35s0.47,0.13,0.59,0.35
			c2.52,4.6,6.28,8.36,10.88,10.88c0.22,0.12,0.35,0.34,0.35,0.59h-2.05C285.64,45.16,285.64,45.15,285.65,45.15z"/>
		<path class="st0" d="M315.03,45.15c-4.02-2.41-7.38-5.76-9.79-9.79c-2.42,4.02-5.77,7.37-9.79,9.79c0.01,0,0.01,0.01,0.02,0.01
			h-2.05c0-0.25,0.13-0.47,0.35-0.59c4.6-2.52,8.36-6.28,10.88-10.88c0.12-0.22,0.34-0.35,0.59-0.35s0.47,0.13,0.59,0.35
			c2.52,4.6,6.28,8.36,10.88,10.88c0.22,0.12,0.35,0.34,0.35,0.59h-2.05C315.02,45.16,315.02,45.15,315.03,45.15z"/>
		<path class="st0" d="M344.41,45.15c-4.02-2.41-7.38-5.76-9.79-9.79c-2.42,4.02-5.77,7.37-9.79,9.79c0.01,0,0.01,0.01,0.02,0.01
			h-2.05c0-0.25,0.13-0.47,0.35-0.59c4.6-2.52,8.36-6.28,10.88-10.88c0.12-0.22,0.34-0.35,0.59-0.35s0.47,0.13,0.59,0.35
			c2.52,4.6,6.28,8.36,10.88,10.88c0.22,0.12,0.35,0.34,0.35,0.59h-2.05C344.4,45.16,344.4,45.15,344.41,45.15z"/>
		<path class="st0" d="M373.79,45.15c-4.02-2.41-7.38-5.76-9.79-9.79c-2.42,4.02-5.77,7.37-9.79,9.79c0.01,0,0.01,0.01,0.02,0.01
			h-2.05c0-0.25,0.13-0.47,0.35-0.59c4.6-2.52,8.36-6.28,10.88-10.88c0.12-0.22,0.34-0.35,0.59-0.35s0.47,0.13,0.59,0.35
			c2.52,4.6,6.28,8.36,10.88,10.88c0.22,0.12,0.35,0.34,0.35,0.59h-2.05C373.78,45.16,373.78,45.15,373.79,45.15z"/>
		<path class="st0" d="M403.17,45.15c-4.02-2.41-7.38-5.76-9.79-9.79c-2.42,4.02-5.77,7.37-9.79,9.79c0.01,0,0.01,0.01,0.02,0.01
			h-2.05c0-0.25,0.13-0.47,0.35-0.59c4.6-2.52,8.36-6.28,10.88-10.88c0.12-0.22,0.34-0.35,0.59-0.35s0.47,0.13,0.59,0.35
			c2.52,4.6,6.28,8.36,10.88,10.88c0.22,0.12,0.35,0.34,0.35,0.59h-2.05C403.16,45.16,403.16,45.15,403.17,45.15z"/>
		<path class="st0" d="M431.88,45.15c-4.02-2.41-7.38-5.76-9.79-9.79c-2.42,4.02-5.77,7.37-9.79,9.79c0.01,0,0.01,0.01,0.02,0.01
			h-2.05c0-0.25,0.13-0.47,0.35-0.59c4.6-2.52,8.36-6.28,10.88-10.88c0.12-0.22,0.34-0.35,0.59-0.35s0.47,0.13,0.59,0.35
			c2.52,4.6,6.28,8.36,10.88,10.88c0.22,0.12,0.35,0.34,0.35,0.59h-2.05C431.87,45.16,431.87,45.15,431.88,45.15z"/>
		<path class="st0" d="M461.26,45.15c-4.02-2.41-7.38-5.76-9.79-9.79c-2.42,4.02-5.77,7.37-9.79,9.79c0.01,0,0.01,0.01,0.02,0.01
			h-2.05c0-0.25,0.13-0.47,0.35-0.59c4.6-2.52,8.36-6.28,10.88-10.88c0.12-0.22,0.34-0.35,0.59-0.35s0.47,0.13,0.59,0.35
			c2.52,4.6,6.28,8.36,10.88,10.88c0.22,0.12,0.35,0.34,0.35,0.59h-2.05C461.25,45.16,461.25,45.15,461.26,45.15z"/>
		<path class="st0" d="M490.64,45.15c-4.02-2.41-7.38-5.76-9.79-9.79c-2.42,4.02-5.77,7.37-9.79,9.79c0.01,0,0.01,0.01,0.02,0.01
			h-2.05c0-0.25,0.13-0.47,0.35-0.59c4.6-2.52,8.36-6.28,10.88-10.88c0.12-0.22,0.34-0.35,0.59-0.35s0.47,0.13,0.59,0.35
			c2.52,4.6,6.28,8.36,10.88,10.88c0.22,0.12,0.35,0.34,0.35,0.59h-2.05C490.63,45.16,490.63,45.15,490.64,45.15z"/>
		<path class="st0" d="M520.02,45.15c-4.02-2.41-7.38-5.76-9.79-9.79c-2.42,4.02-5.77,7.37-9.79,9.79c0.01,0,0.01,0.01,0.02,0.01
			h-2.05c0-0.25,0.13-0.47,0.35-0.59c4.6-2.52,8.36-6.28,10.88-10.88c0.12-0.22,0.34-0.35,0.59-0.35s0.47,0.13,0.59,0.35
			c2.52,4.6,6.28,8.36,10.88,10.88c0.22,0.12,0.35,0.34,0.35,0.59H520C520.01,45.16,520.01,45.15,520.02,45.15z"/>
		<path class="st0" d="M549.4,45.15c-4.02-2.41-7.38-5.76-9.79-9.79c-2.42,4.02-5.77,7.37-9.79,9.79c0.01,0,0.01,0.01,0.02,0.01
			h-2.05c0-0.25,0.13-0.47,0.35-0.59c4.6-2.52,8.36-6.28,10.88-10.88c0.12-0.22,0.34-0.35,0.59-0.35s0.47,0.13,0.59,0.35
			c2.52,4.6,6.28,8.36,10.88,10.88c0.22,0.12,0.35,0.34,0.35,0.59h-2.05C549.39,45.16,549.39,45.15,549.4,45.15z"/>
		<path class="st0" d="M578.78,45.15c-4.02-2.41-7.38-5.76-9.79-9.79c-2.42,4.02-5.77,7.37-9.79,9.79c0.01,0,0.01,0.01,0.02,0.01
			h-2.05c0-0.25,0.13-0.47,0.35-0.59c4.6-2.52,8.36-6.28,10.88-10.88c0.12-0.22,0.34-0.35,0.59-0.35s0.47,0.13,0.59,0.35
			c2.52,4.6,6.28,8.36,10.88,10.88c0.22,0.12,0.35,0.34,0.35,0.59h-2.05C578.77,45.16,578.77,45.15,578.78,45.15z"/>
		<path class="st0" d="M608.16,45.15c-4.02-2.41-7.38-5.76-9.79-9.79c-2.42,4.02-5.77,7.37-9.79,9.79c0.01,0,0.01,0.01,0.02,0.01
			h-2.05c0-0.25,0.13-0.47,0.35-0.59c4.6-2.52,8.36-6.28,10.88-10.88c0.12-0.22,0.34-0.35,0.59-0.35s0.47,0.13,0.59,0.35
			c2.52,4.6,6.28,8.36,10.88,10.88c0.22,0.12,0.35,0.34,0.35,0.59h-2.05C608.15,45.16,608.15,45.15,608.16,45.15z"/>
		<path class="st0" d="M637.54,45.15c-4.02-2.41-7.38-5.76-9.79-9.79c-2.42,4.02-5.77,7.37-9.79,9.79c0.01,0,0.01,0.01,0.02,0.01
			h-2.05c0-0.25,0.13-0.47,0.35-0.59c4.6-2.52,8.36-6.28,10.88-10.88c0.12-0.22,0.34-0.35,0.59-0.35s0.47,0.13,0.59,0.35
			c2.52,4.6,6.28,8.36,10.88,10.88c0.22,0.12,0.35,0.34,0.35,0.59h-2.05C637.53,45.16,637.53,45.15,637.54,45.15z"/>
		<path class="st0" d="M666.92,45.15c-4.02-2.41-7.38-5.76-9.79-9.79c-2.42,4.02-5.77,7.37-9.79,9.79c0.01,0,0.01,0.01,0.02,0.01
			h-2.05c0-0.25,0.13-0.47,0.35-0.59c4.6-2.52,8.36-6.28,10.88-10.88c0.12-0.22,0.34-0.35,0.59-0.35s0.47,0.13,0.59,0.35
			c2.52,4.6,6.28,8.36,10.88,10.88c0.22,0.12,0.35,0.34,0.35,0.59h-2.05C666.91,45.16,666.91,45.15,666.92,45.15z"/>
	</g>
	<g>
		<path class="st0" d="M138.75,24.53c-4.02-2.41-7.38-5.76-9.79-9.79c-2.42,4.02-5.77,7.37-9.79,9.79c0.01,0,0.01,0.01,0.02,0.01
			h-2.05c0-0.25,0.13-0.47,0.35-0.59c4.6-2.52,8.36-6.28,10.88-10.88c0.12-0.22,0.34-0.35,0.59-0.35s0.47,0.13,0.59,0.35
			c2.52,4.6,6.28,8.36,10.88,10.88c0.22,0.12,0.35,0.34,0.35,0.59h-2.05C138.74,24.54,138.74,24.53,138.75,24.53z"/>
		<path class="st0" d="M168.13,24.53c-4.02-2.41-7.38-5.76-9.79-9.79c-2.42,4.02-5.77,7.37-9.79,9.79c0.01,0,0.01,0.01,0.02,0.01
			h-2.05c0-0.25,0.13-0.47,0.35-0.59c4.6-2.52,8.36-6.28,10.88-10.88c0.12-0.22,0.34-0.35,0.59-0.35s0.47,0.13,0.59,0.35
			c2.52,4.6,6.28,8.36,10.88,10.88c0.22,0.12,0.35,0.34,0.35,0.59h-2.05C168.12,24.54,168.12,24.53,168.13,24.53z"/>
		<path class="st0" d="M197.51,24.53c-4.02-2.41-7.38-5.76-9.79-9.79c-2.42,4.02-5.77,7.37-9.79,9.79c0.01,0,0.01,0.01,0.02,0.01
			h-2.05c0-0.25,0.13-0.47,0.35-0.59c4.6-2.52,8.36-6.28,10.88-10.88c0.12-0.22,0.34-0.35,0.59-0.35s0.47,0.13,0.59,0.35
			c2.52,4.6,6.28,8.36,10.88,10.88c0.22,0.12,0.35,0.34,0.35,0.59h-2.05C197.5,24.54,197.5,24.53,197.51,24.53z"/>
		<path class="st0" d="M226.89,24.53c-4.02-2.41-7.38-5.76-9.79-9.79c-2.42,4.02-5.77,7.37-9.79,9.79c0.01,0,0.01,0.01,0.02,0.01
			h-2.05c0-0.25,0.13-0.47,0.35-0.59c4.6-2.52,8.36-6.28,10.88-10.88c0.12-0.22,0.34-0.35,0.59-0.35s0.47,0.13,0.59,0.35
			c2.52,4.6,6.28,8.36,10.88,10.88c0.22,0.12,0.35,0.34,0.35,0.59h-2.05C226.88,24.54,226.88,24.53,226.89,24.53z"/>
		<path class="st0" d="M256.27,24.53c-4.02-2.41-7.38-5.76-9.79-9.79c-2.42,4.02-5.77,7.37-9.79,9.79c0.01,0,0.01,0.01,0.02,0.01
			h-2.05c0-0.25,0.13-0.47,0.35-0.59c4.6-2.52,8.36-6.28,10.88-10.88c0.12-0.22,0.34-0.35,0.59-0.35s0.47,0.13,0.59,0.35
			c2.52,4.6,6.28,8.36,10.88,10.88c0.22,0.12,0.35,0.34,0.35,0.59h-2.05C256.26,24.54,256.26,24.53,256.27,24.53z"/>
		<path class="st0" d="M285.65,24.53c-4.02-2.41-7.38-5.76-9.79-9.79c-2.42,4.02-5.77,7.37-9.79,9.79c0.01,0,0.01,0.01,0.02,0.01
			h-2.05c0-0.25,0.13-0.47,0.35-0.59c4.6-2.52,8.36-6.28,10.88-10.88c0.12-0.22,0.34-0.35,0.59-0.35s0.47,0.13,0.59,0.35
			c2.52,4.6,6.28,8.36,10.88,10.88c0.22,0.12,0.35,0.34,0.35,0.59h-2.05C285.64,24.54,285.64,24.53,285.65,24.53z"/>
		<path class="st0" d="M315.03,24.53c-4.02-2.41-7.38-5.76-9.79-9.79c-2.42,4.02-5.77,7.37-9.79,9.79c0.01,0,0.01,0.01,0.02,0.01
			h-2.05c0-0.25,0.13-0.47,0.35-0.59c4.6-2.52,8.36-6.28,10.88-10.88c0.12-0.22,0.34-0.35,0.59-0.35s0.47,0.13,0.59,0.35
			c2.52,4.6,6.28,8.36,10.88,10.88c0.22,0.12,0.35,0.34,0.35,0.59h-2.05C315.02,24.54,315.02,24.53,315.03,24.53z"/>
		<path class="st0" d="M344.41,24.53c-4.02-2.41-7.38-5.76-9.79-9.79c-2.42,4.02-5.77,7.37-9.79,9.79c0.01,0,0.01,0.01,0.02,0.01
			h-2.05c0-0.25,0.13-0.47,0.35-0.59c4.6-2.52,8.36-6.28,10.88-10.88c0.12-0.22,0.34-0.35,0.59-0.35s0.47,0.13,0.59,0.35
			c2.52,4.6,6.28,8.36,10.88,10.88c0.22,0.12,0.35,0.34,0.35,0.59h-2.05C344.4,24.54,344.4,24.53,344.41,24.53z"/>
		<path class="st0" d="M373.79,24.53c-4.02-2.41-7.38-5.76-9.79-9.79c-2.42,4.02-5.77,7.37-9.79,9.79c0.01,0,0.01,0.01,0.02,0.01
			h-2.05c0-0.25,0.13-0.47,0.35-0.59c4.6-2.52,8.36-6.28,10.88-10.88c0.12-0.22,0.34-0.35,0.59-0.35s0.47,0.13,0.59,0.35
			c2.52,4.6,6.28,8.36,10.88,10.88c0.22,0.12,0.35,0.34,0.35,0.59h-2.05C373.78,24.54,373.78,24.53,373.79,24.53z"/>
		<path class="st0" d="M403.17,24.53c-4.02-2.41-7.38-5.76-9.79-9.79c-2.42,4.02-5.77,7.37-9.79,9.79c0.01,0,0.01,0.01,0.02,0.01
			h-2.05c0-0.25,0.13-0.47,0.35-0.59c4.6-2.52,8.36-6.28,10.88-10.88c0.12-0.22,0.34-0.35,0.59-0.35s0.47,0.13,0.59,0.35
			c2.52,4.6,6.28,8.36,10.88,10.88c0.22,0.12,0.35,0.34,0.35,0.59h-2.05C403.16,24.54,403.16,24.53,403.17,24.53z"/>
		<path class="st0" d="M431.88,24.53c-4.02-2.41-7.38-5.76-9.79-9.79c-2.42,4.02-5.77,7.37-9.79,9.79c0.01,0,0.01,0.01,0.02,0.01
			h-2.05c0-0.25,0.13-0.47,0.35-0.59c4.6-2.52,8.36-6.28,10.88-10.88c0.12-0.22,0.34-0.35,0.59-0.35s0.47,0.13,0.59,0.35
			c2.52,4.6,6.28,8.36,10.88,10.88c0.22,0.12,0.35,0.34,0.35,0.59h-2.05C431.87,24.54,431.87,24.53,431.88,24.53z"/>
		<path class="st0" d="M461.26,24.53c-4.02-2.41-7.38-5.76-9.79-9.79c-2.42,4.02-5.77,7.37-9.79,9.79c0.01,0,0.01,0.01,0.02,0.01
			h-2.05c0-0.25,0.13-0.47,0.35-0.59c4.6-2.52,8.36-6.28,10.88-10.88c0.12-0.22,0.34-0.35,0.59-0.35s0.47,0.13,0.59,0.35
			c2.52,4.6,6.28,8.36,10.88,10.88c0.22,0.12,0.35,0.34,0.35,0.59h-2.05C461.25,24.54,461.25,24.53,461.26,24.53z"/>
		<path class="st0" d="M490.64,24.53c-4.02-2.41-7.38-5.76-9.79-9.79c-2.42,4.02-5.77,7.37-9.79,9.79c0.01,0,0.01,0.01,0.02,0.01
			h-2.05c0-0.25,0.13-0.47,0.35-0.59c4.6-2.52,8.36-6.28,10.88-10.88c0.12-0.22,0.34-0.35,0.59-0.35s0.47,0.13,0.59,0.35
			c2.52,4.6,6.28,8.36,10.88,10.88c0.22,0.12,0.35,0.34,0.35,0.59h-2.05C490.63,24.54,490.63,24.53,490.64,24.53z"/>
		<path class="st0" d="M520.02,24.53c-4.02-2.41-7.38-5.76-9.79-9.79c-2.42,4.02-5.77,7.37-9.79,9.79c0.01,0,0.01,0.01,0.02,0.01
			h-2.05c0-0.25,0.13-0.47,0.35-0.59c4.6-2.52,8.36-6.28,10.88-10.88c0.12-0.22,0.34-0.35,0.59-0.35s0.47,0.13,0.59,0.35
			c2.52,4.6,6.28,8.36,10.88,10.88c0.22,0.12,0.35,0.34,0.35,0.59H520C520.01,24.54,520.01,24.53,520.02,24.53z"/>
		<path class="st0" d="M549.4,24.53c-4.02-2.41-7.38-5.76-9.79-9.79c-2.42,4.02-5.77,7.37-9.79,9.79c0.01,0,0.01,0.01,0.02,0.01
			h-2.05c0-0.25,0.13-0.47,0.35-0.59c4.6-2.52,8.36-6.28,10.88-10.88c0.12-0.22,0.34-0.35,0.59-0.35s0.47,0.13,0.59,0.35
			c2.52,4.6,6.28,8.36,10.88,10.88c0.22,0.12,0.35,0.34,0.35,0.59h-2.05C549.39,24.54,549.39,24.53,549.4,24.53z"/>
		<path class="st0" d="M578.78,24.53c-4.02-2.41-7.38-5.76-9.79-9.79c-2.42,4.02-5.77,7.37-9.79,9.79c0.01,0,0.01,0.01,0.02,0.01
			h-2.05c0-0.25,0.13-0.47,0.35-0.59c4.6-2.52,8.36-6.28,10.88-10.88c0.12-0.22,0.34-0.35,0.59-0.35s0.47,0.13,0.59,0.35
			c2.52,4.6,6.28,8.36,10.88,10.88c0.22,0.12,0.35,0.34,0.35,0.59h-2.05C578.77,24.54,578.77,24.53,578.78,24.53z"/>
		<path class="st0" d="M608.16,24.53c-4.02-2.41-7.38-5.76-9.79-9.79c-2.42,4.02-5.77,7.37-9.79,9.79c0.01,0,0.01,0.01,0.02,0.01
			h-2.05c0-0.25,0.13-0.47,0.35-0.59c4.6-2.52,8.36-6.28,10.88-10.88c0.12-0.22,0.34-0.35,0.59-0.35s0.47,0.13,0.59,0.35
			c2.52,4.6,6.28,8.36,10.88,10.88c0.22,0.12,0.35,0.34,0.35,0.59h-2.05C608.15,24.54,608.15,24.53,608.16,24.53z"/>
		<path class="st0" d="M637.54,24.53c-4.02-2.41-7.38-5.76-9.79-9.79c-2.42,4.02-5.77,7.37-9.79,9.79c0.01,0,0.01,0.01,0.02,0.01
			h-2.05c0-0.25,0.13-0.47,0.35-0.59c4.6-2.52,8.36-6.28,10.88-10.88c0.12-0.22,0.34-0.35,0.59-0.35s0.47,0.13,0.59,0.35
			c2.52,4.6,6.28,8.36,10.88,10.88c0.22,0.12,0.35,0.34,0.35,0.59h-2.05C637.53,24.54,637.53,24.53,637.54,24.53z"/>
		<path class="st0" d="M666.92,24.53c-4.02-2.41-7.38-5.76-9.79-9.79c-2.42,4.02-5.77,7.37-9.79,9.79c0.01,0,0.01,0.01,0.02,0.01
			h-2.05c0-0.25,0.13-0.47,0.35-0.59c4.6-2.52,8.36-6.28,10.88-10.88c0.12-0.22,0.34-0.35,0.59-0.35s0.47,0.13,0.59,0.35
			c2.52,4.6,6.28,8.36,10.88,10.88c0.22,0.12,0.35,0.34,0.35,0.59h-2.05C666.91,24.54,666.91,24.53,666.92,24.53z"/>
	</g>
</g>
<g id="Layer_2" class="st1">
	<path class="st2" d="M433.56,15.84c-4.6-2.52-8.36-6.28-10.88-10.88c-0.12-0.22-0.34-0.35-0.59-0.35s-0.47,0.13-0.59,0.35
		c-2.52,4.6-6.28,8.36-10.88,10.88c-0.22,0.12-0.35,0.34-0.35,0.59s0.13,0.47,0.35,0.59c4.6,2.52,8.36,6.28,10.88,10.88
		c0.12,0.22,0.34,0.35,0.59,0.35s0.47-0.13,0.59-0.35c2.52-4.6,6.28-8.36,10.88-10.88c0.22-0.12,0.35-0.34,0.35-0.59
		C433.91,16.19,433.78,15.96,433.56,15.84z M422.09,26.23c-2.42-4.02-5.77-7.37-9.79-9.79c4.02-2.42,7.37-5.77,9.79-9.79
		c2.42,4.02,5.77,7.37,9.79,9.79C427.86,18.85,424.51,22.2,422.09,26.23z"/>
	<path class="st2" d="M462.94,15.84c-4.6-2.52-8.36-6.28-10.88-10.88c-0.12-0.22-0.34-0.35-0.59-0.35s-0.47,0.13-0.59,0.35
		c-2.52,4.6-6.28,8.36-10.88,10.88c-0.22,0.12-0.35,0.34-0.35,0.59s0.13,0.47,0.35,0.59c4.6,2.52,8.36,6.28,10.88,10.88
		c0.12,0.22,0.34,0.35,0.59,0.35s0.47-0.13,0.59-0.35c2.52-4.6,6.28-8.36,10.88-10.88c0.22-0.12,0.35-0.34,0.35-0.59
		C463.29,16.19,463.16,15.96,462.94,15.84z M451.47,26.23c-2.42-4.02-5.77-7.37-9.79-9.79c4.02-2.42,7.37-5.77,9.79-9.79
		c2.42,4.02,5.77,7.37,9.79,9.79C457.24,18.85,453.89,22.2,451.47,26.23z"/>
	<path class="st2" d="M492.32,15.84c-4.6-2.52-8.36-6.28-10.88-10.88c-0.12-0.22-0.34-0.35-0.59-0.35s-0.47,0.13-0.59,0.35
		c-2.52,4.6-6.28,8.36-10.88,10.88c-0.22,0.12-0.35,0.34-0.35,0.59s0.13,0.47,0.35,0.59c4.6,2.52,8.36,6.28,10.88,10.88
		c0.12,0.22,0.34,0.35,0.59,0.35s0.47-0.13,0.59-0.35c2.52-4.6,6.28-8.36,10.88-10.88c0.22-0.12,0.35-0.34,0.35-0.59
		C492.67,16.19,492.53,15.96,492.32,15.84z M480.85,26.23c-2.42-4.02-5.77-7.37-9.79-9.79c4.02-2.42,7.37-5.77,9.79-9.79
		c2.42,4.02,5.77,7.37,9.79,9.79C486.62,18.85,483.27,22.2,480.85,26.23z"/>
	<path class="st2" d="M521.7,15.84c-4.6-2.52-8.36-6.28-10.88-10.88c-0.12-0.22-0.34-0.35-0.59-0.35s-0.47,0.13-0.59,0.35
		c-2.52,4.6-6.28,8.36-10.88,10.88c-0.22,0.12-0.35,0.34-0.35,0.59s0.13,0.47,0.35,0.59c4.6,2.52,8.36,6.28,10.88,10.88
		c0.12,0.22,0.34,0.35,0.59,0.35s0.47-0.13,0.59-0.35c2.52-4.6,6.28-8.36,10.88-10.88c0.22-0.12,0.35-0.34,0.35-0.59
		C522.05,16.19,521.91,15.96,521.7,15.84z M510.23,26.23c-2.42-4.02-5.77-7.37-9.79-9.79c4.02-2.42,7.37-5.77,9.79-9.79
		c2.42,4.02,5.77,7.37,9.79,9.79C516,18.85,512.64,22.2,510.23,26.23z"/>
	<path class="st2" d="M551.07,15.84c-4.6-2.52-8.36-6.28-10.88-10.88c-0.12-0.22-0.34-0.35-0.59-0.35s-0.47,0.13-0.59,0.35
		c-2.52,4.6-6.28,8.36-10.88,10.88c-0.22,0.12-0.35,0.34-0.35,0.59s0.13,0.47,0.35,0.59c4.6,2.52,8.36,6.28,10.88,10.88
		c0.12,0.22,0.34,0.35,0.59,0.35s0.47-0.13,0.59-0.35c2.52-4.6,6.28-8.36,10.88-10.88c0.22-0.12,0.35-0.34,0.35-0.59
		C551.42,16.19,551.29,15.96,551.07,15.84z M539.6,26.23c-2.42-4.02-5.77-7.37-9.79-9.79c4.02-2.42,7.37-5.77,9.79-9.79
		c2.42,4.02,5.77,7.37,9.79,9.79C545.37,18.85,542.02,22.2,539.6,26.23z"/>
	<path class="st2" d="M580.67,15.84c-4.6-2.52-8.36-6.28-10.88-10.88c-0.12-0.22-0.34-0.35-0.59-0.35s-0.47,0.13-0.59,0.35
		c-2.52,4.6-6.28,8.36-10.88,10.88c-0.22,0.12-0.35,0.34-0.35,0.59s0.13,0.47,0.35,0.59c4.6,2.52,8.36,6.28,10.88,10.88
		c0.12,0.22,0.34,0.35,0.59,0.35s0.47-0.13,0.59-0.35c2.52-4.6,6.28-8.36,10.88-10.88c0.22-0.12,0.35-0.34,0.35-0.59
		C581.02,16.19,580.88,15.96,580.67,15.84z M569.2,26.23c-2.42-4.02-5.77-7.37-9.79-9.79c4.02-2.42,7.37-5.77,9.79-9.79
		c2.42,4.02,5.77,7.37,9.79,9.79C574.97,18.85,571.62,22.2,569.2,26.23z"/>
	<path class="st2" d="M610.05,15.84c-4.6-2.52-8.36-6.28-10.88-10.88c-0.12-0.22-0.34-0.35-0.59-0.35s-0.47,0.13-0.59,0.35
		c-2.52,4.6-6.28,8.36-10.88,10.88c-0.22,0.12-0.35,0.34-0.35,0.59s0.13,0.47,0.35,0.59c4.6,2.52,8.36,6.28,10.88,10.88
		c0.12,0.22,0.34,0.35,0.59,0.35s0.47-0.13,0.59-0.35c2.52-4.6,6.28-8.36,10.88-10.88c0.22-0.12,0.35-0.34,0.35-0.59
		C610.4,16.19,610.26,15.96,610.05,15.84z M598.58,26.23c-2.42-4.02-5.77-7.37-9.79-9.79c4.02-2.42,7.37-5.77,9.79-9.79
		c2.42,4.02,5.77,7.37,9.79,9.79C604.35,18.85,600.99,22.2,598.58,26.23z"/>
	<path class="st2" d="M639.42,15.84c-4.6-2.52-8.36-6.28-10.88-10.88c-0.12-0.22-0.34-0.35-0.59-0.35s-0.47,0.13-0.59,0.35
		c-2.52,4.6-6.28,8.36-10.88,10.88c-0.22,0.12-0.35,0.34-0.35,0.59s0.13,0.47,0.35,0.59c4.6,2.52,8.36,6.28,10.88,10.88
		c0.12,0.22,0.34,0.35,0.59,0.35s0.47-0.13,0.59-0.35c2.52-4.6,6.28-8.36,10.88-10.88c0.22-0.12,0.35-0.34,0.35-0.59
		C639.77,16.19,639.64,15.96,639.42,15.84z M627.95,26.23c-2.42-4.02-5.77-7.37-9.79-9.79c4.02-2.42,7.37-5.77,9.79-9.79
		c2.42,4.02,5.77,7.37,9.79,9.79C633.72,18.85,630.37,22.2,627.95,26.23z"/>
	<path class="st2" d="M668.8,15.84c-4.6-2.52-8.36-6.28-10.88-10.88c-0.12-0.22-0.34-0.35-0.59-0.35s-0.47,0.13-0.59,0.35
		c-2.52,4.6-6.28,8.36-10.88,10.88c-0.22,0.12-0.35,0.34-0.35,0.59s0.13,0.47,0.35,0.59c4.6,2.52,8.36,6.28,10.88,10.88
		c0.12,0.22,0.34,0.35,0.59,0.35s0.47-0.13,0.59-0.35c2.52-4.6,6.28-8.36,10.88-10.88c0.22-0.12,0.35-0.34,0.35-0.59
		C669.15,16.19,669.02,15.96,668.8,15.84z M657.33,26.23c-2.42-4.02-5.77-7.37-9.79-9.79c4.02-2.42,7.37-5.77,9.79-9.79
		c2.42,4.02,5.77,7.37,9.79,9.79C663.1,18.85,659.75,22.2,657.33,26.23z"/>
	<path class="st2" d="M698.18,15.84c-4.6-2.52-8.36-6.28-10.88-10.88c-0.12-0.22-0.34-0.35-0.59-0.35s-0.47,0.13-0.59,0.35
		c-2.52,4.6-6.28,8.36-10.88,10.88c-0.22,0.12-0.35,0.34-0.35,0.59s0.13,0.47,0.35,0.59c4.6,2.52,8.36,6.28,10.88,10.88
		c0.12,0.22,0.34,0.35,0.59,0.35s0.47-0.13,0.59-0.35c2.52-4.6,6.28-8.36,10.88-10.88c0.22-0.12,0.35-0.34,0.35-0.59
		C698.53,16.19,698.4,15.96,698.18,15.84z M686.71,26.23c-2.42-4.02-5.77-7.37-9.79-9.79c4.02-2.42,7.37-5.77,9.79-9.79
		c2.42,4.02,5.77,7.37,9.79,9.79C692.48,18.85,689.13,22.2,686.71,26.23z"/>
	<path class="st2" d="M140.43,15.84c-4.6-2.52-8.36-6.28-10.88-10.88c-0.12-0.22-0.34-0.35-0.59-0.35s-0.47,0.13-0.59,0.35
		c-2.52,4.6-6.28,8.36-10.88,10.88c-0.22,0.12-0.35,0.34-0.35,0.59s0.13,0.47,0.35,0.59c4.6,2.52,8.36,6.28,10.88,10.88
		c0.12,0.22,0.34,0.35,0.59,0.35s0.47-0.13,0.59-0.35c2.52-4.6,6.28-8.36,10.88-10.88c0.22-0.12,0.35-0.34,0.35-0.59
		C140.79,16.19,140.65,15.96,140.43,15.84z M128.96,26.23c-2.42-4.02-5.77-7.37-9.79-9.79c4.02-2.42,7.37-5.77,9.79-9.79
		c2.42,4.02,5.77,7.37,9.79,9.79C134.73,18.85,131.38,22.2,128.96,26.23z"/>
	<path class="st2" d="M169.81,15.84c-4.6-2.52-8.36-6.28-10.88-10.88c-0.12-0.22-0.34-0.35-0.59-0.35s-0.47,0.13-0.59,0.35
		c-2.52,4.6-6.28,8.36-10.88,10.88c-0.22,0.12-0.35,0.34-0.35,0.59s0.13,0.47,0.35,0.59c4.6,2.52,8.36,6.28,10.88,10.88
		c0.12,0.22,0.34,0.35,0.59,0.35s0.47-0.13,0.59-0.35c2.52-4.6,6.28-8.36,10.88-10.88c0.22-0.12,0.35-0.34,0.35-0.59
		C170.16,16.19,170.03,15.96,169.81,15.84z M158.34,26.23c-2.42-4.02-5.77-7.37-9.79-9.79c4.02-2.42,7.37-5.77,9.79-9.79
		c2.42,4.02,5.77,7.37,9.79,9.79C164.11,18.85,160.76,22.2,158.34,26.23z"/>
	<path class="st2" d="M199.19,15.84c-4.6-2.52-8.36-6.28-10.88-10.88c-0.12-0.22-0.34-0.35-0.59-0.35s-0.47,0.13-0.59,0.35
		c-2.52,4.6-6.28,8.36-10.88,10.88c-0.22,0.12-0.35,0.34-0.35,0.59s0.13,0.47,0.35,0.59c4.6,2.52,8.36,6.28,10.88,10.88
		c0.12,0.22,0.34,0.35,0.59,0.35s0.47-0.13,0.59-0.35c2.52-4.6,6.28-8.36,10.88-10.88c0.22-0.12,0.35-0.34,0.35-0.59
		C199.54,16.19,199.41,15.96,199.19,15.84z M187.72,26.23c-2.42-4.02-5.77-7.37-9.79-9.79c4.02-2.42,7.37-5.77,9.79-9.79
		c2.42,4.02,5.77,7.37,9.79,9.79C193.49,18.85,190.14,22.2,187.72,26.23z"/>
	<path class="st2" d="M228.57,15.84c-4.6-2.52-8.36-6.28-10.88-10.88c-0.12-0.22-0.34-0.35-0.59-0.35s-0.47,0.13-0.59,0.35
		c-2.52,4.6-6.28,8.36-10.88,10.88c-0.22,0.12-0.35,0.34-0.35,0.59s0.13,0.47,0.35,0.59c4.6,2.52,8.36,6.28,10.88,10.88
		c0.12,0.22,0.34,0.35,0.59,0.35s0.47-0.13,0.59-0.35c2.52-4.6,6.28-8.36,10.88-10.88c0.22-0.12,0.35-0.34,0.35-0.59
		C228.92,16.19,228.78,15.96,228.57,15.84z M217.1,26.23c-2.42-4.02-5.77-7.37-9.79-9.79c4.02-2.42,7.37-5.77,9.79-9.79
		c2.42,4.02,5.77,7.37,9.79,9.79C222.87,18.85,219.52,22.2,217.1,26.23z"/>
	<path class="st2" d="M257.95,15.84c-4.6-2.52-8.36-6.28-10.88-10.88c-0.12-0.22-0.34-0.35-0.59-0.35s-0.47,0.13-0.59,0.35
		c-2.52,4.6-6.28,8.36-10.88,10.88c-0.22,0.12-0.35,0.34-0.35,0.59s0.13,0.47,0.35,0.59c4.6,2.52,8.36,6.28,10.88,10.88
		c0.12,0.22,0.34,0.35,0.59,0.35s0.47-0.13,0.59-0.35c2.52-4.6,6.28-8.36,10.88-10.88c0.22-0.12,0.35-0.34,0.35-0.59
		C258.3,16.19,258.16,15.96,257.95,15.84z M246.48,26.23c-2.42-4.02-5.77-7.37-9.79-9.79c4.02-2.42,7.37-5.77,9.79-9.79
		c2.42,4.02,5.77,7.37,9.79,9.79C252.25,18.85,248.89,22.2,246.48,26.23z"/>
	<path class="st2" d="M287.54,15.84c-4.6-2.52-8.36-6.28-10.88-10.88c-0.12-0.22-0.34-0.35-0.59-0.35s-0.47,0.13-0.59,0.35
		c-2.52,4.6-6.28,8.36-10.88,10.88c-0.22,0.12-0.35,0.34-0.35,0.59s0.13,0.47,0.35,0.59c4.6,2.52,8.36,6.28,10.88,10.88
		c0.12,0.22,0.34,0.35,0.59,0.35s0.47-0.13,0.59-0.35c2.52-4.6,6.28-8.36,10.88-10.88c0.22-0.12,0.35-0.34,0.35-0.59
		C287.89,16.19,287.76,15.96,287.54,15.84z M276.07,26.23c-2.42-4.02-5.77-7.37-9.79-9.79c4.02-2.42,7.37-5.77,9.79-9.79
		c2.42,4.02,5.77,7.37,9.79,9.79C281.84,18.85,278.49,22.2,276.07,26.23z"/>
	<path class="st2" d="M316.92,15.84c-4.6-2.52-8.36-6.28-10.88-10.88c-0.12-0.22-0.34-0.35-0.59-0.35s-0.47,0.13-0.59,0.35
		c-2.52,4.6-6.28,8.36-10.88,10.88c-0.22,0.12-0.35,0.34-0.35,0.59s0.13,0.47,0.35,0.59c4.6,2.52,8.36,6.28,10.88,10.88
		c0.12,0.22,0.34,0.35,0.59,0.35s0.47-0.13,0.59-0.35c2.52-4.6,6.28-8.36,10.88-10.88c0.22-0.12,0.35-0.34,0.35-0.59
		C317.27,16.19,317.13,15.96,316.92,15.84z M305.45,26.23c-2.42-4.02-5.77-7.37-9.79-9.79c4.02-2.42,7.37-5.77,9.79-9.79
		c2.42,4.02,5.77,7.37,9.79,9.79C311.22,18.85,307.87,22.2,305.45,26.23z"/>
	<path class="st2" d="M346.3,15.84c-4.6-2.52-8.36-6.28-10.88-10.88c-0.12-0.22-0.34-0.35-0.59-0.35s-0.47,0.13-0.59,0.35
		c-2.52,4.6-6.28,8.36-10.88,10.88c-0.22,0.12-0.35,0.34-0.35,0.59s0.13,0.47,0.35,0.59c4.6,2.52,8.36,6.28,10.88,10.88
		c0.12,0.22,0.34,0.35,0.59,0.35s0.47-0.13,0.59-0.35c2.52-4.6,6.28-8.36,10.88-10.88c0.22-0.12,0.35-0.34,0.35-0.59
		C346.65,16.19,346.51,15.96,346.3,15.84z M334.83,26.23c-2.42-4.02-5.77-7.37-9.79-9.79c4.02-2.42,7.37-5.77,9.79-9.79
		c2.42,4.02,5.77,7.37,9.79,9.79C340.6,18.85,337.24,22.2,334.83,26.23z"/>
	<path class="st2" d="M375.67,15.84c-4.6-2.52-8.36-6.28-10.88-10.88c-0.12-0.22-0.34-0.35-0.59-0.35s-0.47,0.13-0.59,0.35
		c-2.52,4.6-6.28,8.36-10.88,10.88c-0.22,0.12-0.35,0.34-0.35,0.59s0.13,0.47,0.35,0.59c4.6,2.52,8.36,6.28,10.88,10.88
		c0.12,0.22,0.34,0.35,0.59,0.35s0.47-0.13,0.59-0.35c2.52-4.6,6.28-8.36,10.88-10.88c0.22-0.12,0.35-0.34,0.35-0.59
		C376.02,16.19,375.89,15.96,375.67,15.84z M364.2,26.23c-2.42-4.02-5.77-7.37-9.79-9.79c4.02-2.42,7.37-5.77,9.79-9.79
		c2.42,4.02,5.77,7.37,9.79,9.79C369.97,18.85,366.62,22.2,364.2,26.23z"/>
	<path class="st2" d="M405.05,15.84c-4.6-2.52-8.36-6.28-10.88-10.88c-0.12-0.22-0.34-0.35-0.59-0.35s-0.47,0.13-0.59,0.35
		c-2.52,4.6-6.28,8.36-10.88,10.88c-0.22,0.12-0.35,0.34-0.35,0.59s0.13,0.47,0.35,0.59c4.6,2.52,8.36,6.28,10.88,10.88
		c0.12,0.22,0.34,0.35,0.59,0.35s0.47-0.13,0.59-0.35c2.52-4.6,6.28-8.36,10.88-10.88c0.22-0.12,0.35-0.34,0.35-0.59
		C405.4,16.19,405.27,15.96,405.05,15.84z M393.58,26.23c-2.42-4.02-5.77-7.37-9.79-9.79c4.02-2.42,7.37-5.77,9.79-9.79
		c2.42,4.02,5.77,7.37,9.79,9.79C399.35,18.85,396,22.2,393.58,26.23z"/>
</g>
</svg>
