<?xml version="1.0" encoding="utf-8"?>
<!-- Generator: Adobe Illustrator 27.4.1, SVG Export Plug-In . SVG Version: 6.00 Build 0)  -->
<svg version="1.1" id="Layer_1" xmlns="http://www.w3.org/2000/svg" xmlns:xlink="http://www.w3.org/1999/xlink" x="0px" y="0px"
	 viewBox="0 0 459.7 28" style="enable-background:new 0 0 459.7 28;" xml:space="preserve">
<style type="text/css">
	.st0{fill:#969595;}
</style>
<g>
	<g>
		<g>
			<path class="st0" d="M277.1,8.7L277,8.6C277,8.6,277,8.6,277.1,8.7c-0.7-0.4-1.6-0.4-2.3,0.2c-0.8,0.7-0.9,1.9-0.2,2.7
				c0.4,0.4,0.9,0.6,1.4,0.6c-0.1,0.5-0.3,0.8-0.7,1.1c-1,0.8-2.5,0-2.8-0.3c-1.8-1.9-1.9-4.7,0.3-6.2c0,0-3.7,1.8-1.3,5.9
				c1.2,2.1,4,2.3,5.6,0.5C278.8,11.5,277.9,9.2,277.1,8.7z"/>
			<g>
				<path class="st0" d="M269.2,11c1.1,1.7,2.9,3,5,3c0.3,0,0.6,0,0.8-0.1l0.1,0.4c-0.2,0-0.3,0.1-0.5,0.1c-1.8,0.2-3.4-0.6-4.5-1.9
					C269.8,12.1,269.4,11.6,269.2,11L269.2,11L269.2,11z"/>
			</g>
		</g>
		<g>
			<path class="st0" d="M276.6,21.4l-0.1,0.1C276.6,21.5,276.6,21.4,276.6,21.4c-0.7,0.4-1.6,0.4-2.3-0.2c-0.8-0.7-0.9-1.9-0.2-2.7
				c0.4-0.4,0.9-0.6,1.4-0.6c-0.1-0.5-0.3-0.8-0.7-1.1c-1-0.8-2.5,0-2.8,0.3c-1.8,1.9-1.9,4.7,0.3,6.2c0,0-3.7-1.8-1.3-5.9
				c1.2-2.1,4-2.3,5.6-0.5C278.4,18.5,277.5,20.8,276.6,21.4z"/>
			<g>
				<path class="st0" d="M268.8,19c1.1-1.7,2.9-3,5-3c0.3,0,0.6,0,0.8,0.1l0.1-0.4c-0.2,0-0.3-0.1-0.5-0.1c-1.8-0.2-3.4,0.6-4.5,1.9
					C269.4,18,269,18.5,268.8,19L268.8,19L268.8,19z"/>
			</g>
		</g>
		<g>
			<path class="st0" d="M263,14.7l0.3-0.1c1.8-0.6,3.3-1.9,4-3.7l0.1-0.3l0.2,0.4c0.6,1.7,1.8,3.1,3.5,3.7l0.5,0.2l-0.5,0.2
				c-1.7,0.6-3.1,1.9-3.7,3.5l-0.2,0.4l-0.1-0.3c-0.5-1.8-1.9-3.3-3.7-4L263,14.7z"/>
		</g>
		<g>
			<path class="st0" d="M277.3,5.8"/>
		</g>
		<polygon class="st0" points="270.4,14.6 331.5,14.9 331.5,15.4 270.4,15.4 		"/>
	</g>
	<g>
		<g>
			<path class="st0" d="M181.6,7.8l0.1-0.1C181.7,7.7,181.7,7.7,181.6,7.8c0.8-0.5,1.7-0.4,2.4,0.2c0.8,0.7,0.9,2,0.2,2.9
				c-0.4,0.4-1,0.7-1.5,0.7c0.1,0.5,0.3,0.8,0.7,1.2c1.1,0.9,2.6,0,2.9-0.3c1.9-2,2-5-0.4-6.6c0,0,3.9,1.9,1.4,6.3
				c-1.3,2.3-4.3,2.4-6,0.5C179.8,10.8,180.7,8.3,181.6,7.8z"/>
			<g>
				<path class="st0" d="M189.9,10.3c-1.2,1.8-3.1,3.2-5.3,3.2c-0.3,0-0.6,0-0.9-0.1l-0.1,0.5c0.2,0,0.3,0.1,0.5,0.1
					c1.9,0.3,3.6-0.7,4.8-2C189.3,11.4,189.7,10.9,189.9,10.3L189.9,10.3L189.9,10.3z"/>
			</g>
		</g>
		<g>
			<path class="st0" d="M182,21.3l0.1,0.1C182.1,21.3,182.1,21.3,182,21.3c0.8,0.5,1.7,0.4,2.4-0.2c0.8-0.7,0.9-2,0.2-2.9
				c-0.4-0.4-1-0.7-1.5-0.7c0.1-0.5,0.3-0.8,0.7-1.2c1.1-0.9,2.6,0,2.9,0.3c1.9,2,2,5-0.4,6.6c0,0,3.9-1.9,1.4-6.3
				c-1.3-2.3-4.3-2.4-6-0.5C180.2,18.2,181.1,20.7,182,21.3z"/>
			<g>
				<path class="st0" d="M190.4,18.8c-1.2-1.8-3.1-3.2-5.3-3.2c-0.3,0-0.6,0-0.9,0.1l-0.1-0.5c0.2,0,0.3-0.1,0.5-0.1
					c1.9-0.3,3.6,0.7,4.8,2C189.8,17.6,190.1,18.2,190.4,18.8L190.4,18.8L190.4,18.8z"/>
			</g>
		</g>
		<g>
			<path class="st0" d="M196.5,14.2l-0.3-0.1c-2-0.6-3.5-2.1-4.2-4l-0.1-0.3l-0.2,0.5c-0.6,1.8-2,3.2-3.7,4l-0.5,0.2l0.5,0.2
				c1.8,0.6,3.2,2,4,3.7l0.2,0.5l0.1-0.3c0.6-1.9,2-3.5,3.9-4.2L196.5,14.2z"/>
		</g>
		<g>
			<path class="st0" d="M181.4,4.8"/>
		</g>
		<polygon class="st0" points="188.7,14 120.1,14.4 120.1,14.9 188.7,14.9 		"/>
	</g>
</g>
</svg>
