<?xml version="1.0" encoding="utf-8"?>
<!-- Generator: Adobe Illustrator 27.4.1, SVG Export Plug-In . SVG Version: 6.00 Build 0)  -->
<svg version="1.1" id="Layer_1" xmlns="http://www.w3.org/2000/svg" xmlns:xlink="http://www.w3.org/1999/xlink" x="0px" y="0px"
	 viewBox="0 0 507.1 181.8" style="enable-background:new 0 0 507.1 181.8;" xml:space="preserve">
<style type="text/css">
	.st0{fill:#6F8E54;stroke:#6F8E54;stroke-miterlimit:10;}
	.st1{fill:#6F8E54;}
	.st2{fill:#AA7F66;}
</style>
<g>
	<path class="st0" d="M102.9,50.4v1.1l-0.6,1.4l-0.1,0.8l-0.4,0.2l-0.1,0.5L99.9,56l-0.6,0.5l-1.1,0.4l-1.8,0.3L96.3,57l-1.6-0.3
		l-0.9-0.3l-0.6-0.2l-1.3-1.3l-0.4-0.8l0-2.1l0.3-1.1l1-0.9l1.3-0.3l0.5,0l0.4,0.1l1.5,1V51l0.6,0.3l0.1,0.3l-0.7,0.2l-1.3-0.1
		l-0.7,0.3l-1.2,1.1l-0.2,0.8l0,0.2l0.4,0.6l0.2,0.5l1.1,0.5l1.2,0.2l1-0.3l2.1-1.5l1-1.5L100,52l0-2.5l-0.8-1.8L99,47.3l-1-0.8
		l-0.5-0.1L97.3,46l-0.4,0l-1.7-0.4L94.2,46L94,45.8l-0.2,0l-0.2,0.2l-0.8,0.1L91,47l-1.7,1.8l-0.5,0.7l-1,3.3l-0.1,0.5l0.1,1.8
		l0.2,0.6l0,0.3l0.2,0.3l1.3,2.3l1.5,1.8l3.8,3.6l3.1,3.5l0.8,1.9l0.6,0.5l0.4,1.5l0.2,3.2l-0.2,1L99.1,77l-0.3,0.2l0.1,0.4l-0.8,1
		v0.5l-0.9,0.8l-0.2,0.8l-0.7,0.2l0.1,0.3l-0.8,0.7L95.5,82l-0.6,0.2l-0.5,0.6L92.4,84h-0.2L89.2,85l-2.3,0.3L84,85.4l-0.4-0.2
		L83,85.4l-2.3-0.7l-3.5-2l-1.1-1.2l-0.6-0.3L74,79.1l-0.2-0.7l-0.4-0.5L73,75.8l0.1-1l-0.2-0.5l0.4-1.1l0-0.7l0.5-1.1v-0.5l0.4-0.3
		l0.1-0.5l0.7-0.7l0.2-0.4l0.6-0.5l0.2-0.5l2.9-1.7h0.4l0.1-0.1l2.3-0.8l3.6-0.1l1,0.2l2,0.8l0.8,0.5l1.6,1.8l0.9,1.8v0.6l0.2,0.8
		l-0.3,0.2l0.2,0.8L90.9,74l-0.3,0.1l0.1,0.1l0,0.2L90,74.8l-0.3,0.8l-1.1,0.8L88.3,77l-1.3,0.2l-0.4,0.3l-2.3,0l-1.8-0.8L81.2,75
		l-0.4-1.5l0.9-2.7l0.5-0.3h0.2l0.2,0.1l0.3,0.4l-0.6,1l0,1.5l1.6,1.6l0.4,0.2h0.5l0.4,0l1.8-0.7l0.9-1.2l0.1-0.4l0.5-0.5l0.3-2.1
		l-0.4-1.5l-0.5-1.1l-1.4-1l-1.5-0.4L83,66.3l-2.9,1.5l-2,1.9h-0.1l-1.6,2.7l-0.2,1.3l-0.3,0.6v2.9l0.8,2.6l0.4,0.5l1.7,1.7l0.8,0.4
		l0.8,0.5l1,0.2l0.2,0.3l0.8-0.1l0.9,0.3l2.7-0.3l2.2-0.8h0.5l0.3-0.4h0.2l1.6-1.2l2-2l0.1-0.5l0.6-0.7l-0.1-0.2l0.5-0.5l1.3-3.6
		l0-2.6l-0.5-1.8l-0.9-2.3L93,65.2l-0.4-0.3l-0.2-0.3L92,64.3l0-0.3l-2.3-2.4l-0.4-0.5l-2.4-2.8l-1-1.7L85,55.3l-0.8-2.4l0.2-0.2
		l-0.1-0.8v-0.4l0.5-2.4l0.6-1l0.5-0.8l2.3-1.5l1-0.5l2.8-0.6l0.3,0l3.4,0.1l1.1,0.3l2.3,0.8l1.8,1.1l0.6,0.5l0.6,0.9L102.9,50.4z"
		/>
	<path class="st0" d="M143,30.6h0.9l2.8,1.8l1,1.4l-2.5,8.6l4.3-5.4l2.9-3l1.1-0.7l2.8-1l1.9-0.3l3.1,0.5l2.3,1.1l2.8,2.1l-0.3,0.4
		l1,1.3l-0.1,0.5l0.4,0.4l0.1,3.1l-0.4,2.1l-1.6,3.1l-1.6,2.5l-0.4,0.3l-0.5,1.4l-4.6,4.1l-2.8,1.4l-1.7,0.5l-1.2,0.3l-3.1,0.2
		l-2.6-1.3v-0.3l-0.9-1V52l1.2-1.8l2.3-0.9l1.4-0.1l2.2,0.2l0.9,0.9l-0.1,0.6l-1.9-0.8l-1.5,0.5l-1.4,1.2l-0.6,1.2l-0.1,1.3l1,1.4
		l2.2,0.1l1.4-0.8l2.4-1.9l2.9-3.5l0.4-0.5l0.9-2.8l0.7-0.4l0.2-1.5l1-3l0.1-3.4l-0.2-1.8l-0.7-1.6l-1.9-1.2l-2.7,0.1l-2.3,1
		l-1.9,1.7l-3.6,4l-0.4,0.9l-3,4.4l-2.3,6l-1.4,3.9l-0.4,1.7l-1.2,2.6l-0.1,0.8l-1.5,4.5l-0.4,0.5v0.8l-0.8,1.9l-0.5,1.7l-0.6,2.4
		l-0.4,0.1l-0.7,2.4l-0.4,0.3l-1.2,4.2l-0.4,0.4v0.9l-0.4,0.4l-0.5,2.7l-0.6,1l-0.4,2.8l-1.3,0.8l-1.5-0.2l-0.7-0.5l-0.6,0.2
		l-1.3-1.2L126,84l1.1-4l0.7-0.7l-0.2-1.3l0.9-0.4l0.6-1.9l0.5-0.7l0.4-2.3l0.9-1.1l-0.1-0.7l0.7-0.8l-0.2-0.6l2.5-7.2l1-3.1
		l0.3-1.7l0.9-1.7l-0.2-1l1.3-2.4l0.3-2l0.7-1.3l-0.2-1.1l-0.2-0.1l1.1-2.5l0.4-2.2l0.9-0.4l-0.6-0.3l1.4-4.2l0.4-1.8l1.2-3.9
		l0.7-0.8v-0.3l-2.2,0.4l-3.2,1.2l-0.8-0.2l-0.3,0.6h-0.6l-1.7,1l-0.9,1l0.9,1.7l0.7,0.4l-0.7,0.8l-1.8-1.6l-3.3-3.3l1.3-0.7
		l2.7-0.5l4.1-0.7L138,32l0.6-0.5l0.4,0.3l0.9-0.4l2.2-0.3L143,30.6z"/>
	<path class="st1" d="M205.4,164.6l3.5-0.8l-0.1-0.5l1.6-0.8l0.1-0.5l0.6-0.2l1.4-2.7l0.5-2.1l0.9-3.8l-0.5-2.9l-0.3-0.4l0.1-1.5
		l-2.7-5.7l-2.1-2.5l-1.5-1.2l-1.1-0.8l-2.9-1.5l-3,0.1l-0.1,0.3l-1.2,0.5l-1.1,2.4l0.4,2.2l1.9,1.8l1.3,0.7l2.1,0.7l1.2-0.4
		l0.1-0.6l-2.1-0.1l-1.3-1.2l-0.8-1.7l-0.1-1.3l0.5-1.2l1.6-0.8l2.1,0.9l1,1.3l1.5,2.7l1.3,4.4l0.2,0.6l-0.3,2.9l0.6,0.7l-0.4,1.5
		l-1.5,3.4"/>
	<path class="st0" d="M177.7,44.6l1.5,0.1l3.4,2l0.3,0.5l1.4,1.3l-0.3,1.9l-1.4,1.7l-1,0.7l-3.7,2.4l-0.3,0.1l-0.4-0.1l-0.3,0.3
		l-4.1,1.4l-2,0.2l-0.1,0.3l-1.2-0.2l-1.4,0.3l-0.4,3.4l-0.2,0.1l1.4,2.7l2.3,1.2l1.6,0.1l1.5-0.1l2.5-0.6l3-1.6l0.4-0.2l2.7-1.9
		l-1.1,2.1l-2.3,2l-3.3,1.4l-3,0.7l-1-0.3l-1,0.2l-0.5-0.4l-0.5,0l-2.5-1.2l-2.3-2l-0.7-1.2l-0.7-1.7l-0.1-4.1l-2-2l0.7-0.2l1.5,0.9
		l0.5-0.8l2-3.4l2.4-2.4l2.3-1.6l3.6-1.6l1.6-0.2L177.7,44.6z M179.7,46.6l-1.8,0.4l-2.5,1.2l-1.9,1.5l-2.7,2.5l-2.3,4l0.1,0.2
		l0.3,0.2l2.7-0.6l3.8-1.6l4-2.9l1.6-2.1l0.4-1.2l-0.2-1.3L179.7,46.6z"/>
	<path class="st0" d="M206.9,34.7l3.2-0.2l0.5,0.3l2,0.4l2,1.4l0.6,1.1l0.2,1.4l0.3,0.3l0.2,0.7l-0.3,0.3l0.3,0.4l-0.3,1.2l-1.1,2.3
		l-1.4,1.4l-2.4,1.3l-1.8,0.4l-2.3-0.4l-1.4-1.5l-0.4-0.9l0.3-2.4l1.4-1.4l1.3-0.1l1.5,0.3l-0.3,1.4l-1.1,0.7l-1-0.1l-0.8,0.6
		l0.5,1.4l1.1,0.8l1.7-0.6l1.3-1.4v-0.8l0.7-0.9l-0.1-0.6l0.3-0.2l0.1-0.9l-0.2-2.1l-0.9-1.7l-0.9-0.5l-1.1-0.1l-2.4,0.6l-2.9,2.1
		l-0.2,0.7l-0.3,0.3l-0.4,0.7l-1.4,2.9l-0.5,0.5l0.1,0.4l-0.6,0.9l0.1,0.2l-1.2,4.6l-0.2,2.4l-0.3,0.7l-0.2,2.7l-0.1,1l-0.5,0.7
		l0.3,0.7l-0.2,0.4l0.1,0.4l-0.2,3.4l-0.3,0.4l0.4,0.1v1.3l-2.2,0.2l-0.3-0.3l-0.7,0.2l-0.9-0.4l-0.6-1.1l0.1-2l-0.2-5.7l0.2-1.3
		l-0.2-1.1l0.2-1.1l-0.2-2.5l-0.2-0.7l0.2-1.5l-0.1-2.7l-0.5-3.7l-0.6-1.6l-1.6,1.3l-2.4,2.3l-0.9,1l-0.5,1.3l0.1,0.7l1,0.9l0.4,0.9
		l-0.6,0l-2.2-1.3l-1.9-1.7l0.6-1.2h0.9l0.2-0.5l0.7-0.2l0.7-0.7l0.3,0L187,41l0.9-0.3l1.7-1.4l1.5-0.9l0.3-0.2l0.3-1l1.7-0.4
		l0.6,0.3h1.3l1.2,0.4l0.5,0.4l0.1,0.5v1.3l-0.5,0l0.5,0.3l0.2,0.6l-0.3,0.3l0.4,0.9l0.2,1.6l-0.2,0.4l-0.1,2.7l0.2,0l0.2,0.7
		l0.5-0.1l0.2-1.6l1.2-2.8l1.1-2.6l1.8-2.6l1.9-1.4l0.6-0.6L206.9,34.7z"/>
	<path class="st0" d="M237.1,43.7v1.1l-0.6,1.4l-0.1,0.8l-0.4,0.2l-0.1,0.5l-1.8,1.5l-0.6,0.5l-1.1,0.4l-1.8,0.3l-0.1-0.1l-1.6-0.3
		l-0.9-0.3l-0.6-0.2l-1.3-1.3l-0.4-0.8l0-2.1l0.3-1.1l1-0.9L228,43l0.5,0l0.4,0.1l1.5,1v0.1l0.6,0.3l0.1,0.3l-0.7,0.2l-1.3-0.1
		l-0.7,0.3l-1.2,1.1l-0.2,0.8l0,0.2l0.4,0.6l0.2,0.5l1.1,0.5l1.2,0.2l1-0.3l2.1-1.5l1-1.5l0.1-0.7l0-2.5l-0.8-1.8l-0.3-0.4l-1-0.8
		l-0.5-0.1l-0.2-0.3l-0.4,0l-1.7-0.4l-0.9,0.3l-0.2-0.1l-0.2,0l-0.2,0.2l-0.8,0.1l-1.8,0.8l-1.7,1.8l-0.5,0.7l-1,3.3l-0.1,0.5
		l0.1,1.8l0.2,0.6l0,0.3l0.2,0.3l1.3,2.3l1.5,1.8l3.8,3.6l3.1,3.5l0.8,1.9l0.6,0.5l0.4,1.5l0.2,3.2l-0.2,1l-0.4,1.3l-0.3,0.2
		l0.1,0.4l-0.8,1v0.5l-0.9,0.8l-0.2,0.8l-0.7,0.2l0.1,0.3l-0.8,0.7l-0.1,0.2l-0.6,0.2l-0.5,0.6l-1.8,1.1h-0.2l-3.1,1.1l-2.3,0.3
		l-2.9,0.1l-0.4-0.2l-0.6,0.2l-2.3-0.7l-3.5-2l-1.1-1.2l-0.6-0.3l-1.7-2.1l-0.2-0.7l-0.4-0.5l-0.4-2.1l0.1-1l-0.2-0.5l0.4-1.1l0-0.7
		l0.5-1.1v-0.5l0.4-0.3l0.1-0.5l0.7-0.7l0.2-0.4l0.6-0.5l0.2-0.5l2.9-1.7h0.4l0.1-0.1l2.3-0.8l3.6-0.1l1,0.2l2,0.8l0.8,0.5l1.6,1.8
		l0.9,1.8v0.6l0.2,0.8l-0.3,0.2l0.2,0.8l-0.6,1.4l-0.3,0.1l0.1,0.1l0,0.2l-0.7,0.3l-0.3,0.8l-1.1,0.8l-0.3,0.6l-1.3,0.2l-0.4,0.3
		l-2.3,0l-1.8-0.8l-1.2-1.6l-0.4-1.5l0.9-2.7l0.5-0.3h0.2l0.2,0.1l0.3,0.4l-0.6,1l0,1.5l1.6,1.6l0.4,0.2h0.5l0.4,0l1.8-0.7l0.9-1.2
		l0.1-0.4l0.5-0.5l0.3-2.1l-0.4-1.5l-0.5-1.1l-1.4-1l-1.5-0.4l-2.1,0.2l-2.9,1.5l-2,1.9h-0.1l-1.6,2.7l-0.2,1.3l-0.3,0.6v2.9
		l0.8,2.6l0.4,0.5l1.7,1.7l0.8,0.4l0.8,0.5l1,0.2l0.2,0.3l0.8-0.1l0.9,0.3l2.7-0.3l2.2-0.8h0.5l0.3-0.4h0.2l1.6-1.2l2-2l0.1-0.5
		l0.6-0.7l-0.1-0.2l0.5-0.5l1.3-3.6l0-2.6l-0.5-1.8l-0.9-2.3l-0.8-1.6l-0.4-0.3l-0.2-0.3l-0.3-0.3l0-0.3l-2.3-2.4l-0.4-0.5l-2.4-2.8
		l-1-1.7l-0.9-1.4l-0.8-2.4l0.2-0.2l-0.1-0.8v-0.4l0.5-2.4l0.6-1l0.5-0.8l2.3-1.5l1-0.5l2.8-0.6l0.3,0l3.4,0.1l1.1,0.3l2.3,0.8
		l1.8,1.1l0.6,0.5l0.6,0.9L237.1,43.7z"/>
	<path class="st0" d="M265.5,41.5l3.3,0.5l1.3,0.5l2.3,1.6l0.1,1.7l-0.2,2.9l0.2,1l1.2-2l3.3-3.1l1.5-1.2l3-2l0.9-0.2l2.5,0.5
		l1.3,0.8l1.3,1.6l-0.1,0.9l0.3,0.5l0.1,1.2l-0.5,0.4l0.1,0.4l-1.3,2.4l0.1,0.7l-0.7,0.7l0.1,0.3l-0.2,1.6l-0.3,0.4h-0.4l0.1,0.6
		l-0.4,0.3l-0.3,1.4l0.1,0.3L284,58l0.2,0.8l-0.4,0.7l0.3,0.5l0.9,0.2l2.8-2l0.5-0.1l0.1-0.5l1.7-1.1l1.4-1.4l0.3,0.2l-0.2,1
		l-1.7,2.5l-1.4,1.1l-0.1,0.5l-2.2,1.2H286l-0.4,0.6l-1.5,0.5l-1-0.4l-0.2-0.3l-1.5-0.3l-1.7-2.4l-0.7-3.1l-0.2-1l0.2-0.5l0.5-2.4
		l1.8-5.1l0.8-1.2l0.5-1.9l-0.4-0.8l-0.5-0.2l-2.7,1.4l-3,3.3l-2.3,3.4l-1.5,3.3l0.1,0.3l-3.2,6.5l-0.6,0.9l-1.1,3l-0.5-0.5
		l-0.4,0.2l-0.9-0.4v-0.5l-0.4-0.1l0.1,0.3l-0.8-0.1l-1-1l0.1-0.8l0.7-3l0.8-2.2l-0.2-1.1l0.5-0.6l-0.1-0.8l1.5-5.7L267,46l-0.2-2.6
		L265.5,41.5z"/>
	<path class="st0" d="M303.6,40h1.6l2.6,0.6l2.5,1.5l2,1.6l1.4,2.1l0.8,2.8l-0.4,2.8l-0.8,2.6l-0.3,0.3l-0.1,0.7l-0.9,0.9l-0.3,1.2
		l-0.5,0.5l-0.4,0.9l-0.2,0.3l1.7,2.2l2.4,0.4l0.8-0.1l0.7-0.5h0.2v1.1l-0.1,0.6l-0.5,0.5l-1.6,0.8l-0.9,0.1l-1.3-0.4l-1.6-2.2V61
		l-0.9-1.5l-0.3,0.6l-0.3,0.1l-3,1.9l-1.7,0.6l-1.1,0.7l-2.5,0.9l-1.4,0.1l-0.2,0.2l-3.1,0.2l-1.1-0.3l-1.5-1.1l-0.7-1l0.1-0.3
		l-0.4-1.3l0.1-1.4l0.2-0.2l-0.2-0.5l0.8-2.2l1.5-1.6l0.4-0.7l0.7-0.1l0.5-0.6l0.5,0l0.4-0.5l1.1-0.2h0.5l0.2-0.4l2.7-0.2l1.8,0.3
		l1.1,0l0.5,0.4l0.7,0.2L306,54l0.5,0l1.1,1.2l0.4,0.2l0.8-1.1l1-1.9l0.5-0.3l1.1-3l-0.3-0.5l0.5-0.8l-0.4-0.8l0.3-0.8l-0.3-1.1
		l-0.4-0.5l0.1-0.3l-1.3-1l-0.2-0.3l-2-0.4l-1.9,0.1l-1.4,0.3l-1.9,0.4l-2.9,1.5l-2.2,2.1l-0.5,0.6l-0.4,0.8l0.1,0.6l0.4,0.9
		l0.9,0.5l-0.2,0.4h-0.3l-1.6-0.8l-0.2-0.4l-1.1-0.9l-0.5-0.9l-0.9-0.8l-0.8-1.1l0.1-0.7l1.2-1.1l1.3-1l1-0.2l0.4-0.8l0.5,0.1
		l0.7-0.6l4.4-1.3L303.6,40z M303.7,54.5l-1.3,0l-2.7,0.8l-0.8,0.2l-2.6,2l-0.7,0.5l-1,1.9l-0.4,0.4l-0.2,1.6l0.2,0.3l-0.1,0.3
		l0.4,0.5l1.2,0.3l1.6-0.1l1.6-0.5l0.2-0.3l0.9-0.2l4.4-3.2l1.6-1.6l0.8-1l-1.5-1.6l-0.7,0.1L303.7,54.5z"/>
	<path class="st0" d="M339.9,41.2l1.1,0.2l1.7,0.8l1.2,1l-0.8,1.4l-0.2,1.1l-0.5,0.5l0,1l-0.3,0.1l0,0.3l-0.5,0.3l-0.2,0.5l0.3,0
		l-0.4,1.2l-0.2,0.3l0.2,0.5l-1.4,2.7l0.1,0.7l-0.2,0.5l-0.3,0.2l0.2,0.3l-0.9,1.7l0,0.3l-0.2,0.3l0.2,0.4l-0.5,0.5l-0.4,1l-0.3,0.2
		l0.1,0.8L337,60l0.1,0.6l-0.5,0.9l-0.7,2.7l-0.9,1.7l-0.1,0.6l-0.3,0.3l0,0.4l-0.3,0.6l-0.3,0.1l-0.9,2.7l-0.3,0.3l0,0.5l-0.6,0.5
		l-0.2,0.8l-0.2,0l-0.6,2.2l-0.5,0.3l-0.7,1.8l-1,0.8l-1.3,2l-0.2,0.1l-2.6,3.4l-3.6,2.5l-1.7,0.8l-2.8,0.7l-2.3-0.2l-0.4-0.5
		l-0.9-0.5l0.1-0.3L312,85l0-0.2l-0.5-1.3l1.7,1.6l2.5,0.6l1.5-0.2l2.2-1.1l2.1-1.4l1.5-1.6l1.7-2.6l0.2-0.2v-0.3l1.5-2.5l0.5-0.2
		l0.1-1.2l1-1.5v-0.3l0.8-2.1l0.4-0.3l0.7-3.1l0.8-1.4l0-0.3l1.6-4.6l0.2-1.3l1-2.4l-0.3-0.3l-1,1.6l-0.3,0.2l-2.5,2.6l-3.3,1.8
		l-2.6,0.3l-2.1-0.5l-1.7-1.1l-0.7-0.9l-0.8-2.2l-0.2-2.5l0.1-2.2l0.2-0.3l0.1-1.4l1.2-2.9l0.5-0.4v-0.5l2-2.8l0.9-0.8l1.6-1
		l0.3-0.5l1.9-1h0.6l1.7-0.5l2.3,0.1l0.4-0.1l1.1,0.5l0.7,0.1l1.4,1.3L336,45v1l-0.4,0.8l-0.7-0.3l-0.3-1.6l-2.8-0.3l-2.7,1l-1.4,1
		l-0.3,0.6l-1.8,1.4l-0.2,0.8l-0.7,0.7l-0.9,2.2l-0.8,1.5l-0.9,3.4l-0.2,0.3v2l0.2,1.4l0.3,0.7l0.6,0.5h1.4l1.6-0.5l3.5-2.2l0.9-1.1
		l0.5-0.3l0.9-1.1l0.9-1.8l0.9-0.9l1.2-3.2l0.7-1l0-0.3l0.4-0.4l1-1.7v-0.7l0.4-0.3l0.7-2.2l1.1-2L339.9,41.2z"/>
	<path class="st0" d="M360.9,39.6l1.6,0.2l3.8,2.2l0.3,0.5l1.5,1.5l-0.3,2.2l-1.5,2l-1.1,0.7l-4.2,2.8l-0.4,0.1l-0.5-0.1l-0.4,0.4
		l-4.6,1.5l-2.2,0.3l-0.1,0.3l-1.3-0.2l-1.5,0.3l-0.5,3.9l-0.2,0.1l1.5,3l2.6,1.3l1.8,0.1l1.7-0.2l2.9-0.7l3.4-1.7l0.4-0.3l3-2.2
		l-1.3,2.4l-2.6,2.2l-3.7,1.5l-3.4,0.7l-1.1-0.3l-1.1,0.2l-0.6-0.4l-0.5,0.1l-2.9-1.4l-2.6-2.3l-0.8-1.3l-0.7-2l-0.1-4.7l-2.2-2.3
		l0.7-0.2l1.7,1.1l0.6-1l2.2-3.8l2.7-2.6l2.6-1.8l4-1.9l1.8-0.3L360.9,39.6z M363.1,41.8l-2,0.5l-2.8,1.3l-2.1,1.7l-3,2.9l-2.6,4.5
		l0.1,0.3l0.3,0.2l3-0.6l4.3-1.9l4.5-3.2l1.8-2.3l0.5-1.3l-0.2-1.5L363.1,41.8z"/>
	<path class="st0" d="M371.8,39.6l3.4,0.5l1.4,0.5l2.4,1.7l0.1,1.8l-0.2,3.1l0.2,1.1l1.2-2.1l3.5-3.2l1.6-1.3l3.1-2.1l1-0.2l2.7,0.5
		l1.4,0.8l1.4,1.7l-0.1,1l0.3,0.5l0.1,1.3l-0.5,0.4l0.1,0.4l-1.4,2.5l0.1,0.8l-0.7,0.7l0.1,0.3l-0.2,1.7l-0.3,0.4h-0.4l0.1,0.6
		l-0.4,0.3l-0.3,1.4l0.1,0.3l-0.3,1.8l0.2,0.9l-0.4,0.7l0.3,0.5l0.9,0.2l3-2l0.6-0.1l0.1-0.5l1.8-1.1l1.4-1.4l0.3,0.2l-0.2,1.1
		l-1.7,2.6l-1.4,1.1l-0.1,0.5l-2.3,1.3h-0.4l-0.4,0.6l-1.5,0.5l-1-0.4L390,61l-1.6-0.3l-1.7-2.5l-0.7-3.2l-0.2-1.1l0.2-0.5l0.5-2.5
		l1.9-5.4l0.9-1.2l0.5-2l-0.4-0.8l-0.5-0.2l-2.8,1.5l-3.1,3.5l-2.3,3.5l-1.6,3.5l0.1,0.3l-3.3,6.8l-0.6,0.9l-1.2,3.1l-0.5-0.5
		l-0.4,0.2l-0.9-0.4v-0.5l-0.4-0.1l0.1,0.3l-0.8-0.1l-1-1l0.1-0.8l0.7-3.1l0.8-2.3l-0.2-1.1l0.5-0.6l-0.1-0.8l1.5-5.9l0.3-3.6
		l-0.2-2.7L371.8,39.6z"/>
	<path class="st0" d="M421.8,43.7v1.1l-0.6,1.4l-0.1,0.8l-0.4,0.2l-0.1,0.5l-1.8,1.5l-0.6,0.5l-1.1,0.4l-1.8,0.3l-0.1-0.1l-1.6-0.3
		l-0.9-0.3l-0.6-0.2l-1.3-1.3l-0.4-0.8l0-2.1l0.3-1.1l1-0.9l1.3-0.3l0.5,0l0.4,0.1l1.5,1v0.1l0.6,0.3l0.1,0.3l-0.7,0.2l-1.3-0.1
		l-0.7,0.3l-1.2,1.1l-0.2,0.8l0,0.2l0.4,0.6l0.2,0.5l1.1,0.5l1.2,0.2l1-0.3l2.1-1.5l1-1.5l0.1-0.7l0-2.5l-0.8-1.8l-0.3-0.4l-1-0.8
		l-0.5-0.1l-0.2-0.3l-0.4,0L414,39l-0.9,0.3l-0.2-0.1l-0.2,0l-0.2,0.2l-0.8,0.1l-1.8,0.8l-1.7,1.8l-0.5,0.7l-1,3.3l-0.1,0.5l0.1,1.8
		l0.2,0.6l0,0.3l0.2,0.3l1.3,2.3l1.5,1.8l3.8,3.6l3.1,3.5l0.8,1.9l0.6,0.5l0.4,1.5l0.2,3.2l-0.2,1l-0.4,1.3l-0.3,0.2l0.1,0.4l-0.8,1
		v0.5l-0.9,0.8l-0.2,0.8l-0.7,0.2l0.1,0.3l-0.8,0.7l-0.1,0.2l-0.6,0.2l-0.5,0.6l-1.8,1.1h-0.2l-3.1,1.1l-2.3,0.3l-2.9,0.1l-0.4-0.2
		l-0.6,0.2l-2.3-0.7l-3.5-2l-1.1-1.2l-0.6-0.3l-1.7-2.1l-0.2-0.7l-0.4-0.5l-0.4-2.1l0.1-1l-0.2-0.5l0.4-1.1l0-0.7l0.5-1.1v-0.5
		l0.4-0.3l0.1-0.5l0.7-0.7l0.2-0.4l0.6-0.5l0.2-0.5l2.9-1.7h0.4l0.1-0.1l2.3-0.8l3.6-0.1l1,0.2l2,0.8l0.8,0.5l1.6,1.8l0.9,1.8v0.6
		l0.2,0.8l-0.3,0.2l0.2,0.8l-0.6,1.4l-0.3,0.1l0.1,0.1l0,0.2l-0.7,0.3l-0.3,0.8l-1.1,0.8l-0.3,0.6l-1.3,0.2l-0.4,0.3l-2.3,0
		l-1.8-0.8l-1.2-1.6l-0.4-1.5l0.9-2.7l0.5-0.3h0.2l0.2,0.1l0.3,0.4l-0.6,1l0,1.5l1.6,1.6l0.4,0.2h0.5l0.4,0l1.8-0.7l0.9-1.2l0.1-0.4
		l0.5-0.5l0.3-2.1l-0.4-1.5l-0.5-1.1l-1.4-1l-1.5-0.4l-2.1,0.2l-2.9,1.5l-2,1.9h-0.1l-1.6,2.7L395,67l-0.3,0.6v2.9l0.8,2.6l0.4,0.5
		l1.7,1.7l0.8,0.4l0.8,0.5l1,0.2l0.2,0.3l0.8-0.1l0.9,0.3l2.7-0.3l2.2-0.8h0.5l0.3-0.4h0.2l1.6-1.2l2-2l0.1-0.5l0.6-0.7l-0.1-0.2
		l0.5-0.5l1.3-3.6l0-2.6l-0.5-1.8l-0.9-2.3l-0.8-1.6l-0.4-0.3l-0.2-0.3l-0.3-0.3l0-0.3l-2.3-2.4l-0.4-0.5l-2.4-2.8l-1-1.7l-0.9-1.4
		l-0.8-2.4l0.2-0.2l-0.1-0.8v-0.4l0.5-2.4l0.6-1l0.5-0.8l2.3-1.5l1-0.5l2.8-0.6l0.3,0l3.4,0.1l1.1,0.3l2.3,0.8l1.8,1.1l0.6,0.5
		l0.6,0.9L421.8,43.7z"/>
	<path class="st0" d="M477.1,20.2l1.1,0.1l0.6,0.5L474,37l-1.7,6l-1.5,4.8l-0.2,1.5l-0.7,1.7l-0.4,2l-2.6,9.4l-0.2,0.5l-0.9,2.3
		l-0.6,2.5l-0.3,0.3l-0.6,2.6l0.2,0.2h0.4l0.3-0.3l4.3-1.2l1.3,0.3l-2.1,0.9l-2.6,1l-2.1,0.5l-0.3,0.6l-1.3,3.6l0.1,0.5l-0.4,0.4
		l-0.9,0l0.1-1.1l0.8-2.7l-4.2,2.1l-0.3,0.1l-0.4,0l-0.8,0.5l-1.1,0.1l-0.6-1.2l-0.2-0.7l1.1-4.2l1-4l0.2-0.2l-0.1-0.4l0.4-0.9
		l-0.2-0.3l0.5-1.1l-0.1-0.2l0.4-1l-0.4,0.2l-0.9,1.2l-0.3,0l-0.4,1.2l-2.5,3.3l-2.3,2.2l-3,2.6l-4.2,1.1l-1.6-0.2l-1.8-0.7l-1.3-1
		l-1-1l-1.1-1.8l-0.4-1.5l-0.4-2.9l0.7-4.7l0.6-0.5l0.3-1.2l0.3-0.2v-0.3l1.3-1.8l2.2-2.7l1.3-1.1l2.8-1.5l1-0.5l3.4-0.4l2.1,0.2
		l2.8,1.1l1.2,1.5l0.7,2.1l-1,1.7l-0.9-0.2l0.3-0.8l-0.2-0.4l0.3-0.3l-0.1-0.6l-0.4-0.9l-1.6-0.8l-0.5,0.1l-1.1-0.2l-1.7,0.4
		l-2.2,1.6l-3,3.3l-0.6,0.9v0.3l-0.4,0.1l-1.9,3.9l-0.3,1.4l-0.2,0.2l0.1,0.2l-0.4,2.8v1.6l0.5,1.8l0.8,1.2l1.4,0.5l1.7-0.1l2.6-1.7
		l2.5-2.1l3.1-3.4l1-1.6l0.4-0.3v-0.3l0.8-0.7l-0.1-0.5l0.6-0.5l0.4-1.7l0.8-1.6l0.4-0.7l-0.1-0.4l0.6-0.1l-0.1-0.5l0.5-0.4l1.1-3
		l1.1-4.4l0.6-1l-0.1-0.5l0.4-0.4l-0.1-1.3l0.8-0.9l0.1-1.3l0.2-0.2l0.1-1.6l0.4,0l0.1-1.9l0.5-0.2l-0.1-0.7l0.7-1l-0.2-0.9l1.2-4.4
		l-0.2-0.2l0.9-2V28l0.4-1.3l0.4-2.2l0.4-0.2v-0.8l-4.4,1.5l-0.9,0.2l-2.6,1.2l-1.3,1.8l0.7,1.7h-0.6l-1-0.5l-1.8-2.4l-0.6-1.1
		l0.5-0.1v-0.3l0.4-0.4l1.2,0l2.7-0.9l8.1-2.1l1.4-0.5l2.2-0.4l1.7-0.5l1.3,0l-0.4,0.4l-3.1,1.1l1.5,1.2l0.4,1.6l-0.4,0.4l0.1,0.2
		l-0.3,0.2v1.9l-0.4,0.3l0.1,1l-0.6,1.7l-0.3,0.2l0.2,0.6l-0.6,1l-0.2,1.9l-0.3,0.1l-0.5,2.3l-0.2,0.2l-0.7,2.5l-0.4,0.6l-0.2,1.3
		l-0.4,1.7l-0.7,1.7l-1.2,4.8l-0.5,0.3l0.1,0.6l-1.1,3.8l-0.1,1.1l-1.2,3.1l-0.1,1.2l-0.9,0.6l0.5,0.6l-0.2,0.2l0.1,0.9l-0.3,0
		l0.2,0.3l-0.7,1.8l-0.4,2.3l-0.4,0.2l-0.1,0.6l0.3,0.2l-0.9,2.1l-0.3,1.9l0.4,0.3l2.7-1l0.2-0.2l0.7-3.4l0.7-1.3l-0.1-0.3l0.2-0.3
		l2-6.6l2.4-8.7l0.8-3.7l0.9-3.4l0.7-1.7l0.8-2.5l1.1-4.5l1.2-3.1l0.1-0.4l1.8-6.6l1-3.4L477.1,20.2z"/>
	<path class="st0" d="M491.7,51.4l1.5,0.1l3.5,2l0.3,0.5l1.4,1.4l-0.3,2l-1.4,1.8l-1,0.7l-3.9,2.5l-0.3,0.1l-0.4-0.1l-0.3,0.3
		l-4.2,1.4l-2,0.2l-0.1,0.3l-1.2-0.2l-1.4,0.3l-0.4,3.5l-0.2,0.1l1.4,2.8l2.3,1.2l1.7,0.1l1.6-0.1l2.6-0.6l3.1-1.6l0.4-0.2l2.7-2
		l-1.2,2.2l-2.3,2l-3.4,1.4l-3.1,0.7l-1-0.3l-1,0.2l-0.6-0.4l-0.5,0l-2.6-1.3l-2.3-2.1l-0.7-1.2l-0.7-1.8l-0.1-4.3l-2-2.1l0.7-0.2
		l1.6,1l0.6-0.9l2-3.5l2.5-2.4l2.3-1.6l3.7-1.7l1.6-0.2L491.7,51.4z M493.7,53.4l-1.8,0.4l-2.6,1.2l-2,1.6l-2.7,2.6l-2.3,4.1
		l0.1,0.2l0.3,0.2l2.7-0.6l3.9-1.7l4.1-3l1.6-2.1l0.4-1.2l-0.2-1.4L493.7,53.4z"/>
	<path class="st0" d="M252.1,92l2.3,0.2l0.2,0.1l2.8,1l0.1,0.3l-0.5,1.4l-0.7,2.1l-0.6,1.8l-0.2,0.1l-0.9,3.4l-0.4,0.2l0.2,0.9
		l-0.4,1.2l-0.7,0.4l0.2,0.7l-0.3,0.5l0.1,0.5l-0.4,0.5l0.1,0.9l-0.4,0.7l-0.9,3.7L251,114l-0.9,3l-0.4,0.7l0.1,0.4l-0.6,1.1
		l0.2,0.2l-0.9,4l-0.8,5.6l-0.3,0.9l-0.2,2.2l0.3,1.1l-0.5,1.2l0.5,0.2l-0.2,1.4l0.3,1.8l0.2,0.3l-0.1,0.4l0.9,2.4l1.3,1.7l1.8,1.1
		l2,0.4l0.4-0.2l0.8,0.2l1.6-0.5l2.6-1.6l0.9-0.8l2.7-4.5l0.8-1.7l0.6-2.1l0.8-2.8l0.1-4.4l-0.4-2.6l-0.5-1l-1.4-1.3l-2.6-0.6
		l-2,0.5l-1.3,1l-1.7,2.9l0.2,0.3l-0.1,3.9l0.7,1.9l0.4,0.3l1,0.3l2.1-1.1l0.7-1.2l0.4-0.3l0.3,0.6l-0.3,0.9l-1.7,1.9l-1.3,0.4
		l-1.1,0l-2.2-0.9l-1.7-2.3l-0.5-1.5l-0.4-1.8l0.5-2.3l0.2-0.5l0.3-1l1.8-1.9l1.3-0.7l4.6-0.9l1.1,0.1l2.1,0.4l1.3,1l0.5,0.1
		l2.2,2.2l1,2.5l0.2,0.3l0.3,2.4l-1,5.3l-0.3,0.3l0.2,0.4l-1.3,2l-0.3,1.1l-2.6,3.2l-3.2,2.6l-2.7,1.3h-0.4l-1.5,0.4l-3.4,0.3
		L252,145l-1.3,0l-2.8-1.6l-3-3.2l-0.8-1.7l-0.4-1.1l-0.4-2l-0.1-1.2l-0.2-3.6l0.4-1.1l-0.3-0.2l0.3-0.8l-0.2-0.9l0.5-2.1l-0.3-1.3
		l0.3-1.6l0.3-0.3l0.8-3.2v-1.5l1.3-3.3l-0.3-0.7l0.4-1.5l0.1-0.4l0.5-1.1l-0.1-0.3l0.8-2.3l0.3-0.1l-0.2-0.8l0.4-0.3l0.3-2.4
		l0.5-0.2l-0.3-0.3l0.4-1.1l0.1-0.6l2.3-7.6l-0.2-0.3l0.8-1l-0.5-0.2l-1.6,0.6l-0.3,0.4l-0.7,0.1l-0.9,0.8l-0.2,0l-1,0.8l-1.4,0.9
		l-0.8,0.9l-0.3,1l0.2,1l0.6,0.4l0.3,0.8l-0.3,0.2l-2.2-1.5l-2.1-1.7L241,97l1.9-1.2l1-0.1l1.6-0.7l0.9-0.3l0.3-0.3l0.7-0.2l0.4-0.5
		l2.1-0.6l0.4-0.3h0.5l0.7-0.5L252.1,92z"/>
	<path class="st0" d="M287.2,116.1h2l3.1,0.7l2.9,1.8l2.4,1.9l1.6,2.5l0.9,3.4l-0.5,3.3l-1,3.1l-0.4,0.3l-0.1,0.9l-1.1,1l-0.4,1.5
		l-0.6,0.6l-0.5,1l-0.3,0.3l2,2.6l2.9,0.5l1-0.2l0.8-0.6h0.3v1.4l-0.1,0.7l-0.7,0.6l-1.9,1l-1,0.2l-1.6-0.5l-1.9-2.6v-0.2l-1-1.8
		l-0.3,0.7l-0.4,0.1l-3.6,2.3l-2,0.7l-1.4,0.9l-3,1l-1.6,0.2l-0.2,0.3l-3.7,0.3l-1.3-0.4l-1.8-1.4l-0.8-1.2l0.1-0.3l-0.5-1.5
		l0.1-1.6l0.3-0.2l-0.3-0.6l1-2.6l1.8-1.9l0.5-0.9l0.8-0.1l0.6-0.7l0.6,0.1l0.5-0.6l1.3-0.3h0.7l0.3-0.5l3.2-0.3l2.2,0.4l1.3,0.1
		l0.6,0.5l0.8,0.3l0.3,0.6l0.7,0.1l1.3,1.5l0.5,0.2l0.9-1.4l1.2-2.3l0.6-0.3l1.3-3.6l-0.3-0.6l0.7-0.9l-0.5-1l0.3-0.9l-0.4-1.3
		l-0.5-0.6l0.1-0.4l-1.6-1.2l-0.2-0.4l-2.4-0.5l-2.2,0.1l-1.6,0.4l-2.2,0.5l-3.5,1.8l-2.7,2.5l-0.7,0.7l-0.5,1l0.1,0.7l0.5,1.1
		l1,0.6L280,129h-0.4l-2-0.9l-0.3-0.5l-1.3-1.1l-0.6-1.1l-1-0.9l-0.9-1.3l0.1-0.9l1.4-1.4l1.5-1.2l1.2-0.3l0.5-1l0.6,0.1l0.8-0.7
		l5.2-1.6L287.2,116.1z M287.4,133.5l-1.5,0.1l-3.3,0.9l-0.9,0.2l-3.1,2.4l-0.8,0.6l-1.2,2.2l-0.5,0.5l-0.2,1.9l0.3,0.4l-0.1,0.4
		l0.5,0.6l1.4,0.4l2-0.2l2-0.6l0.3-0.3l1-0.2l5.3-3.8l1.9-1.9l1-1.2l-1.8-1.9l-0.8,0.1L287.4,133.5z"/>
	<path class="st0" d="M323.5,98.9l0.9,0.3l-0.1,0.6l-0.7,3.6l-0.6,1.9l-1.8,6.9l-0.7,2.2l-0.2,0.1l0.9,0.5l4.9,0.1l0.1,0.1l-0.3,0.2
		l-6.2,1.1l-0.2,1l0.1,0.4l-0.4,0.4l-0.8,3.3l-0.3,0.5l0.1,0.5l-0.4,0.5v1.3l-0.4,0.5l0.2,0.3l-0.3,0.1l-0.7,2.8l-0.2,0.1l-0.1,1.1
		l-0.3,0.2l-0.2,0.7l0.1,0.4l-0.5,1.4l0.1,0.4l-0.3,0.2l-0.7,2.5l-0.8,2.1l-0.7,3l-0.1,0.6l-0.4,0.8l0.1,0.3l-0.7,1.9l0.1,0.3
		l-0.6,0.8l0.1,0.4l-0.6,1.2l0.1,0.6l1.4,0.8l2.6-0.2l-1.5,1.3l-0.6-0.1l-0.5,0.3l-1.9-0.1l-0.8,1.5l0.2,0.2l-0.2,0.6l-0.5,0.4
		l0.2,0.2l-0.4,0.4v0.8l-0.4,1.3l-0.2,0.8l-0.6,0.1l-0.5-0.3l-0.1-0.7l0.9-2.1l0.7-2.8l0.3-0.3l0.1-0.9l-1.7-1l-2-2.3l-0.2-0.5
		l-0.8-3.2l0.2-0.3l-0.5-1.9l0.5-1.8l-0.1-0.1l0.3-0.4l-0.3-0.3l0.7-2.8l0.3-1l0.4-2.2l0.3-2l0.7-2.1l0.5-0.1l-0.2-0.3l0.4-1
		l0.4-1.6l-0.2-0.4l0.5-1.1l-0.4-0.1l0.5-0.5l0.7-2l0.2-1.6l-3.8,1l-0.3-0.5l0.2-0.2l-0.8-0.6l-0.5-1.3l0.2-0.3l0.8,0.1l0.4-0.3
		l0.9,0.2l3,0l0.8-0.4l0.4-0.8l-0.2-0.7l0.3-0.1l1.1-4.1l0.4-0.1l-0.1-0.6l0.6-2l-0.1-0.6l0.9-2.4l-0.1-0.9l0.4-0.4l-0.1-0.5
		l0.4-0.6l0.3-2.6l0.2-0.2l1.9,0.4l2.6,1.3l0.5,0.7l-0.4,2.4l-0.2,1.7l-0.3,0.3l-0.4,2.8l-0.5,0.4l0.1,0.8l-0.4,1l0.1,0.1l-0.8,2.8
		l-0.7,0.7l0.4,0.4l-0.2,0.3v0.8l0.8,0.1l2.2-0.3l1.3-3.9l1.1-5.3l1.6-5.3L323.5,98.9z M318,116.9l-2.8,0.3l-0.3,1l0.3,0.4l-0.5,0.8
		l-0.3,0.1l-0.1,1.3l-0.5,0.7l-0.2,0.8l-0.6,2.7l-1.1,2.9l0.2,0.5l-0.5,1.4l-0.2,0.2l0.1,0.3l-0.8,2.6l-0.9,3.6l-0.3,2.4l0.1,0.4
		l-0.2,0.2l-0.6,3.4l0.3,1.3l-0.1,0.8l0.7,1.4l0.5,0.2l-0.3-0.4l0.4-0.4V145l1.3-3.5l0.2-1.5l0.7-1.4l-0.1-0.3l0.8-2.5v-0.7l0.3-0.2
		l0.1-0.9l0.4-0.8l-0.2-0.6l1-3.1l0.5-0.3l0.1-1.3l0.4-1.5l1.9-6.3l0.2-0.2l0.2-1.3l0.3-0.8l0.3-1H318z"/>
	<g>
		<path class="st0" d="M249.8,45.5c0.2-0.1,0.1-0.4-0.2-0.3c-1.8,0.4-5.2,1.6-7.9,5.4c-1.7,2.4-2.6,6.5-1.1,10.4
			c4.5,11.7,13.9,5,13.9,5s2.8-1.5,4.7-5.7c1.6-3.7,2.3-11.5-0.5-15.3c-6.3-8.4-15.2-1.2-15.1,4.8c0.1,2.6,1.3,4,2.7,4.7
			c2.2,1.1,6.4-0.1,5.5-4.2c0,0-0.9-0.4-0.7,0.4c0.2,0.8,0.7,2.4-1.3,3.3c-2,0.9-5.2-0.3-5-4.9c0.2-2.9,1.9-5,4.4-5.6
			c2.5-0.6,8.5,3,7.5,11.2c-1,8.2-3.1,10.2-4.1,11.2c-1.1,1-8.1-1.8-9.1-9.1C242.6,50.9,246.1,47.5,249.8,45.5z"/>
		<path class="st0" d="M251.6,66.8l-0.5-0.4c3.8-4.2,3.9-11.3,3.9-12.7c0-3.8-1-6.6-2.8-8.3c-1.9-1.8-4.3-1.6-4.3-1.6l-0.1-0.6
			c0.1,0,2.6-0.2,4.8,1.8c2,1.8,3,4.7,3,8.7C255.7,55.1,255.6,62.4,251.6,66.8z"/>
	</g>
	<g>
		<path class="st0" d="M336.4,120.9c0.2-0.1,0.1-0.5-0.2-0.4c-2.3,0.5-6.9,2.1-10.5,7.2c-2.3,3.2-3.4,8.6-1.4,13.8
			c5.9,15.4,18.4,6.6,18.4,6.6s3.8-2,6.2-7.6c2.2-4.9,3-15.2-0.7-20.2c-8.3-11.1-20.1-1.6-19.9,6.4c0.1,3.4,1.8,5.4,3.5,6.2
			c2.9,1.5,8.5-0.2,7.2-5.5c0,0-1.2-0.5-1,0.5s0.9,3.2-1.7,4.3c-2.7,1.2-6.9-0.4-6.6-6.5c0.2-3.8,2.5-6.6,5.8-7.4
			c3.3-0.8,11.3,4,10,14.8c-1.3,10.9-4.1,13.5-5.4,14.8c-1.4,1.3-10.7-2.3-12.1-12C326.9,128,331.5,123.5,336.4,120.9z"/>
		<path class="st0" d="M338.8,149l-0.6-0.5c5-5.6,5.1-14.9,5.1-16.8c0-5.1-1.3-8.7-3.7-11c-2.6-2.4-5.7-2.2-5.7-2.1l-0.1-0.8
			c0.1,0,3.5-0.3,6.3,2.3c2.6,2.4,3.9,6.3,4,11.6C344.2,133.6,344,143.2,338.8,149z"/>
	</g>
	<g>
		<path class="st0" d="M222.3,115.5c0.2-0.1,0.1-0.5-0.2-0.4c-2.3,0.5-6.9,2.1-10.5,7.2c-2.3,3.2-3.4,8.6-1.4,13.8
			c5.9,15.4,18.4,6.6,18.4,6.6s3.8-2,6.2-7.6c2.2-4.9,3-15.2-0.7-20.2c-8.3-11.1-20.1-1.6-19.9,6.4c0.1,3.4,1.8,5.4,3.5,6.2
			c2.9,1.5,8.5-0.2,7.2-5.5c0,0-1.2-0.5-1,0.5c0.2,1,0.9,3.2-1.7,4.3c-2.7,1.2-6.9-0.4-6.6-6.5c0.2-3.8,2.5-6.6,5.8-7.4
			c3.3-0.8,11.3,4,10,14.8c-1.3,10.9-4.1,13.5-5.4,14.8c-1.4,1.3-10.7-2.3-12.1-12C212.8,122.6,217.4,118,222.3,115.5z"/>
		<path class="st0" d="M224.7,143.5l-0.6-0.5c5-5.6,5.1-14.9,5.1-16.8c0-5.1-1.3-8.7-3.7-11c-2.6-2.4-5.7-2.2-5.7-2.1l-0.1-0.8
			c0.1,0,3.5-0.3,6.3,2.3c2.6,2.4,3.9,6.3,4,11.6C230.1,128.1,229.9,137.8,224.7,143.5z"/>
	</g>
	<path class="st1" d="M208.3,149.6c-5.2,13.6-29,8.5-29,8.5l4.4-37.1l0.1-0.7l0-0.2l0.2-1.4l0.7-2.6l0.1-2l0.9-4.8l1.5-7.4l-0.6-3.9
		l0.9-7.8c0.3-0.2,0.5-0.4,0.3-0.3l-0.2,0l0.2-2.2l-1.7-1.2l-4.2-1.1l-1.1,0.3l-1.1,0.9l-2.8,0.9l-1.1,0.7l-0.6-0.3l-0.7,0.8
		l-1.1,0.2l-5.3,2l-3.4,1.3l-1.5,1.2l5.1,2.7l2.8,1.3l0.8-1.1l-1.1-0.3l-1.7-1.6l0.9-1.4l1.9-1.6l0.8-0.2l0.3-0.8l1.1,0l3.8-2.3
		l-11.7,65.7c0,0-34.3,4.6-25.4,13.7c8.9,9,30.9-4.9,30.9-4.9s34.5,16.3,40.9-3.3L208.3,149.6z M140.8,165.1
		c-1.1-3.6,12.2-8.7,19.9-8.7c5.7,0,6.9,3,6.9,3C162.9,166.2,142.7,171.6,140.8,165.1z M169.9,153.8l9.7-65.4h2.3l-1.4,9.3l0.3,3
		l-1.3,1.5l-0.9,5.7l-0.6,1.7l0.1,2.4l-1.1,3l0.6,1.1l-0.7,2.1l0,2l-0.5,3.7l-1.5,8.8l0.4,0.6l-0.7,1l0.3,0.7l-0.8,1.5l0.1,2.6
		l-0.5,0.9l-0.2,2.3l-1,0.7l0.7,1.4l-0.7,1l-0.4,4.8l-0.3,3.3l0.1,0H169.9z"/>
	<path class="st1" d="M71.1,64.7l-0.6-3l-0.7-1.5l-0.6-1l-1.8-2.2l-2.7-0.6l-0.3,0.3l-1.3,0.2L61,59.1l-0.7,2.3l0.7,2.2l0.8,1
		l1.5,1.2l1.3-0.1l0.4-0.6l-1.8-0.6l-0.5-1.4l0.1-1.9l0.6-1.4l1.1-1.1l1.8-0.5l1.4,1.3l0.2,1.5l0,3.1l-1.1,4.7l-0.1,0.7l-1.7,2.9
		l0.2,0.8L64,74.5l-1.8,3l-1.9,2c-2.3,0-4.7-1.1-5.9-4.4c-0.5-1.5-14.4-44.2-17.2-52.6l0.1-0.2l-0.8-1.8L34,17.9l-0.9-0.1l-1,0.5
		l-2.2,0l-1,0.3l-0.3-0.4L28,18.7l-0.8-0.2l-4.2,0.2L20.2,19l-1.4,0.6l2.7,4.4l1.5,2.2l0.9-0.8l-0.7-0.6l-0.6-2.2l1-1.1l1.8-1
		l0.6,0.1l0.4-0.7l0.8,0.4l3.3-1l2.3-0.1l0,0.3l-0.8,0.8l-1.8,4.4l-0.7,2.1l-2.1,4.8l0.5,0.5l-0.9,0.3l-0.8,2.6l-1.5,2.8l0.2,0.2
		l0,1.3l-1,1.4l-0.7,2.4l-1.7,2.6l0.1,1.3l-1.1,1.9l-0.6,2l-1.5,3.5l-3.2,6.9c-0.8-0.1-1.5-0.4-2.1-0.9c-4.9-4.2-1.4-8.3,0.4-8.7
		c3.6-0.9,2.7,2.2,3.9,2.4c0.4,0.1,1.2-0.6-0.5-2.4c-1.9-2.1-6.8-0.3-7.1,3.6c-0.2,3.1,1.1,7.6,4.1,9.3l0,0.4l-1.1,1.2l-0.8,2.6
		l-0.6,0.8l-0.9,2.2l-0.9,0.4l0,1.6l-0.8,0.7L7,78.9c-0.5-0.6-0.9-1.4-1.2-2.3c-1.3-4.5,1.5-5.9,3.5-6.1c0,0,0.3,0,0.6,0.1
		c0.1,0.1,0.5,0.1,0.6-0.2c0-0.2-0.2-0.3-0.6-0.3c-0.2,0-0.6,0-0.8,0c-5.2,0.9-6.5,6.5-5,10.3C5.6,84.5,9.9,87,9.9,87l2.8-5.6l0.1,0
		l7.2-16c5.9-0.6,14.7-3.5,18.7-5.7l6.4,19.8c0,0-1.7,3.5-1.7,4.6c-1.6,1.7-4.4,5-2.7,7c0.7,0.8,1.6,0.5,1.8,0.1
		c0.2-0.3,0-0.7,0-0.7s-0.2-0.5-0.8-0.4c-0.7,0-0.4-3.3,3-6c2.3-0.1,6.9-0.2,9.4,0.5l0.1,0.1l2.4,0.6l3.5,0l0.1-0.5l1.8-0.4l0.4-0.4
		l0.6,0l2.6-2.4l1.5-2l1.6-3.6l1-3l0-0.5l0.9-1.5L71.1,64.7z M11.8,81.3L11.8,81.3l0.1,0C11.8,81.3,11.8,81.3,11.8,81.3z M22.6,59.6
		l9.4-20.7l4,12.3C32.8,53.4,27.5,57.3,22.6,59.6z M35.2,32.2l1.6-4.4L52.3,77c0,0-2.3,0-2.7,0.6C49.2,78.2,35.2,32.2,35.2,32.2z"/>
</g>
<path class="st2" d="M207.4,102.7"/>
</svg>
