<?xml version="1.0" encoding="utf-8"?>
<!-- Generator: Adobe Illustrator 27.4.1, SVG Export Plug-In . SVG Version: 6.00 Build 0)  -->
<svg version="1.1" id="Layer_1" xmlns="http://www.w3.org/2000/svg" xmlns:xlink="http://www.w3.org/1999/xlink" x="0px" y="0px"
	 viewBox="0 0 404.2 129.2" style="enable-background:new 0 0 404.2 129.2;" xml:space="preserve">
<style type="text/css">
	.st0{fill:#FCD20A;stroke:#FCD20A;stroke-miterlimit:10;}
	.st1{fill:#FCD20A;}
</style>
<g>
	<path class="st0" d="M80.6,29.7v0.9l-0.5,1.1l-0.1,0.6l-0.3,0.2L79.7,33l-1.5,1.3l-0.5,0.4L76.8,35l-1.5,0.2l-0.1-0.2L74,34.9
		l-0.7-0.2l-0.5-0.2l-1.1-1.1l-0.3-0.6V31l0.2-0.9l0.8-0.7l1.1-0.2h0.4l0.3,0.1l1.2,0.8v0.2l0.5,0.2l0.1,0.2l-0.6,0.2l-1.1-0.1
		L73.8,31l-1,0.9l-0.2,0.6v0.2l0.3,0.5l0.2,0.4l0.9,0.4l1,0.2l0.8-0.2l1.7-1.2l0.8-1.2L78.3,31v-2l-0.6-1.5l-0.2-0.3l-0.8-0.6
		l-0.4-0.1l-0.2-0.3h-0.3l-1.4-0.3l-0.8,0.3L73.4,26h-0.2l-0.2,0.2l-0.6,0.1L71,27l-1.4,1.5L69.2,29l-0.8,2.7l-0.1,0.4l0.1,1.5
		l0.2,0.5v0.2l0.2,0.2l1.1,1.9l1.2,1.5l3.1,2.9l2.5,2.8l0.6,1.5l0.5,0.4l0.3,1.2l0.2,2.6L78,50.2l-0.5,1.1l-0.2,0.2l0.1,0.3
		l-0.6,0.8V53L76,53.7l-0.2,0.6l-0.6,0.2l0.1,0.2l-0.6,0.6l-0.1,0.1l-0.5,0.2L73.7,56l-1.6,1H72l-2.4,0.8l-1.9,0.2l-2.4,0.1L65,58
		l-0.5,0.2l-1.9-0.6L59.8,56l-0.9-1l-0.5-0.2L57.2,53L57,52.5l-0.3-0.4l-0.3-1.7l0.1-0.8l-0.2-0.4l0.3-0.9v-0.6l0.4-0.9v-0.4
		l0.3-0.2l0.1-0.4l0.6-0.6l0.2-0.3l0.5-0.4l0.2-0.4l2.4-1.4h0.3l0.1-0.1l1.9-0.6l2.9-0.1l0.8,0.2l1.6,0.6l0.6,0.4l1.3,1.5l0.7,1.5
		v0.5l0.2,0.6l-0.2,0.2l0.2,0.6l-0.6,1L70.7,49l0.1,0.1v0.2l-0.6,0.3l-0.2,0.6L69,50.8l-0.2,0.5l-1.1,0.2l-0.3,0.2h-1.9l-1.5-0.6
		L63,49.7l-0.3-1.2l0.7-2.2l0.4-0.2H64l0.2,0.1l0.2,0.3l-0.5,0.8v1.2l1.3,1.3l0.3,0.2H66h0.3l1.5-0.6l0.7-1l0.1-0.3l0.4-0.4l0.2-1.7
		l-0.3-1.2l-0.4-0.9l-1.1-0.8l-1.2-0.3l-1.6-0.1l-2.4,1.2l-1.6,1.5h-0.1l-1.3,2.2L59,48.7l-0.2,0.5v2.4l0.6,2.1l0.3,0.4l1.4,1.4
		l0.6,0.3l0.6,0.4l0.8,0.2l0.2,0.2l0.6-0.1l0.7,0.2l2.2-0.2l1.8-0.6h0.4l0.2-0.3h0.2l1.3-1l1.6-1.6l0.1-0.4l0.5-0.6l-0.1-0.2
		l0.4-0.4l1.1-2.9v-2.1L74,44.8L73.3,43l-0.6-1.2l-0.3-0.2l-0.2-0.2L71.8,41v-0.2l-1.9-1.9l-0.3-0.4l-1.9-2.3l-0.8-1.4l-0.7-1.1
		l-0.6-1.9l0.2-0.2L65.6,31v-0.3l0.4-1.9l0.5-0.8l0.4-0.6l1.9-1.2l0.8-0.4l2.3-0.5H72l2.8,0.1l0.9,0.2l1.9,0.6L79,27l0.5,0.4
		l0.5,0.7L80.6,29.7z"/>
	<path class="st0" d="M113.2,13.7h0.7l2.3,1.5l0.8,1.1l-2,7l3.5-4.4l2.4-2.4l0.9-0.6l2.3-0.8l1.5-0.2l2.5,0.4l1.9,0.9l2.3,1.7
		l-0.2,0.3l0.8,1.1l-0.1,0.4l0.3,0.3l0.1,2.5l-0.3,1.7l-1.3,2.5l-1.3,2l-0.3,0.2l-0.4,1.1l-3.7,3.3l-2.3,1.1l-1.4,0.4l-1,0.2
		l-2.5,0.2l-2.1-1.1V34l-0.7-0.8V31l1-1.5l1.9-0.7l1.1-0.1l1.8,0.2l0.7,0.7l-0.1,0.5l-1.5-0.6l-1.2,0.4l-1.1,1l-0.5,1l-0.1,1.1
		l0.8,1.1l1.8,0.1l1.1-0.6l1.9-1.5l2.4-2.8l0.3-0.4l0.7-2.3l0.6-0.3l0.2-1.2l0.8-2.4l0.1-2.8l-0.2-1.5l-0.6-1.3l-1.5-1l-2.2,0.1
		l-1.9,0.8l-1.5,1.4l-2.9,3.2l-0.3,0.7l-2.4,3.6l-1.9,4.9l-1.1,3.2l-0.3,1.4l-1,2.1l-0.1,0.6l-1.2,3.7l-0.3,0.4v0.6l-0.6,1.5
		l-0.4,1.4l-0.5,1.9l-0.3,0.1l-0.6,1.9l-0.3,0.2l-1,3.4l-0.3,0.3v0.7l-0.3,0.3l-0.4,2.2l-0.5,0.8l-0.3,2.3l-1.1,0.6l-1.2-0.2
		l-0.6-0.4l-0.5,0.2l-1.1-1l0.5-2.1l0.9-3.2l0.6-0.6l-0.2-1.1l0.7-0.3l0.5-1.5l0.4-0.6l0.3-1.9l0.7-0.9l-0.1-0.6l0.6-0.6l-0.2-0.5
		l2-5.8l0.8-2.5l0.2-1.4l0.7-1.4l-0.2-0.8l1.1-1.9l0.2-1.6l0.6-1.1l-0.2-0.9l-0.2-0.1l0.9-2l0.3-1.8l0.7-0.3l-0.5-0.2l1.1-3.4
		l0.3-1.5l1-3.2l0.6-0.6v-0.2l-1.8,0.3l-2.6,1l-0.6-0.2l-0.2,0.5h-0.5l-1.4,0.8l-0.7,0.8l0.7,1.4l0.6,0.3l-0.6,0.6l-1.5-1.3
		l-2.7-2.7l1.1-0.6l2.2-0.4l3.3-0.6l0.5,0.3l0.5-0.4l0.3,0.2l0.7-0.3l1.8-0.2L113.2,13.7z"/>
	<path class="st1" d="M163.8,122.4l2.8-0.6l-0.1-0.4l1.3-0.6l0.1-0.4l0.5-0.2l1.1-2.2l0.4-1.7l0.7-3.1l-0.4-2.4l-0.2-0.3l0.1-1.2
		l-2.2-4.6l-1.7-2l-1.2-1l-0.9-0.6l-2.4-1.2l-2.4,0.1l-0.1,0.2l-1,0.4l-0.9,1.9l0.3,1.8l1.5,1.5l1.1,0.6l1.7,0.6l1-0.3l0.1-0.5
		l-1.7-0.1l-1.1-1l-0.6-1.4l-0.1-1.1l0.4-1l1.3-0.6l1.7,0.7l0.8,1.1l1.2,2.2l1.1,3.6l0.2,0.5l-0.2,2.4l0.5,0.6l-0.3,1.2l-1.2,2.8"/>
	<path class="st0" d="M141.3,25l1.2,0.1l2.8,1.6l0.2,0.4l1.1,1.1l-0.2,1.5l-1.1,1.4l-0.8,0.6l-3,1.9l-0.2,0.1l-0.3-0.1l-0.2,0.2
		l-3.3,1.1l-1.6,0.2l-0.1,0.2l-1-0.2l-1.1,0.2l-0.3,2.8l-0.2,0.1l1.1,2.2l1.9,1l1.3,0.1l1.2-0.1l2-0.5l2.4-1.3l0.3-0.2l2.2-1.5
		l-0.9,1.7l-1.9,1.6l-2.7,1.1l-2.4,0.6l-0.8-0.2l-0.8,0.2l-0.4-0.3h-0.4l-2-1l-1.9-1.6l-0.6-1l-0.6-1.4l-0.1-3.3l-1.6-1.6l0.6-0.2
		l1.2,0.7l0.4-0.6l1.6-2.8l1.9-1.9l1.9-1.3l2.9-1.3l1.3-0.2L141.3,25z M143,26.7l-1.5,0.3l-2,1l-1.5,1.2l-2.2,2l-1.9,3.2l0.1,0.2
		l0.2,0.2l2.2-0.5l3.1-1.3l3.2-2.4l1.3-1.7l0.3-1l-0.2-1.1L143,26.7z"/>
	<path class="st0" d="M165,17l2.6-0.2l0.4,0.2l1.6,0.3l1.6,1.1l0.5,0.9l0.2,1.1l0.2,0.2l0.2,0.6l-0.2,0.2l0.2,0.3l-0.2,1l-0.9,1.9
		l-1.1,1.1l-1.9,1.1l-1.5,0.3l-1.9-0.3l-1.1-1.2l-0.3-0.7l0.2-1.9l1.1-1.1l1.1-0.1l1.2,0.2l-0.2,1.1l-0.9,0.6l-0.8-0.1l-0.6,0.5
		l0.4,1.1l0.9,0.6l1.4-0.5l1.1-1.1v-0.6l0.6-0.7l-0.1-0.5l0.2-0.2l0.1-0.7l-0.2-1.7l-0.7-1.4l-0.7-0.4l-0.9-0.1l-1.9,0.5l-2.4,1.7
		l-0.2,0.6l-0.2,0.2l-0.3,0.6l-1.1,2.4l-0.4,0.4l0.1,0.3l-0.5,0.7l0.1,0.2l-1,3.7l-0.2,1.9l-0.2,0.6L158,34l-0.1,0.8l-0.4,0.6
		l0.2,0.6l-0.2,0.3l0.1,0.3l-0.2,2.8l-0.2,0.3l0.3,0.1v1.1l-1.8,0.2l-0.2-0.2l-0.6,0.2l-0.7-0.3l-0.5-0.9l0.1-1.6l-0.2-4.6l0.2-1.1
		l-0.2-0.9l0.2-0.9l-0.2-2l-0.2-0.6l0.2-1.2l-0.1-2.2l-0.4-3l-0.5-1.3l-1.3,1.1l-1.9,1.9l-0.7,0.8l-0.4,1.1l0.1,0.6l0.8,0.7l0.3,0.7
		H149l-1.8-1.1l-1.5-1.4l0.5-1h0.7l0.2-0.4l0.6-0.2l0.6-0.6h0.2l0.4-0.5l0.7-0.2l1.4-1.1l1.2-0.7l0.2-0.2l0.2-0.8l1.4-0.3l0.5,0.2
		h1.1l1,0.3l0.4,0.3l0.1,0.4v1.1h-0.4l0.4,0.2l0.2,0.5L157,22l0.3,0.7l0.2,1.3l-0.2,0.3l-0.1,2.2h0.2l0.2,0.6l0.4-0.1l0.2-1.3l1-2.3
		l0.9-2.1l1.5-2.1l1.5-1.1l0.5-0.5L165,17z"/>
	<path class="st0" d="M189.5,24.3v0.9l-0.5,1.1L189,27l-0.3,0.2l-0.1,0.4l-1.5,1.2l-0.5,0.4l-0.9,0.3l-1.5,0.2l-0.1-0.1l-1.3-0.2
		l-0.7-0.2l-0.5-0.2l-1.1-1.1l-0.3-0.6v-1.7l0.2-0.9l0.8-0.7l0.8-0.2h0.4l0.3,0.1l1.2,0.8v0.1l0.5,0.2l0.1,0.2l-0.6,0.2l-1.1-0.1
		l-0.6,0.2l-1,0.9l-0.2,0.6v0.2l0.3,0.5l0.2,0.4l0.9,0.4l1,0.2l0.8-0.2l1.7-1.2L187,26l0.1-0.6v-2l-0.6-1.5l-0.2-0.3l-0.8-0.6
		l-0.4-0.1l-0.2-0.2h-0.3l-1.4-0.3l-0.7,0.2l-0.2-0.1h-0.2l-0.2,0.2l-0.6,0.1l-1.5,0.6l-1.4,1.5l-0.4,0.6l-0.8,2.7l-0.1,0.4l0.1,1.5
		l0.2,0.5v0.2l0.2,0.2l1.1,1.9l1.2,1.5l3.1,2.9l2.5,2.8l0.6,1.5l0.5,0.4l0.3,1.2l0.2,2.6l-0.2,0.8l-0.3,1.1l-0.2,0.2l0.1,0.3
		l-0.6,0.8v0.4L185,48l-0.2,0.6l-0.6,0.2l0.1,0.2l-0.6,0.6l-0.1,0.2l-0.5,0.2l-0.4,0.5l-1.5,0.9h-0.2l-2.5,0.9l-1.9,0.2l-2.4,0.1
		l-0.3-0.2l-0.5,0.2l-1.9-0.6l-2.8-1.6l-0.9-1l-0.5-0.2l-1.4-1.7l-0.2-0.6l-0.3-0.4l-0.3-1.7l0.1-0.8l-0.2-0.4l0.3-0.9v-0.6l0.4-0.9
		v-0.4l0.3-0.2l0.1-0.4l0.6-0.6l0.2-0.3l0.5-0.4l0.2-0.4l2.4-1.4h0.3l0.1-0.1l1.9-0.6l2.9-0.1l0.8,0.2l1.6,0.6l0.6,0.4l1.3,1.5
		l0.7,1.5v0.5l0.2,0.6l-0.2,0.2l0.2,0.6l-0.5,1.1l-0.2,0.1l0.1,0.1v0.2l-0.6,0.2l-0.2,0.6l-0.9,0.6l-0.2,0.5l-1.1,0.2l-0.3,0.2h-1.9
		l-1.5-0.6l-1-1.3l-0.3-1.2l0.7-2.2l0.4-0.2h0.2l0.2,0.1l0.2,0.3l-0.5,0.8v1.2l1.3,1.3l0.3,0.2h0.4h0.3l1.5-0.6l0.7-1l0.1-0.3
		l0.4-0.4l0.2-1.7l-0.3-1.2l-0.4-0.9l-1.1-0.8l-1.2-0.3l-1.7,0.2l-2.4,1.2l-1.6,1.5h-0.1l-1.3,2.2l-0.2,1.1l-0.2,0.5v2.4l0.6,2.1
		l0.3,0.4l1.4,1.4l0.6,0.3l0.6,0.4l0.8,0.2l0.2,0.2l0.6-0.1l0.7,0.2l2.2-0.2l1.8-0.6h0.4l0.2-0.3h0.2l1.3-1l1.6-1.6l0.1-0.4l0.5-0.6
		l-0.1-0.2l0.4-0.4l1.1-2.9v-2.1l-0.4-1.5l-0.7-1.9l-0.6-1.3l-0.3-0.2l-0.2-0.2l-0.2-0.2v-0.2l-1.9-1.9l-0.3-0.4l-1.9-2.3l-0.8-1.4
		l-0.7-1.1l-0.6-1.9l0.2-0.2l-0.1-0.6v-0.3l0.4-1.9l0.5-0.8l0.4-0.6l1.9-1.2l0.8-0.4l2.3-0.5h0.2l2.8,0.1l0.9,0.2l1.9,0.6l1.5,0.9
		l0.5,0.4l0.5,0.7L189.5,24.3z"/>
	<path class="st0" d="M212.6,22.5l2.7,0.4l1.1,0.4l1.9,1.3l0.1,1.4l-0.2,2.4l0.2,0.8l1-1.6l2.7-2.5l1.2-1l2.4-1.6l0.7-0.2l2,0.4
		l1.1,0.6l1.1,1.3l-0.1,0.7l0.2,0.4l0.1,1l-0.4,0.3l0.1,0.3l-1.1,1.9l0.1,0.6l-0.6,0.6l0.1,0.2l-0.2,1.3l-0.2,0.3h-0.3l0.1,0.5
		l-0.3,0.2l-0.2,1.1l0.1,0.2l-0.2,1.5l0.2,0.6l-0.3,0.6l0.2,0.4l0.7,0.2l2.3-1.6l0.4-0.1l0.1-0.4l1.4-0.9l1.1-1.1l0.2,0.2l-0.2,0.8
		l-1.4,2l-1.1,0.9l-0.1,0.4l-1.8,1h-0.2l-0.3,0.5l-1.2,0.4l-0.8-0.3l-0.2-0.2l-1.2-0.2l-1.4-1.9l-0.6-2.5l-0.2-0.8l0.2-0.4l0.4-1.9
		l1.5-4.1l0.6-1l0.4-1.5l-0.3-0.6l-0.4-0.2l-2.2,1.1l-2.4,2.7l-1.9,2.8l-1.2,2.7l0.1,0.2l-2.6,5.3l-0.5,0.7l-0.9,2.4l-0.4-0.4
		l-0.3,0.2l-0.7-0.3v-0.4l-0.3-0.1l0.1,0.2l-0.6-0.1l-0.8-0.8l0.1-0.6l0.6-2.4l0.6-1.8l-0.2-0.9l0.4-0.5l-0.1-0.6l1.2-4.6l0.2-2.4
		l-0.2-2.1L212.6,22.5z"/>
	<path class="st0" d="M243.5,21.3h1.3l2.1,0.5l2,1.2l1.6,1.3l1.1,1.7l0.6,2.3l-0.3,2.3l-0.6,2.1l-0.2,0.2l-0.1,0.6l-0.7,0.7l-0.2,1
		l-0.4,0.4l-0.3,0.7l-0.2,0.2l1.4,1.8l1.9,0.3l0.6-0.1l0.6-0.4h0.2v0.9l-0.1,0.5l-0.4,0.4l-1.3,0.6l-0.7,0.1l-1.1-0.3l-1.3-1.8v-0.2
		l-0.7-1.2l-0.2,0.5l-0.2,0.1l-2.4,1.5l-1.4,0.5l-0.9,0.6l-2,0.7l-1.1,0.1l-0.2,0.2l-2.5,0.2l-0.9-0.2l-1.2-0.9l-0.6-0.8l0.1-0.2
		l-0.3-1.1l0.1-1.1l0.2-0.2l-0.2-0.4l0.6-1.8l1.2-1.3l0.3-0.6l0.6-0.1l0.4-0.5h0.4l0.3-0.4l0.9-0.2h0.4l0.2-0.3l2.2-0.2l1.5,0.2h0.9
		l0.4,0.3l0.6,0.2l0.2,0.7h0.4l0.9,1l0.3,0.2l0.6-0.9l0.8-1.5l0.4-0.2l0.9-2.4l-0.2-0.4l0.4-0.6l-0.3-0.6l0.2-0.6l-0.2-0.9l-0.3-0.4
		l0.1-0.2l-1.1-0.8l-0.2-0.2l-1.6-0.3l-1.5,0.1l-1.1,0.2l-1.5,0.3l-2.4,1.2l-1.8,1.7l-0.4,0.5l-0.3,0.6l0.1,0.5l0.3,0.7l0.7,0.4
		l-0.2,0.3h-0.2l-1.3-0.6l-0.2-0.3l-0.9-0.7l-0.4-0.7l-0.7-0.6l-0.6-0.9l0.1-0.6l1-0.9l1.1-0.8l0.8-0.2l0.3-0.6l0.4,0.1l0.6-0.5
		l3.6-1.1L243.5,21.3z M243.6,33.1h-1.1l-2.2,0.6l-0.6,0.2l-2.1,1.6l-0.6,0.4l-0.8,1.5l-0.3,0.3l-0.2,1.3l0.2,0.2l-0.1,0.2l0.3,0.4
		l1,0.2l1.3-0.1l1.3-0.4l0.2-0.2l0.7-0.2l3.6-2.6l1.3-1.3l0.6-0.8l-1.2-1.3l-0.6,0.1L243.6,33.1z"/>
	<path class="st0" d="M273,22.3l0.9,0.2l1.4,0.6l1,0.8l-0.6,1.1l-0.2,0.9l-0.4,0.4v0.8l-0.2,0.1v0.2l-0.4,0.2l-0.2,0.4h0.2l-0.3,1
		l-0.2,0.2l0.2,0.4l-1.1,2.2l0.1,0.6l-0.2,0.4l-0.2,0.2l0.2,0.2l-0.7,1.4v0.2l-0.2,0.2l0.2,0.3l-0.4,0.4l-0.3,0.8l-0.2,0.2l0.1,0.6
		h-0.6l0.1,0.5l-0.4,0.7l-0.6,2.2l-0.7,1.4l-0.1,0.5l-0.2,0.2v0.3l-0.2,0.5l-0.2,0.1l-0.7,2.2l-0.2,0.2v0.4l-0.5,0.4l-0.2,0.6h-0.2
		l-0.5,1.8l-0.4,0.2l-0.6,1.5l-0.8,0.6l-1.1,1.6l-0.2,0.1l-2.1,2.8l-2.9,2l-1.4,0.6l-2.3,0.6l-1.9-0.2l-0.3-0.4l-0.7-0.4l0.1-0.2
		l-1.1-0.6v-0.2l-0.4-1.1l1.4,1.3l2,0.5l1.2-0.2l1.8-0.9l1.7-1.1l1.2-1.3l1.4-2.1l0.2-0.2v-0.2l1.2-2l0.4-0.2l0.1-1l0.8-1.2v-0.2
		l0.6-1.7l0.3-0.2l0.6-2.5l0.6-1.1v-0.2l1.3-3.7l0.2-1.1l0.8-1.9l-0.2-0.2l-0.8,1.3l-0.2,0.2l-2,2.1l-2.7,1.5l-2.1,0.2l-1.7-0.4
		l-1.4-0.9l-0.6-0.7l-0.6-1.8l-0.2-2l0.1-1.8l0.2-0.2l0.1-1.1l1-2.4l0.4-0.3v-0.4l1.6-2.3l0.7-0.6l1.3-0.8l0.2-0.4l1.5-0.8h0.5
		l1.4-0.4l1.9,0.1l0.3-0.1l0.9,0.4l0.6,0.1l1.1,1.1l0.8,1.1v0.8l-0.3,0.6l-0.6-0.2l-0.2-1.3l-2.3-0.2l-2.2,0.8l-1.1,0.8l-0.2,0.5
		l-1.5,1.1l-0.2,0.6l-0.6,0.6l-0.7,1.8l-0.6,1.2l-0.7,2.8l-0.2,0.2v1.6l0.2,1.1l0.2,0.6l0.5,0.4h1.1l1.3-0.4l2.8-1.8l0.7-0.9
		l0.4-0.2l0.7-0.9l0.7-1.5l0.7-0.7l1-2.6l0.6-0.8v-0.2l0.3-0.3l0.8-1.4v-0.6l0.3-0.2l0.6-1.8l0.9-1.6L273,22.3z"/>
	<path class="st0" d="M290,21l1.3,0.2l3.1,1.8l0.2,0.4l1.2,1.2l-0.2,1.8l-1.2,1.6l-0.9,0.6l-3.4,2.3l-0.3,0.1l-0.4-0.1l-0.3,0.3
		l-3.7,1.2l-1.8,0.2l-0.1,0.2l-1.1-0.2l-1.2,0.2l-0.4,3.2l-0.2,0.1l1.2,2.4l2.1,1.1l1.5,0.1l1.4-0.2l2.4-0.6l2.8-1.4l0.3-0.2
		l2.4-1.8l-1.1,1.9l-2.1,1.8l-3,1.2l-2.8,0.6l-0.9-0.2l-0.9,0.2l-0.5-0.3l-0.4,0.1l-2.4-1.1l-2.1-1.9l-0.6-1.1l-0.6-1.6l-0.1-3.8
		l-1.8-1.9l0.6-0.2l1.4,0.9l0.5-0.8l1.8-3.1l2.2-2.1l2.1-1.5l3.2-1.5l1.5-0.2L290,21z M291.8,22.8l-1.6,0.4l-2.3,1.1l-1.7,1.4
		l-2.4,2.4l-2.1,3.7l0.1,0.2L282,32l2.4-0.5l3.5-1.5l3.7-2.6l1.5-1.9l0.4-1.1l-0.2-1.2L291.8,22.8z"/>
	<path class="st0" d="M298.8,21l2.8,0.4l1.1,0.4l1.9,1.4l0.1,1.5l-0.2,2.5l0.2,0.9l1-1.7l2.8-2.6l1.3-1.1l2.5-1.7l0.8-0.2l2.2,0.4
		l1.1,0.6l1.1,1.4l-0.1,0.8l0.2,0.4l0.1,1.1l-0.4,0.3l0.1,0.3l-1.1,2l0.1,0.6l-0.6,0.6l0.1,0.2l-0.2,1.4l-0.2,0.3h-0.3l0.1,0.5
		l-0.3,0.2l-0.2,1.1l0.1,0.2l-0.2,1.5l0.2,0.7l-0.3,0.6l0.2,0.4l0.7,0.2l2.4-1.6l0.5-0.1l0.1-0.4l1.5-0.9l1.1-1.1l0.2,0.2l-0.2,0.9
		l-1.4,2.1l-1.1,0.9l-0.1,0.4l-1.9,1.1h-0.3l-0.3,0.5l-1.2,0.4l-0.8-0.3l-0.4-0.4l-1.3-0.2l-1.4-2l-0.6-2.6l-0.2-0.9l0.2-0.4l0.4-2
		l1.5-4.4l0.7-1l0.4-1.6l-0.3-0.6l-0.4-0.2l-2.3,1.2l-2.5,2.8l-1.9,2.8l-1.3,2.8l0.1,0.2l-2.7,5.5l-0.5,0.7l-1,2.5l-0.4-0.4
		l-0.3,0.2l-0.7-0.3v-0.4l-0.3-0.1l0.1,0.2l-0.6-0.1l-0.8-0.8l0.1-0.6l0.6-2.5l0.6-1.9l-0.2-0.9l0.4-0.5l-0.1-0.6l1.2-4.8l0.2-2.9
		l-0.2-2.2L298.8,21z"/>
	<path class="st0" d="M339.4,24.3v0.9l-0.5,1.1l-0.1,0.6l-0.3,0.2l-0.1,0.4l-1.5,1.2l-0.5,0.4l-0.9,0.3l-1.5,0.2l-0.1-0.1l-1.3-0.2
		l-0.7-0.2l-0.5-0.2l-1.1-1.1l-0.3-0.6v-1.7l0.2-0.9l0.8-0.7l1.1-0.2h0.4l0.3,0.1l1.2,0.8v0.1l0.5,0.2l0.1,0.2l-0.6,0.2l-1.1-0.1
		l-0.6,0.2l-1,0.9l-0.2,0.6v0.2l0.3,0.5l0.2,0.4l0.9,0.4l1,0.2l0.8-0.2l1.7-1.2l0.8-1.2l0.1-0.6v-2l-0.6-1.5l-0.2-0.3l-0.8-0.6
		l-0.4-0.1l-0.2-0.2h-0.3l-1.5-0.2l-0.7,0.2l-0.2-0.1H332l-0.2,0.2l-0.6,0.1l-1.5,0.6l-1.4,1.5l-0.4,0.6l-0.8,2.7l-0.1,0.4l0.1,1.5
		l0.2,0.5v0.2l0.2,0.2l1.1,1.9l1.2,1.5l3.1,2.9l2.5,2.8l0.6,1.5l0.5,0.4l0.3,1.2l0.2,2.6l-0.2,0.8l-0.3,1.1l-0.2,0.2l0.1,0.3
		l-0.6,0.8v0.4l-0.7,0.6l-0.2,0.6l-0.6,0.2l0.1,0.2l-0.6,0.6l-0.1,0.2l-0.5,0.2l-0.4,0.5l-1.5,0.9h-0.2l-2.5,0.9l-1.9,0.2l-2.4,0.1
		l-0.3-0.2l-0.5,0.2l-1.9-0.6l-2.8-1.6l-0.9-1l-0.5-0.2l-1.4-1.7l-0.2-0.6l-0.3-0.4l-0.3-1.7l0.1-0.8l-0.2-0.4l0.3-0.9v-0.6l0.4-0.9
		v-0.4l0.3-0.2l0.1-0.4l0.6-0.6l0.2-0.3l0.5-0.4l0.2-0.4l2.4-1.4h0.3l0.1-0.1l1.9-0.6l2.9-0.1l0.8,0.2l1.6,0.6l0.6,0.4l1.3,1.5
		l0.7,1.5V41l0.2,0.6l-0.2,0.2l0.2,0.6l-0.5,1.1l-0.2,0.1l0.1,0.1v0.2l-0.6,0.2l-0.2,0.6l-0.9,0.6l-0.2,0.5l-1.1,0.2l-0.3,0.2h-1.9
		l-1.5-0.6l-1-1.3l-0.3-1.2l0.7-2.2l0.4-0.2h0.2l0.2,0.1l0.2,0.3L323,42v1.2l1.3,1.3l0.3,0.2h0.4h0.3l1.5-0.6l0.7-1l0.1-0.3l0.4-0.4
		l0.2-1.7l-0.3-1.2l-0.4-0.9l-1.1-0.8l-1.2-0.3l-1.7,0.2l-2.4,1.2l-1.6,1.5h-0.1l-1.3,2.2l-0.5,0.6l-0.2,0.5v2.4l0.6,2.1l0.3,0.4
		l1.4,1.4l0.6,0.3l0.6,0.4l0.8,0.2l0.2,0.2l0.6-0.1l0.7,0.2l2.2-0.2l1.8-0.6h0.4L328,50h0.2l1.3-1l1.6-1.6l0.1-0.4l0.5-0.6l-0.1-0.2
		l0.4-0.4l1.1-2.9v-2.1l-0.4-1.5l-0.7-1.9l-0.6-1.3L331,36l-0.2-0.2l-0.2-0.2v-0.2l-1.9-1.9l-0.3-0.4l-1.9-2.3l-0.8-1.4l-0.7-1.1
		l-0.6-1.9l0.2-0.2l-0.1-0.6V25l0.4-1.9l0.5-0.8l0.4-0.6l1.9-1.2l0.8-0.4l2.3-0.5h0.2l2.8,0.1l0.9,0.2l1.9,0.6l1.5,0.9l0.5,0.4
		l0.5,0.7L339.4,24.3z"/>
	<path class="st0" d="M384.3,5.2l0.9,0.1l0.5,0.4l-3.9,13.1l-1.4,4.9l-1.2,3.9l-0.2,1.2l-0.6,1.4l-0.3,1.6l-2.1,7.6l-0.2,0.4
		l-0.7,1.9l-0.5,2l-0.2,0.2l-0.5,2.1l0.2,0.2h0.3l0.2-0.2l3.5-1l1.1,0.2l-1.7,0.7l-2.1,0.8l-1.7,0.4l-0.2,0.5l-1.1,2.9l0.1,0.4
		l-0.3,0.3h-0.7l0.1-0.9l0.6-2.2l-3.4,1.7l-0.2,0.1h-0.3l-0.6,0.4l-0.9,0.1l-0.5-1l-0.2-0.6l0.9-3.4l0.8-3.2l0.2-0.2l-0.1-0.3
		l0.3-0.7l-0.2-0.2l0.4-0.9l-0.1-0.2l0.3-0.8l-0.3,0.2l-0.7,1h-0.2l-0.3,1l-2,2.7l-1.9,1.8l-2.4,2.1l-3.4,0.9l-1.3-0.2l-1.5-0.6
		l-1.1-0.8l-0.8-0.8l-0.9-1.5l-0.3-1.2l-0.3-2.4l0.6-3.8l0.5-0.4l0.2-1l0.2-0.2v-0.2l1.1-1.5l1.8-2.2l1.1-0.9l2.3-1.2l0.8-0.4
		l2.8-0.3l1.7,0.2l2.3,0.9l1,1.2l0.6,1.7l-0.8,1.4l-0.7-0.2l0.2-0.6l-0.2-0.3l0.2-0.2l-0.1-0.5l-0.3-0.7l-1.3-0.6l-0.4,0.1l-0.9-0.2
		l-1.4,0.3l-1.8,1.3l-2.4,2.7l-0.5,0.7v0.2l-0.3,0.1l-1.5,3.2l-0.2,1.1l-0.2,0.2l0.1,0.2l-0.3,2.3v1.3l0.4,1.5l0.6,1l1.1,0.4
		l1.4-0.1l2.1-1.4l2-1.7l2.5-2.8l0.8-1.3l0.3-0.2v-0.2l0.6-0.6l-0.1-0.4l0.5-0.4l0.3-1.4l0.6-1.3l0.3-0.6l-0.1-0.3l0.5-0.1l-0.1-0.4
		l0.4-0.3l0.9-2.4l0.9-3.6l0.5-0.8l-0.1-0.4l0.3-0.3l-0.1-1.1l0.6-0.7l0.1-1.1l0.2-0.2l0.1-1.3h0.3l0.1-1.5l0.4-0.2l-0.1-0.6
		l0.6-0.8l-0.2-0.7l1-3.6l-0.2-0.2l0.7-1.6v-1.5l0.3-1.1l0.3-1.8l0.3-0.2V7.9l-3.6,1.2l-0.7,0.2l-2.1,1l-1.1,1.5l0.6,1.4h-0.5
		l-0.8-0.4l-1.5-1.9l-0.5-0.9l0.4-0.1V9.5l0.3-0.3h1l2.2-0.7l6.6-1.7l1.1-0.4l1.8-0.3l1.4-0.4h1.1L381.8,6l-2.5,0.9l1.2,1l0.3,1.3
		l-0.3,0.3l0.1,0.2l-0.2,0.2v1.5l-0.3,0.2l0.1,0.8l-0.5,1.4l-0.2,0.2l0.2,0.5l-0.5,0.8l-0.2,1.5l-0.2,0.1l-0.4,1.9l-0.2,0.2l-0.6,2
		l-0.3,0.5l-0.2,1.1l-0.3,1.4l-0.6,1.4l-1,3.9l-0.4,0.2l0.1,0.5l-0.9,3.1l-0.1,0.9l-1,2.5l-0.1,1l-0.7,0.5l0.4,0.5l-0.2,0.2l0.1,0.7
		h-0.2l0.2,0.2l-0.6,1.5l-0.3,1.9l-0.3,0.2l-0.1,0.5l0.2,0.2l-0.7,1.7l-0.2,1.5l0.3,0.2l2.2-0.8l0.2-0.2l0.6-2.8l0.6-1.1l-0.1-0.2
		l0.2-0.2l1.6-5.4l1.9-7.1l0.6-3l0.7-2.8l0.6-1.4l0.6-2l0.9-3.7l1-2.5l0.1-0.3l1.5-5.4l0.8-2.8L384.3,5.2z"/>
	<path class="st0" d="M396.1,30.6l1.2,0.1l2.8,1.6l0.2,0.4l1.1,1.1l-0.2,1.6l-1.1,1.5l-0.8,0.6l-3.2,2l-0.2,0.1l-0.3-0.1l-0.2,0.2
		l-3.4,1.1l-1.6,0.2l-0.1,0.2l-1-0.2l-1.1,0.2l-0.3,2.8l-0.2,0.1l1.1,2.3l1.9,1l1.4,0.1l1.3-0.1l2.1-0.5l2.5-1.3l0.3-0.2l2.2-1.6
		l-1,1.8l-1.9,1.6l-2.8,1.1l-2.5,0.6l-0.8-0.2l-0.8,0.2l-0.5-0.3h-0.4l-2.1-1.1l-1.9-1.7l-0.6-1l-0.6-1.5l-0.1-3.5l-1.6-1.7l0.6-0.2
		l1.3,0.8l0.5-0.7l1.6-2.8l2-1.9l1.9-1.3l3-1.4l1.3-0.2L396.1,30.6z M397.8,32.2l-1.5,0.3l-2.1,1l-1.6,1.3l-2.2,2.1l-1.9,3.3
		l0.1,0.2l0.2,0.2l2.2-0.5l3.2-1.4l3.3-2.4l1.3-1.7l0.3-1l-0.2-1.1L397.8,32.2z"/>
	<path class="st0" d="M201.7,63.5l1.9,0.2l0.2,0.1l2.3,0.8l0.1,0.2l-0.4,1.1l-0.6,1.7l-0.5,1.5l-0.2,0.1l-0.7,2.8l-0.3,0.2l0.2,0.7
		l-0.3,1l-0.6,0.3l0.2,0.6l-0.2,0.4l0.1,0.4l-0.3,0.4l0.1,0.7l-0.3,0.6l-0.7,3l-0.6,1.1l-0.7,2.4l-0.3,0.6l0.1,0.3l-0.5,0.9l0.2,0.2
		l-0.7,3.2l-0.6,4.5l-0.2,0.7l-0.2,1.8l0.2,0.9l-0.4,1l0.4,0.2l-0.2,1.1l0.2,1.5l0.2,0.2l-0.1,0.3l0.7,1.9l1.1,1.4l1.5,0.9l1.6,0.3
		l0.3-0.2l0.6,0.2l1.3-0.4l2.1-1.3l0.7-0.6l2.2-3.7l0.6-1.4l0.5-1.7l0.6-2.3l0.1-3.6l-0.3-2.1l-0.4-0.8l-1.1-1.1l-2.1-0.5l-1.6,0.4
		l-1.1,0.8l-1.4,2.4l0.2,0.2l-0.1,3.2l0.6,1.5l0.3,0.2l0.8,0.2l1.7-0.9l0.6-1l0.3-0.2l0.2,0.5l-0.2,0.7l-1.4,1.5l-1.1,0.3h-0.9
		l-1.8-0.7l-1.4-1.9l-0.4-1.2l-0.3-1.5l0.4-1.9l0.2-0.4l0.2-0.8l1.5-1.5l1.1-0.6l3.7-0.7l0.9,0.1l1.7,0.3l1.1,0.8l0.4,0.1l1.8,1.8
		l0.8,2l0.2,0.2l0.2,1.9l-0.8,4.3l-0.2,0.2l0.2,0.3l-1.1,1.6l-0.2,0.9l-2.1,2.6l-2.6,2.1l-2.2,1.1H206l-1.2,0.3l-2.8,0.2l-0.4,0.3
		h-1.1l-2.3-1.3l-2.4-2.6l-0.6-1.4l-0.3-0.9l-0.3-1.6l-0.1-1l-0.2-2.9l0.3-0.9l-0.2-0.2l0.2-0.6l-0.2-0.7l0.4-1.7l-0.2-1.1l0.2-1.3
		l0.2-0.2l0.6-2.6v-1.2l1.1-2.7l-0.2-0.6l0.3-1.2l0.1-0.3l0.4-0.9l-0.1-0.2l0.6-1.9l0.2-0.1l-0.2-0.6l0.3-0.2l0.2-1.9l0.4-0.2
		l-0.2-0.2l0.3-0.9l0.1-0.5l1.9-6.2l-0.2-0.2l0.6-0.8l-0.4-0.2l-1.3,0.5l-0.2,0.3l-0.6,0.1l-0.7,0.6h-0.2l-0.8,0.6l-1.1,0.7
		l-0.6,0.7l-0.2,0.8l0.2,0.8l0.5,0.3l0.2,0.6l-0.2,0.2l-1.8-1.2l-1.7-1.4l0.2-0.6l1.5-1l0.8-0.1l1.3-0.6l0.7-0.2l0.2-0.2l0.6-0.2
		l0.3-0.4l1.7-0.5l0.3-0.2h0.4l0.6-0.4L201.7,63.5z"/>
	<path class="st0" d="M230.2,83.1h1.6l2.5,0.6l2.4,1.5l1.9,1.5l1.3,2l0.7,2.8l-0.4,2.7l-0.8,2.5l-0.3,0.2l-0.1,0.7l-0.9,0.8
		l-0.3,1.2l-0.5,0.5l-0.4,0.8l-0.2,0.2l1.6,2.1l2.4,0.4l0.8-0.2l0.6-0.5h0.2v1.1l-0.1,0.6l-0.6,0.5l-1.5,0.8l-0.8,0.2l-1.3-0.4
		l-1.5-2.1v-0.2l-0.8-1.5l-0.2,0.6l-0.3,0.1l-2.9,1.9l-1.6,0.6l-1.1,0.7l-2.4,0.8l-1.3,0.2l-0.2,0.2l-3,0.2l-1.1-0.3l-1.5-1.1
		l-0.6-1l0.1-0.2l-0.4-1.2l0.1-1.3l0.2-0.2l-0.2-0.5l0.8-2.1l1.5-1.5l0.4-0.7l0.6-0.1l0.5-0.6l0.5,0.1l0.4-0.5l1.1-0.2h0.6l0.2-0.4
		l2.6-0.2l1.8,0.3l1.1,0.1l0.5,0.4l0.6,0.2l0.2,0.5l0.6,0.1l1.1,1.2l0.4,0.2l0.7-1.1l1-1.9l0.5-0.2l1.1-2.9l-0.2-0.5l0.6-0.7
		l-0.4-0.8l0.2-0.7l-0.3-1.1l-0.4-0.5l0.1-0.3l-1.3-1l-0.2-0.3l-1.9-0.4l-1.8,0.1l-1.3,0.3l-1.8,0.4l-2.8,1.5l-2.2,2l-0.6,0.6
		l-0.4,0.8l0.1,0.6l0.4,0.9l0.8,0.5l0,0.2H224l-1.6-0.7l-0.2-0.4l-1.1-0.9l-0.5-0.9l-0.8-0.7l-0.7-1.1l0.1-0.7l1.1-1.1l1.2-1l1-0.2
		l0.4-0.8l0.5,0.1l0.6-0.6l4.2-1.3L230.2,83.1z M230.4,97.2l-1.2,0.1l-2.7,0.7l-0.7,0.2l-2.5,1.9l-0.6,0.5l-1,1.8l-0.4,0.4l-0.2,1.5
		l0.2,0.3l-0.1,0.3l0.4,0.5l1.1,0.3l1.6-0.2l1.6-0.5l0.2-0.2l0.8-0.2l4.3-3.1l1.5-1.5l0.8-1l-1.5-1.5l-0.6,0.1L230.4,97.2z"/>
	<path class="st0" d="M259.6,69.1l0.7,0.2l-0.1,0.5l-0.6,2.9l-0.5,1.5l-1.5,5.6l-0.6,1.8l-0.2,0.1l0.7,0.4l4,0.1l0.1,0.1l-0.2,0.2
		l-5,0.9l-0.2,0.8l0.1,0.3l-0.3,0.3l-0.6,2.7l-0.2,0.4l0.1,0.4l-0.3,0.4v1.1l-0.3,0.4l0.2,0.2l-0.2,0.1l-0.6,2.3l-0.2,0.1l-0.1,0.9
		l-0.2,0.2l-0.2,0.6l0.1,0.3l-0.4,1.1l0.1,0.3l-0.2,0.2l-0.6,2l-0.6,1.7l-0.6,2.4l-0.1,0.5l-0.3,0.6l0.1,0.2l-0.6,1.5l0.1,0.2
		l-0.5,0.6l0.1,0.3l-0.5,1l0.1,0.5l1.1,0.6l2.1-0.2l-1.2,1.1l-0.5-0.1l-0.4,0.2l-1.5-0.1l-0.6,1.2l0.2,0.2l-0.2,0.5L248,112l0.2,0.2
		l-0.3,0.3v0.6l-0.3,1.1l-0.2,0.6l-0.5,0.1l-0.4-0.2l-0.1-0.6l0.7-1.7l0.6-2.3l0.2-0.2l0.1-0.7l-1.4-0.8l-1.6-1.9l-0.2-0.4l-0.6-2.6
		l0.2-0.2l-0.4-1.5l0.4-1.5l-0.1-0.1l0.2-0.3l-0.2-0.2l0.6-2.3l0.2-0.8l0.3-1.8l0.2-1.6l0.6-1.7l0.4-0.1l-0.2-0.2l0.3-0.8l0.3-1.3
		l-0.2-0.3l0.4-0.9l-0.3-0.1l0.4-0.4l0.6-1.6l0.2-1.3l-3.1,0.8l-0.2-0.4l0.2-0.2l-0.6-0.5l-0.4-1.1l0.2-0.2l0.6,0.1l0.3-0.2l0.7,0.2
		h2.4l0.6-0.3l0.3-0.6l-0.2-0.6l0.2-0.1l0.9-3.3l0.3-0.1l-0.1-0.5l0.5-1.6l-0.1-0.5l0.7-1.9l-0.1-0.7l0.3-0.3l-0.1-0.4l0.3-0.5
		l0.2-2.1l0.2-0.2l1.5,0.3l2.1,1.1l0.4,0.6l-0.3,1.9l-0.2,1.4l-0.2,0.2l-0.3,2.3l-0.4,0.3l0.1,0.6l-0.3,0.8l0.1,0.1l-0.6,2.3
		l-0.6,0.6l0.3,0.3l-0.2,0.2v0.6l0.6,0.1l1.8-0.2l1.1-3.2l0.9-4.3l1.3-4.3L259.6,69.1z M255.2,83.7l-2.3,0.2l-0.2,0.8l0.2,0.3
		l-0.4,0.6l-0.2,0.1l-0.1,1.1l-0.4,0.6l-0.2,0.6l-0.5,2.2l-0.9,2.4l0.2,0.4l-0.4,1.1l-0.2,0.2l0.1,0.2l-0.6,2.1l-0.7,2.9l-0.2,1.9
		l0.1,0.3l-0.2,0.2l-0.5,2.8l0.2,1.1l-0.1,0.6l0.6,1.1l0.4,0.2l-0.2-0.3l0.3-0.3v-0.6l1.1-2.8l0.2-1.2l0.6-1.1l-0.1-0.2l0.6-2v-0.6
		l0.2-0.2l0.1-0.7l0.3-0.6l-0.2-0.5l0.8-2.5l0.4-0.2l0.1-1.1l0.3-1.2l1.5-5.1l0.2-0.2l0.2-1.1l0.2-0.6l0.2-0.8L255.2,83.7
		L255.2,83.7z"/>
	<g>
		<path class="st0" d="M199.8,25.8c0.2-0.1,0.1-0.3-0.2-0.2c-1.5,0.3-4.2,1.3-6.4,4.4c-1.4,1.9-2.1,5.3-0.9,8.4
			c3.7,9.5,11.3,4.1,11.3,4.1s2.3-1.2,3.8-4.6c1.3-3,1.9-9.3-0.4-12.4c-5.1-6.8-12.3-1-12.3,3.9c0.1,2.1,1.1,3.2,2.2,3.8
			c1.8,0.9,5.2-0.1,4.5-3.4c0,0-0.7-0.3-0.6,0.3c0.2,0.6,0.6,1.9-1.1,2.7c-1.6,0.7-4.2-0.2-4.1-4c0.2-2.4,1.5-4.1,3.6-4.5
			c2-0.5,6.9,2.4,6.1,9.1s-2.5,8.3-3.3,9.1c-0.9,0.8-6.6-1.5-7.4-7.4C194,30.2,196.8,27.4,199.8,25.8z"/>
		<path class="st0" d="M201.3,43.1l-0.4-0.3c3.1-3.4,3.2-9.2,3.2-10.3c0-3.1-0.8-5.4-2.3-6.7c-1.5-1.5-3.5-1.3-3.5-1.3l-0.1-0.5
			c0.1,0,2.1-0.2,3.9,1.5c1.6,1.5,2.4,3.8,2.4,7.1C204.6,33.6,204.5,39.5,201.3,43.1z"/>
	</g>
	<g>
		<path class="st0" d="M270.1,87c0.2-0.1,0.1-0.4-0.2-0.3c-1.9,0.4-5.6,1.7-8.5,5.8c-1.9,2.6-2.8,7-1.1,11.2
			c4.8,12.5,14.9,5.4,14.9,5.4s3.1-1.6,5-6.2c1.8-4,2.4-12.3-0.6-16.4c-6.7-9-16.3-1.3-16.1,5.2c0.1,2.8,1.5,4.4,2.8,5
			c2.4,1.2,6.9-0.2,5.8-4.5c0,0-1-0.4-0.8,0.4s0.7,2.6-1.4,3.5c-2.2,1-5.6-0.3-5.4-5.3c0.2-3.1,2-5.4,4.7-6c2.7-0.6,9.2,3.2,8.1,12
			c-1.1,8.8-3.3,11-4.4,12c-1.1,1.1-8.7-1.9-9.8-9.7C262.4,92.7,266.1,89.1,270.1,87z"/>
		<path class="st0" d="M272.1,109.8l-0.5-0.4c4.1-4.5,4.1-12.1,4.1-13.6c0-4.1-1.1-7.1-3-8.9c-2.1-1.9-4.6-1.8-4.6-1.7l-0.1-0.6
			c0.1,0,2.8-0.2,5.1,1.9c2.1,1.9,3.2,5.1,3.2,9.4C276.4,97.3,276.3,105,272.1,109.8z"/>
	</g>
	<g>
		<path class="st0" d="M177.5,82.6c0.2-0.1,0.1-0.4-0.2-0.3c-1.9,0.4-5.6,1.7-8.5,5.8c-1.9,2.6-2.8,7-1.1,11.2
			c4.8,12.5,14.9,5.4,14.9,5.4s3.1-1.6,5-6.2c1.8-4,2.4-12.3-0.6-16.4c-6.7-9-16.3-1.3-16.1,5.2c0.1,2.8,1.5,4.4,2.8,5
			c2.4,1.2,6.9-0.2,5.8-4.5c0,0-1-0.4-0.8,0.4c0.2,0.8,0.7,2.6-1.4,3.5c-2.2,1-5.6-0.3-5.4-5.3c0.2-3.1,2-5.4,4.7-6
			c2.7-0.6,9.2,3.2,8.1,12c-1.1,8.8-3.3,11-4.4,12c-1.1,1.1-8.7-1.9-9.8-9.7C169.8,88.3,173.6,84.6,177.5,82.6z"/>
		<path class="st0" d="M179.5,105.3l-0.5-0.4c4.1-4.5,4.1-12.1,4.1-13.6c0-4.1-1.1-7.1-3-8.9c-2.1-1.9-4.6-1.8-4.6-1.7l-0.1-0.6
			c0.1,0,2.8-0.2,5.1,1.9c2.1,1.9,3.2,5.1,3.2,9.4C183.9,92.8,183.7,100.7,179.5,105.3z"/>
	</g>
	<path class="st1" d="M166.2,110.2c-4.2,11-23.5,6.9-23.5,6.9l3.6-30.1l0.1-0.6v-0.2l0.2-1.1l0.6-2.1l0.1-1.6l0.7-3.9l1.2-6
		l-0.5-3.2l0.7-6.3c0.2-0.2,0.4-0.3,0.2-0.2h-0.2l0.2-1.8l-1.4-1l-3.4-0.9l-0.9,0.2l-0.9,0.7l-2.3,0.7l-0.9,0.6l-0.5-0.2l-0.6,0.6
		l-0.9,0.2l-4.3,1.6l-2.8,1.1l-1.2,1l4.1,2.2l2.3,1.1l0.6-0.9l-0.9-0.2l-1.4-1.3l0.7-1.1l1.5-1.3l0.6-0.2l0.2-0.6h0.9l3.1-1.9
		l-9.5,53.3c0,0-27.8,3.7-20.6,11.1c7.2,7.3,25.1-4,25.1-4s28,13.2,33.2-2.7L166.2,110.2z M111.4,122.8c-0.9-2.9,9.9-7.1,16.1-7.1
		c4.6,0,5.6,2.4,5.6,2.4C129.3,123.7,112.9,128.1,111.4,122.8z M135,113.7l7.9-53.1h1.9l-1.1,7.5l0.2,2.4l-1.1,1.2l-0.7,4.6
		l-0.5,1.4l0.1,1.9l-0.9,2.4l0.5,0.9l-0.6,1.7v1.6l-0.4,3l-1.2,7.1l0.3,0.5l-0.6,0.8l0.2,0.6l-0.6,1.2l0.1,2.1l-0.4,0.7l-0.2,1.9
		l-0.8,0.6l0.6,1.1l-0.6,0.8l-0.3,3.9l-0.2,2.7h0.1H135V113.7z"/>
	<path class="st1" d="M54.8,41.4l-0.5-2.4l-0.6-1.2l-0.5-0.8l-1.5-1.8l-2.2-0.5l-0.2,0.2L48.3,35l-1.7,1.8l-0.6,1.9l0.6,1.8l0.6,0.8
		l1.2,1l1.1-0.1l0.3-0.5l-1.5-0.5L48,40.1l0.1-1.5l0.5-1.1l0.9-0.9l1.5-0.4l1.1,1.1l0.2,1.2v2.5l-0.9,3.8l-0.1,0.6l-1.4,2.4l0.2,0.6
		l-1,1.1l-1.5,2.4l-1.5,1.6c-1.9,0-3.8-0.9-4.8-3.6c-0.4-1.2-11.7-35.9-14-42.7l0.1-0.2l-0.6-1.5l-2-2.1L24,3.3l-0.8,0.4h-1.8
		l-0.8,0.2l-0.2-0.3L19.9,4l-0.6-0.2L15.8,4l-2.3,0.2l-1.1,0.5l2.2,3.6l1.2,1.8l0.7-0.6L16,9l-0.5-1.8l0.8-0.9l1.5-0.8l0.5,0.1
		L18.6,5l0.6,0.3l2.7-0.8l1.9-0.1v0.2l-0.6,0.6l-1.5,3.6l-0.6,1.7l-1.7,3.9l0.4,0.4l-0.7,0.2l-0.6,2.1l-1.2,2.3l0.2,0.2v1.1
		l-0.8,1.1L16,23.8l-1.4,2.1l0.1,1.1l-0.9,1.5l-0.5,1.6L12.1,33l-2.6,5.6c-0.6-0.1-1.2-0.3-1.7-0.7c-4-3.4-1.1-6.7,0.3-7.1
		c2.9-0.7,2.2,1.8,3.2,1.9c0.3,0.1,1-0.5-0.4-1.9c-1.5-1.7-5.5-0.2-5.8,2.9c-0.2,2.5,0.9,6.2,3.3,7.5v0.3l-0.9,1l-0.6,2.1l-0.5,0.6
		l-0.7,1.8l-0.7,0.3v1.3l-0.6,0.6l-1.5,3.6c-0.4-0.5-0.7-1.1-1-1.9c-1.1-3.7,1.2-4.8,2.8-4.9c0,0,0.2,0,0.5,0.1
		c0.1,0.1,0.4,0.1,0.5-0.2c0-0.2-0.2-0.2-0.5-0.2c-0.2,0-0.5,0-0.6,0c-4.2,0.7-5.3,5.3-4.1,8.4c1.2,3.3,4.7,5.4,4.7,5.4l2.3-4.5h0.1
		l5.8-13c4.8-0.5,11.9-2.8,15.2-4.6l5.2,16.1c0,0-1.4,2.8-1.4,3.7c-1.3,1.4-3.6,4.1-2.2,5.7c0.6,0.6,1.3,0.4,1.5,0.1
		c0.2-0.2,0-0.6,0-0.6S31.5,61.9,31,62c-0.6,0-0.3-2.7,2.4-4.9c1.9-0.1,5.6-0.2,7.6,0.4l0.1,0.1l1.9,0.5h2.8l0.1-0.4l1.5-0.3
		l0.3-0.3h0.5l2.1-1.9l1.2-1.6l1.3-2.9l0.8-2.4v-0.4l0.7-1.2L54.8,41.4z M6.7,54.8L6.7,54.8L6.7,54.8C6.7,54.8,6.7,54.8,6.7,54.8z
		 M15.5,37.2l7.6-16.8l3.2,10C23.8,32.2,19.5,35.3,15.5,37.2z M25.7,15l1.3-3.6l12.6,39.9c0,0-1.9,0-2.2,0.5
		C37.1,52.3,25.7,15,25.7,15z"/>
</g>
</svg>
