<?xml version="1.0" encoding="utf-8"?>
<!-- Generator: Adobe Illustrator 27.4.1, SVG Export Plug-In . SVG Version: 6.00 Build 0)  -->
<svg version="1.1" id="Layer_1" xmlns="http://www.w3.org/2000/svg" xmlns:xlink="http://www.w3.org/1999/xlink" x="0px" y="0px"
	 viewBox="0 0 576.4 343.2" style="enable-background:new 0 0 576.4 343.2;" xml:space="preserve">
<style type="text/css">
	.st0{fill:#FFFFFF;}
	.st1{fill:none;stroke:#828283;stroke-linecap:round;stroke-linejoin:round;stroke-miterlimit:10;}
</style>
<g>
	<g>
		<g id="Layer_1_00000049901014576698029320000010871042734072477872_">
			<path class="st0" d="M116.4,80.2c-8.2,0.6-14.4,7.9-13.3,16c0.6,15.7,13.7,18.4,13.7,18.4c-0.5,0-9.9,0.7-10.4,0.7
				c-5.4,0.4-8.9,4.7-10,10c0.2,7.8-1.3,20.9,15.8,24.3c0,0,2.2,21.3,10.6,36.1h-5l4.8,7.7l5.5-7.7h-3.8
				c-6.8-12.4-7.4-33.9-7.4-33.9c24.9,1.6,64.6-3.4,70.6-10.9c4.4-5.4,7.4-23.1-4.7-25.5c-16.6-3.4-52-1.8-71.3-0.6
				c0,0,11.1-0.1,13,0c24.9,1.6,68.9,2.2,74.8-5.3c4.4-5.4,7.3-26.9-4.8-29.3C178.5,77.1,117.9,80.1,116.4,80.2z"/>
			<path class="st0" d="M136.9,155.2"/>
		</g>
		<g id="Layer_2_00000163059138673176197320000005074500498752233638_">
			<path class="st1" d="M119.7,150.9c24.9,1.6,61.8-4,67.8-11.5c4.4-5.4,7.4-23.1-4.7-25.5c-11.3-0.5-30.1,3.5-71.2-0.7
				c0,0,81.8,2.2,87.8-5.2c4.4-5.4,7.3-26.9-4.8-29.3c-14.5-3.5-74.1-0.4-74.1-0.4c-2,0.1-2.5,0.2-4,0.3c-8.2,0.6-14.4,7.9-13.3,16
				c1.3,9,7.8,17.9,11.3,18.5c1.3,0.2-6.4,0.5-6.4,0.5c-0.5,0-1.1,0.1-1.6,0.1c-5.4,0.4-9.5,4.6-10,10
				c-2.2,21.5,15.8,25.9,15.8,25.9c0.8,14,10,35.5,10,35.5h-5l4.8,7.7l5.2-7.3"/>
		</g>
	</g>
	<g>
		<g id="Layer_1_00000132084963594968455510000015985869422016606905_">
			<path class="st0" d="M222.4,31.3c-8.2,0.6-14.4,7.9-13.3,16c0.6,15.7,13.7,18.4,13.7,18.4c-0.5,0-9.9,0.7-10.4,0.7
				c-5.4,0.4-8.9,4.7-10,10c0,33.5,25.8,24.9,47.5,27.4c0,0,19.7,97.4,28.1,112.3h-5l9.1,7.4l1.2-7.4h-3.8
				c-6.8-12.4-25-110.1-25-110.1c24.9,1.6,32.9-6.4,38.9-13.9c4.4-5.4,7.4-23.1-4.7-25.5c-16.6-3.4-52-1.8-71.3-0.6
				c0,0,11.1-0.1,13,0c24.9,1.6,68.9,2.2,74.8-5.3c4.4-5.4,7.3-26.9-4.8-29.3C284.5,28.2,223.9,31.2,222.4,31.3z"/>
			<path class="st0" d="M263.7,108.8"/>
		</g>
		<g id="Layer_2_00000047046398291473471660000018143428169275489717_">
			<path class="st1" d="M257.3,105.1c24.9,1.6,30.1-7.1,36.1-14.6c4.4-5.4,7.4-23.1-4.7-25.5c-11.3-0.5-30.1,3.5-71.2-0.7
				c0,0,81.8,2.2,87.8-5.2c4.4-5.4,7.3-26.9-4.8-29.3c-14.5-3.5-74.1-0.4-74.1-0.4c-2,0.1-2.5,0.2-4,0.3c-8.2,0.6-14.4,7.9-13.3,16
				c1.3,9,7.8,17.9,11.3,18.5c1.3,0.2-6.4,0.5-6.4,0.5c-0.5,0-1.1,0.1-1.6,0.1c-5.4,0.4-9.5,4.6-10,10c-3.4,37.6,47.5,29,47.5,29
				c0.8,14,27.6,111.7,27.6,111.7h-5l9.1,7.4l0.9-7"/>
		</g>
	</g>
	<g>
		<g id="Layer_1_00000069362570728815043920000011410335090990096056_">
			<path class="st0" d="M395.4,111.6c-12.1,2.4-9.2,23.9-4.8,29.3c5.9,7.5,49.9,6.9,74.8,5.3c1.9-0.1,13,0,13,0
				c-19.3-1.2-54.7-2.8-71.3,0.6c-12.1,2.4-9.1,20.1-4.7,25.5c6,7.5,55,16.8,84.6,4.4c0,0,22.6,17.1,16.1,42.6h-3.8l1.2,7.4l9.1-7.4
				h-5c8.4-14.8-13.8-46.5-13.8-46.5c1.8-1.7,2.6-8.5,2.8-16.2c-1.1-5.3-4.6-9.6-10-10c-0.5,0-9.9-0.7-10.4-0.7
				c0,0,13.2-2.7,13.7-18.4c1.3-14-9.2-17.3-17.4-17.9c-0.1,0,13.2-17.7-0.7-26.8c-8.9-5.8-38.8-3-49-2.3c-12.1,0.8-15.9,2-17.9,10
				c-1.5,5.7-2.1,13.1,1.4,16c5.8,4.7,57.6,2.7,56.7,2.7C441.1,108.4,407.1,109.3,395.4,111.6z"/>
			<path class="st0" d="M453,186.5"/>
		</g>
		<g id="Layer_2_00000013174642850045174220000013043672952555840896_">
			<path class="st1" d="M500,219.1l0.9,7l9.1-7.4h-5c0,0,6.8-4.4-14.3-45.9c0,0,10.4-23.4-7.2-27.8c-0.5-0.1-1.1-0.1-1.6-0.1
				c0,0-7.7-0.3-6.4-0.5c3.5-0.6,10-9.5,11.3-18.5c1.1-8.1-5.1-15.4-13.3-16c-1.5-0.1-2-0.2-4-0.3c0,0,13.1-16.8,2.4-24.9
				c-7.1-5.4-26.6-8.6-61.7-2.8c-2.6,0.4-4.8,1.8-6.6,3.8c-3,3.1-5.3,16.3,1.5,23.2c0,0,55.6,0.4,54.9,0.4
				c-17.4-0.7-53.7-1.8-64.6,0.8c-12.1,2.4-9.2,23.9-4.8,29.3c6,7.4,87.8,5.2,87.8,5.2c-41.1,4.2-59.9,0.2-71.2,0.7
				c-12.1,2.4-9.1,20.1-4.7,25.5c6,7.5,32,13.7,56.9,12.1"/>
		</g>
	</g>
	<g>
		<g id="Layer_1_00000080208652011171079970000006355620759362753929_">
			<path class="st0" d="M324.7,40.7c-8.2,0.6-14.4,7.9-13.3,16c0.6,15.7,13.7,18.4,13.7,18.4c-0.5,0-9.9,0.7-10.4,0.7
				c-5.4,0.4-8.9,4.7-10,10c-0.2,9.2-9.8,27.7,55.6,27.8c0,0,20.3,122.7,28.7,137.5h-5l9.1,7.4l1.2-7.4h-3.8
				c-6.8-12.4-26.8-138.1-26.8-138.1c24.9,1.6,29.2-4.3,34.6-11.1c4-4.4,4.9-23.6-7.2-26c-16.6-3.4-52-1.8-71.3-0.6
				c0,0,11.1-0.1,13,0c24.9,1.6,68.9,2.2,74.8-5.3c4.4-5.4,7.3-26.9-4.8-29.3c-2.6-0.5-6.4-0.9-11-1.1c-1.1-0.1,9.4,4.1,12.4-10
				c4.6-21.2-14-22.6-7-20.9c-30.2-7.7-65.3-6-79.2,2c-5.4,3.1-4.3,22,1.3,25.6c5.6,3.6,58.3,2.9,57,2.9
				C353.4,39.3,325.7,40.6,324.7,40.7z"/>
			<path class="st0" d="M363.7,117.1"/>
		</g>
		<g id="Layer_2_00000160177239192409459960000000712660696987132074_">
			<path class="st1" d="M366.5,112.2c24.9,1.6,29-6.8,32.6-13.4c2.4-4.3,4.1-21.9-8-24.3C379.8,74,361,78,319.9,73.8
				c0,0,81.8,2.2,87.8-5.2c4.4-5.4,7.3-26.9-4.8-29.3c-2.1-0.5-5.3-0.9-9-1.2c-1.1-0.1,17.7-1.2,8-24.9C397.6,3,338.7,1.9,318,10.8
				c-7.9,3.4-3.1,21.5-0.8,23.9c5.1,5.3,67.1,3,66.3,3c-22.8-0.5-54.7,1.2-54.7,1.2c-2,0.1-2.5,0.2-4,0.3c-8.2,0.6-14.4,7.9-13.3,16
				c1.3,9,7.8,17.9,11.3,18.5c1.3,0.2-6.4,0.5-6.4,0.5c-0.5,0-1.1,0.1-1.6,0.1c-5.4,0.4-8.3,4.9-10,10
				c-11.1,32.4,55.6,29.4,55.6,29.4c0.8,14,28.2,136.9,28.2,136.9h-5l9.1,7.4l0.9-7"/>
		</g>
	</g>
	<g>
		<g id="Layer_1_00000082350869506054215610000001689772956411343285_">
			<path class="st0" d="M168.7,151.6c-8.2,0.6-14.4,7.9-13.3,16c0.6,15.7,13.7,18.4,13.7,18.4c-0.5,0-9.9,0.7-10.4,0.7
				c-5.4,0.4-8.9,4.7-10,10c1,21.8,21.5,19.4,38.6,22.8c0,0,3,7.1,7.4,9.8l-4.4,1.5l8.4,5.6l1.3-8.9l-3.8,1.4
				c-3.3-2-4.3-7.2-4.3-7.2c24.9,1.6,41.9-1.8,47.9-9.3c4.4-5.4,7.4-23.1-4.7-25.5c-16.6-3.4-52-1.8-71.3-0.6c0,0,11.1-0.1,13,0
				c24.9,1.6,68.9,2.2,74.8-5.3c4.4-5.4,7.3-26.9-4.8-29.3C230.8,148.5,170.2,151.5,168.7,151.6z"/>
			<path class="st0" d="M189.2,226.6"/>
		</g>
		<g id="Layer_2_00000021816476474898835930000013603171702394369184_">
			<path class="st1" d="M194.7,220.7c24.9,1.6,39-2.5,45-10c4.4-5.4,7.4-23.1-4.7-25.5c-11.3-0.5-30.1,3.5-71.2-0.7
				c0,0,81.8,2.2,87.8-5.2c4.4-5.4,7.3-26.9-4.8-29.3c-14.5-3.5-74.1-0.4-74.1-0.4c-2,0.1-2.5,0.2-4,0.3c-8.2,0.6-14.4,7.9-13.3,16
				c1.3,9,7.8,17.9,11.3,18.5c1.3,0.2-6.4,0.5-6.4,0.5c-0.5,0-1.1,0.1-1.6,0.1c-5.4,0.4-9.5,4.6-10,10
				c-2.2,21.5,38.6,24.4,38.6,24.4c3.1,7.1,7.4,9.8,7.4,9.8l-4.8,1.7l8.8,5.4l1.3-8.4"/>
		</g>
	</g>
	<g>
		<g id="Layer_1_00000155866647805545842810000006137810698373820819_">
			<path class="st0" d="M400.6,186.4c-0.5,0-9.9,0.7-10.4,0.7c-5.4,0.4-8.9,4.7-10,10c1,21.8,21.5,19.4,38.6,22.8c0,0,3,7.1,7.4,9.8
				l-4.4,1.5l8.4,5.6l1.3-8.9l-3.8,1.4c-3.3-2-4.3-7.2-4.3-7.2c24.9,1.6,41.9-1.8,47.9-9.3c4.4-5.4,7.4-23.1-4.7-25.5
				c-16.6-3.4-52-1.8-71.3-0.6c0,0,11.1-0.1,13,0C433.1,188.3,400.6,186.4,400.6,186.4z"/>
			<path class="st0" d="M420.7,227"/>
		</g>
		<g id="Layer_2_00000016768014470164157600000014914795377511129216_">
			<path class="st1" d="M426.2,221.2c24.9,1.6,39-2.5,45-10c4.4-5.4,7.4-23.1-4.7-25.5c-11.3-0.5-74.7-0.3-74.7-0.3
				c-0.5,0-1.1,0.1-1.6,0.1c-5.4,0.4-9.5,4.6-10,10c-2.2,21.5,38.6,24.4,38.6,24.4c3.1,7.1,7.4,9.8,7.4,9.8l-4.8,1.7l8.8,5.4
				l1.3-8.4"/>
		</g>
	</g>
	<g>
		<g id="Layer_1_00000078015999730763650500000010085684979779308977_">
			<path class="st0" d="M215.3,314.1c-1-21.8-62-13.5-77.5-12.1c0,0-2.5-3.3-8.4-7.8l1.7-3h-11.7l5,7.3l2.4-2.4
				c5.5,1.9,5.5,5.7,5.5,5.7c-4.5,1.6-6.1,0.5-12.1,8c-4.4,5.4-5.5,22.1,6.6,24.5C225.5,350.5,214.2,319.4,215.3,314.1z"/>
			<path class="st0" d="M134.9,297"/>
		</g>
		<g id="Layer_2_00000113326387934843229120000009728420419865561755_">
			<path class="st1" d="M129.4,302.8c-16,2.7-28.3,33.6,18.4,35.7c49.7,2.9,69.9-2.6,67.5-24.4c-2.3-21.5-77.5-12.1-77.5-12.1
				c-2.9-5-8.4-7.8-8.4-7.8l2.1-3.1l-12.1,0.1l4.9,6.8"/>
		</g>
	</g>
	<g>
		<g id="Layer_1_00000036250474085854513930000015641406084297833407_">
			<path class="st0" d="M274.5,133.9c-12.1,2.4-9.2,23.9-4.8,29.3c5.9,7.5,49.9,6.9,74.8,5.3c1.9-0.1,13,0,13,0
				c-19.3-1.2-54.7-2.8-71.3,0.6c-12.1,2.4-9.1,20.1-4.7,25.5c6,7.5,43.3,11.7,68.2,10.1c0,0-1,5.2-4.3,7.2l-3.8-1.4l1.3,8.9
				l8.4-5.6l-4.4-1.5c4.5-2.7,7.4-9.8,7.4-9.8c17.1-3.4,18.8-15.8,18.3-23.6c-1.1-5.3-4.6-9.6-10-10c-0.5,0-9.9-0.7-10.4-0.7
				c0,0,13.2-2.7,13.7-18.4c1.1-8.1-5.1-15.4-13.3-16C351.1,133.7,290.5,130.7,274.5,133.9z"/>
			<path class="st0" d="M352.4,209.6"/>
		</g>
		<g id="Layer_2_00000077289236282623675900000004309532424280525447_">
			<path class="st1" d="M341.5,211l1.3,8.4l8.8-5.4l-4.8-1.7c0,0,4.4-2.7,7.4-9.8c0,0,20.4-3.7,18.3-25.2c-0.5-5.4-4.6-9.6-10-10
				c-0.5,0-1.1-0.1-1.6-0.1c0,0-7.7-0.3-6.4-0.5c3.5-0.6,10-9.5,11.3-18.5c1.1-8.1-5.1-15.4-13.3-16c-1.5-0.1-2-0.2-4-0.3
				c0,0-59.6-3.1-74.1,0.4c-12.1,2.4-9.2,23.9-4.8,29.3c6,7.4,87.8,5.2,87.8,5.2c-41.1,4.2-59.9,0.2-71.2,0.7
				c-12.1,2.4-9.1,20.1-4.7,25.5c6,7.5,40.4,12.4,65.3,10.8"/>
		</g>
	</g>
	<g>
		<g id="Layer_1_00000088122836445920447460000016989293363725589381_">
			<path class="st0" d="M23.3,72c0,0-8.5,0.6-10,0.7C5.1,73.3-1.1,80.6,0,88.7c1.3,9,7.8,17.9,11.3,18.5c1.3,0.2,2.8,2.3,2.8,2.3
				c-0.5,0-1.1,0.1-1.6,0.1c-5.4,0.4-8.9,4.7-10,10c-2.6,12.4,4.1,25.3,35.8,27.9c0,0,3.2,0.4,4.9,14.5h-5l4.8,7.7l5.5-7.7h-3.8
				c0.4-6-2.7-14.7-2.7-14.7c24.9,1.6,45.6-4.5,51.6-12c4.4-5.4,7.4-23.1-4.7-25.5c-16.6-3.4-52-1.8-71.3-0.6c0,0-0.2-0.7,1.7-0.6
				c24.9,1.6,71,1,76.9-6.5c4.4-5.4,7.3-26.9-4.8-29.3C75.4,69.6,20.7,71.5,23.3,72z"/>
			<path class="st0" d="M43,149.5"/>
		</g>
		<g id="Layer_2_00000097461232134750590220000004303074777599095705_">
			<path class="st1" d="M42.8,145.8c24.9,1.6,44.7-4.6,50.7-12.1c4.4-5.4,7.4-23.1-4.7-25.5c-11.3-0.5-30.1,3.5-71.2-0.7
				c0,0,72.6,0.4,78.6-7c4.4-5.4,7.3-26.9-4.8-29.3c-14.5-3.5-74.1-0.4-74.1-0.4c-2,0.1-2.5,0.2-4,0.3C5.1,71.7-1.1,79,0,87.1
				c1.3,9,7.8,17.9,11.3,18.5c1.3,0.2,2.8,2.3,2.8,2.3c-0.5,0-1.1,0.1-1.6,0.1c-5.4,0.4-8.9,4.7-10,10
				c-2.6,27.7,30.4,27.8,35.4,27.9s5.3,16.3,5.3,16.3h-5l4.8,7.7l5.2-7.3"/>
		</g>
	</g>
	<g>
		<g id="Layer_1_00000071517560216376618690000001939542878398298758_">
			<path class="st0" d="M473.1,36.1c6,7.5,54.6,7.7,79.5,6.1c0,0-1,0.4-1.1-0.2c-19.6-1.1-53-2.4-69,0.8
				c-12.1,2.4-9.2,23.9-4.8,29.3c5.9,7.5,52,8.1,76.9,6.5c1.9-0.1,1.7,0.6,1.7,0.6C537,78,501.6,76.4,485,79.8
				c-12.1,2.4-9.1,20.1-4.7,25.5c6,7.5,26.7,13.6,51.6,12c0,0,11.5,80.3-23.7,161.6l-2.7-4.1l-5.1,10.9l13.1-2l-3.8-4.9
				c38.4-79.7,25.9-161.4,25.9-161.4c31.7-2.6,38.4-15.5,35.8-27.9c-1.1-5.3-4.6-9.6-10-10c-0.5,0-1.1-0.1-1.6-0.1
				c0,0,1.5-2.1,2.8-2.3c3.5-0.6,10-9.5,11.3-18.5c1.1-8.1-5.1-15.4-13.3-16c-1.5-0.1-2-0.2-4-0.3l1.4-1.2c2.6-0.5,7.1-5.8,9.6-12.2
				c4.1-10.4-3.2-21.7-14.4-22.5c-17.8-1.2-57.5-3.2-75.3,0.4C465.8,9.3,468.7,30.8,473.1,36.1z"/>
			<path class="st0" d="M530.9,119.5"/>
		</g>
		<g id="Layer_2_00000033367931693957580640000000061948669300957856_">
			<path class="st1" d="M505.7,275.5l-5.4,10.5l13.1-2l-3.8-4.9c0,0,34.8-57.9,26.3-163.2c0,0,38-0.2,35.4-27.9
				c-1.1-5.3-4.6-9.6-10-10c-0.5,0-1.1-0.1-1.6-0.1c0,0,1.5-2.1,2.8-2.3c3.5-0.6,10-9.5,11.3-18.5c1.1-8.1-5.1-15.4-13.3-16
				c-1.5-0.1-2-0.2-4-0.3l1.4-1.2c2.6-0.5,7.1-5.8,9.6-12.2c4.1-10.5-3.2-21.8-14.4-22.7c-17.8-1.1-57.5-3.2-75.3,0.4
				c-12.1,2.5-9.1,24-4.8,29.4c6,7.5,27.5-5.3,79.5,6.1c0,0-1,0.4-1.1-0.2c-38.4-4.3-54.5-2.7-69,0.8c-12.1,2.4-9.2,23.9-4.8,29.3
				c6,7.4,78.6,7,78.6,7c-41.1,4.2-59.9,0.2-71.2,0.7c-12.1,2.4-9.1,20.1-4.7,25.5c6,7.5,25.8,13.7,50.7,12.1"/>
		</g>
	</g>
</g>
<path class="st0" d="M15.9,71.2"/>
</svg>
